M48
; DRILL file {KiCad 9.0.6} date 2026-04-08T20:24:24+0200
; FORMAT={-:-/ absolute / metric / decimal}
; #@! TF.CreationDate,2026-04-08T20:24:24+02:00
; #@! TF.GenerationSoftware,Kicad,Pcbnew,9.0.6
; #@! TF.FileFunction,Plated,1,3,Blind
FMAT,2
METRIC
; #@! TA.AperFunction,Plated,Buried,ViaDrill
T1C0.300
%
G90
G05
T1
X21.55Y-67.28
X26.4Y-82.5
X30.25Y-66.75
X30.25Y-68.25
X30.49Y-74.33
X30.99Y-61.63
X31.75Y-66.75
X31.75Y-68.25
X31.99Y-56.45
X39.0Y-50.65
X39.03Y-57.53
X39.04Y-59.47
X42.0Y-49.5
X48.22Y-59.72
X54.31Y-71.76
X60.0Y-78.15
X61.0Y-64.6
X61.6Y-73.24
X67.55Y-70.97
X67.6Y-66.7
X69.08Y-63.76
X69.1Y-73.6
X69.25Y-54.78
X79.25Y-80.19
X82.12Y-60.22
X83.1Y-56.46
X84.75Y-104.75
X85.0Y-100.5
X86.25Y-89.45
X87.77Y-98.71
X89.98Y-57.52
X89.99Y-59.48
X90.0Y-50.625
X92.25Y-104.75
X92.5Y-100.5
X93.0Y-49.5
X93.65Y-89.45
X95.28Y-98.67
X99.21Y-59.72
X99.49Y-91.0
X99.75Y-104.75
X100.0Y-100.5
X102.78Y-98.69
X107.75Y-93.45
X109.43Y-95.7
X115.02Y-91.39
X115.07Y-95.83
M30
