%TF.GenerationSoftware,KiCad,Pcbnew,9.0.6*%
%TF.CreationDate,2026-04-01T05:14:03+02:00*%
%TF.ProjectId,SIGMAGE,5349474d-4147-4452-9e6b-696361645f70,rev?*%
%TF.SameCoordinates,Original*%
%TF.FileFunction,Copper,L1,Top*%
%TF.FilePolarity,Positive*%
%FSLAX46Y46*%
G04 Gerber Fmt 4.6, Leading zero omitted, Abs format (unit mm)*
G04 Created by KiCad (PCBNEW 9.0.6) date 2026-04-01 05:14:03*
%MOMM*%
%LPD*%
G01*
G04 APERTURE LIST*
G04 Aperture macros list*
%AMRoundRect*
0 Rectangle with rounded corners*
0 $1 Rounding radius*
0 $2 $3 $4 $5 $6 $7 $8 $9 X,Y pos of 4 corners*
0 Add a 4 corners polygon primitive as box body*
4,1,4,$2,$3,$4,$5,$6,$7,$8,$9,$2,$3,0*
0 Add four circle primitives for the rounded corners*
1,1,$1+$1,$2,$3*
1,1,$1+$1,$4,$5*
1,1,$1+$1,$6,$7*
1,1,$1+$1,$8,$9*
0 Add four rect primitives between the rounded corners*
20,1,$1+$1,$2,$3,$4,$5,0*
20,1,$1+$1,$4,$5,$6,$7,0*
20,1,$1+$1,$6,$7,$8,$9,0*
20,1,$1+$1,$8,$9,$2,$3,0*%
G04 Aperture macros list end*
%TA.AperFunction,SMDPad,CuDef*%
%ADD10RoundRect,0.218750X-0.256250X0.218750X-0.256250X-0.218750X0.256250X-0.218750X0.256250X0.218750X0*%
%TD*%
%TA.AperFunction,SMDPad,CuDef*%
%ADD11RoundRect,0.225000X-0.225000X-0.250000X0.225000X-0.250000X0.225000X0.250000X-0.225000X0.250000X0*%
%TD*%
%TA.AperFunction,SMDPad,CuDef*%
%ADD12RoundRect,0.250000X0.650000X-0.325000X0.650000X0.325000X-0.650000X0.325000X-0.650000X-0.325000X0*%
%TD*%
%TA.AperFunction,SMDPad,CuDef*%
%ADD13RoundRect,0.225000X0.225000X0.250000X-0.225000X0.250000X-0.225000X-0.250000X0.225000X-0.250000X0*%
%TD*%
%TA.AperFunction,SMDPad,CuDef*%
%ADD14RoundRect,0.225000X0.250000X-0.225000X0.250000X0.225000X-0.250000X0.225000X-0.250000X-0.225000X0*%
%TD*%
%TA.AperFunction,SMDPad,CuDef*%
%ADD15R,0.254800X0.706399*%
%TD*%
%TA.AperFunction,SMDPad,CuDef*%
%ADD16R,1.397000X0.812800*%
%TD*%
%TA.AperFunction,SMDPad,CuDef*%
%ADD17RoundRect,0.225000X-0.250000X0.225000X-0.250000X-0.225000X0.250000X-0.225000X0.250000X0.225000X0*%
%TD*%
%TA.AperFunction,SMDPad,CuDef*%
%ADD18RoundRect,0.200000X0.275000X-0.200000X0.275000X0.200000X-0.275000X0.200000X-0.275000X-0.200000X0*%
%TD*%
%TA.AperFunction,SMDPad,CuDef*%
%ADD19RoundRect,0.100000X0.100000X0.130000X-0.100000X0.130000X-0.100000X-0.130000X0.100000X-0.130000X0*%
%TD*%
%TA.AperFunction,SMDPad,CuDef*%
%ADD20RoundRect,0.200000X-0.200000X-0.275000X0.200000X-0.275000X0.200000X0.275000X-0.200000X0.275000X0*%
%TD*%
%TA.AperFunction,ComponentPad*%
%ADD21C,1.397000*%
%TD*%
%TA.AperFunction,SMDPad,CuDef*%
%ADD22RoundRect,0.200000X-0.275000X0.200000X-0.275000X-0.200000X0.275000X-0.200000X0.275000X0.200000X0*%
%TD*%
%TA.AperFunction,ComponentPad*%
%ADD23C,2.400000*%
%TD*%
%TA.AperFunction,SMDPad,CuDef*%
%ADD24RoundRect,0.200000X0.200000X0.275000X-0.200000X0.275000X-0.200000X-0.275000X0.200000X-0.275000X0*%
%TD*%
%TA.AperFunction,SMDPad,CuDef*%
%ADD25R,2.209800X2.148599*%
%TD*%
%TA.AperFunction,SMDPad,CuDef*%
%ADD26R,0.950000X0.280000*%
%TD*%
%TA.AperFunction,SMDPad,CuDef*%
%ADD27R,1.200000X2.000000*%
%TD*%
%TA.AperFunction,SMDPad,CuDef*%
%ADD28RoundRect,0.250000X-0.650000X0.325000X-0.650000X-0.325000X0.650000X-0.325000X0.650000X0.325000X0*%
%TD*%
%TA.AperFunction,SMDPad,CuDef*%
%ADD29R,1.849999X0.449999*%
%TD*%
%TA.AperFunction,SMDPad,CuDef*%
%ADD30RoundRect,0.075000X-0.725000X-0.075000X0.725000X-0.075000X0.725000X0.075000X-0.725000X0.075000X0*%
%TD*%
%TA.AperFunction,SMDPad,CuDef*%
%ADD31RoundRect,0.075000X-0.075000X-0.725000X0.075000X-0.725000X0.075000X0.725000X-0.075000X0.725000X0*%
%TD*%
%TA.AperFunction,SMDPad,CuDef*%
%ADD32RoundRect,0.218750X0.256250X-0.218750X0.256250X0.218750X-0.256250X0.218750X-0.256250X-0.218750X0*%
%TD*%
%TA.AperFunction,ComponentPad*%
%ADD33C,1.192000*%
%TD*%
%TA.AperFunction,ComponentPad*%
%ADD34C,0.750000*%
%TD*%
%TA.AperFunction,ComponentPad*%
%ADD35C,3.075000*%
%TD*%
%TA.AperFunction,ComponentPad*%
%ADD36C,1.650000*%
%TD*%
%TA.AperFunction,ComponentPad*%
%ADD37C,2.500000*%
%TD*%
%TA.AperFunction,SMDPad,CuDef*%
%ADD38R,0.604799X0.254800*%
%TD*%
%TA.AperFunction,SMDPad,CuDef*%
%ADD39R,0.254800X0.604799*%
%TD*%
%TA.AperFunction,SMDPad,CuDef*%
%ADD40R,2.590800X2.590800*%
%TD*%
%TA.AperFunction,SMDPad,CuDef*%
%ADD41R,0.350000X0.700000*%
%TD*%
%TA.AperFunction,ComponentPad*%
%ADD42C,0.650000*%
%TD*%
%TA.AperFunction,ComponentPad*%
%ADD43C,1.815000*%
%TD*%
%TA.AperFunction,ComponentPad*%
%ADD44C,2.085000*%
%TD*%
%TA.AperFunction,ViaPad*%
%ADD45C,0.600000*%
%TD*%
%TA.AperFunction,Conductor*%
%ADD46C,0.200000*%
%TD*%
G04 APERTURE END LIST*
D10*
%TO.P,D2,1,K*%
%TO.N,GND*%
X93750000Y-90962500D03*
%TO.P,D2,2,A*%
%TO.N,Net-(D2-A)*%
X93750000Y-92537500D03*
%TD*%
D11*
%TO.P,C6,1*%
%TO.N,Net-(U2-OUT)*%
X93725000Y-97500000D03*
%TO.P,C6,2*%
%TO.N,GND*%
X95275000Y-97500000D03*
%TD*%
D12*
%TO.P,C21,1*%
%TO.N,Net-(U4-+INB)*%
X84250000Y-51225000D03*
%TO.P,C21,2*%
%TO.N,+2V5*%
X84250000Y-48275000D03*
%TD*%
D13*
%TO.P,C31,1*%
%TO.N,+3V3*%
X68750000Y-78125000D03*
%TO.P,C31,2*%
%TO.N,GND*%
X67200000Y-78125000D03*
%TD*%
D10*
%TO.P,D1,1,K*%
%TO.N,GND*%
X86250000Y-90962500D03*
%TO.P,D1,2,A*%
%TO.N,Net-(D1-A)*%
X86250000Y-92537500D03*
%TD*%
D14*
%TO.P,FB3,1*%
%TO.N,Net-(U3-OUT)*%
X103000000Y-95775000D03*
%TO.P,FB3,2*%
%TO.N,Net-(JP3-A)*%
X103000000Y-94225000D03*
%TD*%
D13*
%TO.P,C17,1*%
%TO.N,Net-(U5-VREF2)*%
X85925000Y-56450000D03*
%TO.P,C17,2*%
%TO.N,GND*%
X84375000Y-56450000D03*
%TD*%
D15*
%TO.P,U3,1,IN*%
%TO.N,+5V*%
X99249999Y-101500900D03*
%TO.P,U3,2,GND*%
%TO.N,GND*%
X99750000Y-101500900D03*
%TO.P,U3,3,EN*%
%TO.N,+5V*%
X100250000Y-101500900D03*
%TO.P,U3,4,GS*%
%TO.N,GND*%
X100750001Y-101500900D03*
%TO.P,U3,5,\u002APOK*%
%TO.N,unconnected-(U3-\u002APOK-Pad5)*%
X100750001Y-99499100D03*
%TO.P,U3,6,FB*%
%TO.N,Net-(U3-FB)*%
X100250000Y-99499100D03*
%TO.P,U3,7,BYP*%
%TO.N,Net-(U3-BYP)*%
X99750000Y-99499100D03*
%TO.P,U3,8,OUT*%
%TO.N,Net-(U3-OUT)*%
X99249999Y-99499100D03*
D16*
%TO.P,U3,9,EPAD*%
%TO.N,GND*%
X100000000Y-100500000D03*
%TD*%
D17*
%TO.P,C32,1*%
%TO.N,+3V3*%
X80750000Y-77475000D03*
%TO.P,C32,2*%
%TO.N,GND*%
X80750000Y-79025000D03*
%TD*%
D14*
%TO.P,C52,1*%
%TO.N,Net-(U9-XTAL1{slash}CLKIN)*%
X22750000Y-70275000D03*
%TO.P,C52,2*%
%TO.N,GND*%
X22750000Y-68725000D03*
%TD*%
%TO.P,C24,1*%
%TO.N,GND*%
X97900000Y-59725000D03*
%TO.P,C24,2*%
%TO.N,+3V3*%
X97900000Y-58175000D03*
%TD*%
%TO.P,C49,1*%
%TO.N,+3V3*%
X28250000Y-63200000D03*
%TO.P,C49,2*%
%TO.N,GND*%
X28250000Y-61650000D03*
%TD*%
D10*
%TO.P,D3,1,K*%
%TO.N,GND*%
X101250000Y-90962500D03*
%TO.P,D3,2,A*%
%TO.N,Net-(D3-A)*%
X101250000Y-92537500D03*
%TD*%
D14*
%TO.P,FB1,1*%
%TO.N,Net-(U1-OUT)*%
X88000000Y-95775000D03*
%TO.P,FB1,2*%
%TO.N,Net-(JP1-A)*%
X88000000Y-94225000D03*
%TD*%
D18*
%TO.P,R4,1*%
%TO.N,Net-(U2-OUT)*%
X92000000Y-97575000D03*
%TO.P,R4,2*%
%TO.N,Net-(U2-FB)*%
X92000000Y-95925000D03*
%TD*%
D11*
%TO.P,C33,1*%
%TO.N,+3V3*%
X83725000Y-61000000D03*
%TO.P,C33,2*%
%TO.N,GND*%
X85275000Y-61000000D03*
%TD*%
D18*
%TO.P,R3,1*%
%TO.N,Net-(U1-OUT)*%
X86250000Y-95825000D03*
%TO.P,R3,2*%
%TO.N,Net-(D1-A)*%
X86250000Y-94175000D03*
%TD*%
D19*
%TO.P,JP2,1,A*%
%TO.N,Net-(JP2-A)*%
X95500000Y-92070000D03*
%TO.P,JP2,2,B*%
%TO.N,+2V5*%
X95500000Y-91430000D03*
%TD*%
D13*
%TO.P,C30,1*%
%TO.N,+3V3*%
X63775000Y-70500000D03*
%TO.P,C30,2*%
%TO.N,GND*%
X62225000Y-70500000D03*
%TD*%
D20*
%TO.P,R11,1*%
%TO.N,Net-(J1-CC2)*%
X113425000Y-94250000D03*
%TO.P,R11,2*%
%TO.N,GND*%
X115075000Y-94250000D03*
%TD*%
D21*
%TO.P,J14,1,1*%
%TO.N,+3V3*%
X93036500Y-66935000D03*
%TO.P,J14,2,2*%
X90496500Y-66935000D03*
%TO.P,J14,3,3*%
X93036500Y-69475000D03*
%TO.P,J14,4,4*%
X90496500Y-69475000D03*
%TO.P,J14,5,5*%
X93036500Y-72015000D03*
%TO.P,J14,6,6*%
X90496500Y-72015000D03*
%TO.P,J14,7,7*%
X93036500Y-74555000D03*
%TO.P,J14,8,8*%
X90496500Y-74555000D03*
%TO.P,J14,9,9*%
X93036500Y-77095000D03*
%TO.P,J14,10,10*%
X90496500Y-77095000D03*
%TO.P,J14,11,11*%
X93036500Y-79635000D03*
%TO.P,J14,12,12*%
X90496500Y-79635000D03*
%TO.P,J14,13,13*%
X93036500Y-82175000D03*
%TO.P,J14,14,14*%
X90496500Y-82175000D03*
%TO.P,J14,15,15*%
X93036500Y-84715000D03*
%TO.P,J14,16,16*%
X90496500Y-84715000D03*
%TD*%
D11*
%TO.P,C10,1*%
%TO.N,VBUS*%
X113475000Y-92500000D03*
%TO.P,C10,2*%
%TO.N,GND*%
X115025000Y-92500000D03*
%TD*%
D15*
%TO.P,U2,1,IN*%
%TO.N,+5V*%
X91749999Y-101500900D03*
%TO.P,U2,2,GND*%
%TO.N,GND*%
X92250000Y-101500900D03*
%TO.P,U2,3,EN*%
%TO.N,+5V*%
X92750000Y-101500900D03*
%TO.P,U2,4,GS*%
%TO.N,GND*%
X93250001Y-101500900D03*
%TO.P,U2,5,\u002APOK*%
%TO.N,unconnected-(U2-\u002APOK-Pad5)*%
X93250001Y-99499100D03*
%TO.P,U2,6,FB*%
%TO.N,Net-(U2-FB)*%
X92750000Y-99499100D03*
%TO.P,U2,7,BYP*%
%TO.N,Net-(U2-BYP)*%
X92250000Y-99499100D03*
%TO.P,U2,8,OUT*%
%TO.N,Net-(U2-OUT)*%
X91749999Y-99499100D03*
D16*
%TO.P,U2,9,EPAD*%
%TO.N,GND*%
X92500000Y-100500000D03*
%TD*%
D22*
%TO.P,R22,1*%
%TO.N,+3V3*%
X59250000Y-66425000D03*
%TO.P,R22,2*%
%TO.N,Net-(U8-NRST)*%
X59250000Y-68075000D03*
%TD*%
D12*
%TO.P,C23,1*%
%TO.N,Net-(U6-+INB)*%
X33250000Y-51225000D03*
%TO.P,C23,2*%
%TO.N,+2V5*%
X33250000Y-48275000D03*
%TD*%
D17*
%TO.P,C38,1*%
%TO.N,VREF+*%
X64250000Y-76600000D03*
%TO.P,C38,2*%
%TO.N,GND*%
X64250000Y-78150000D03*
%TD*%
D15*
%TO.P,U1,1,IN*%
%TO.N,+5V*%
X84249999Y-101500900D03*
%TO.P,U1,2,GND*%
%TO.N,GND*%
X84750000Y-101500900D03*
%TO.P,U1,3,EN*%
%TO.N,+5V*%
X85250000Y-101500900D03*
%TO.P,U1,4,GS*%
%TO.N,GND*%
X85750001Y-101500900D03*
%TO.P,U1,5,\u002APOK*%
%TO.N,unconnected-(U1-\u002APOK-Pad5)*%
X85750001Y-99499100D03*
%TO.P,U1,6,FB*%
%TO.N,Net-(U1-FB)*%
X85250000Y-99499100D03*
%TO.P,U1,7,BYP*%
%TO.N,Net-(U1-BYP)*%
X84750000Y-99499100D03*
%TO.P,U1,8,OUT*%
%TO.N,Net-(U1-OUT)*%
X84249999Y-99499100D03*
D16*
%TO.P,U1,9,EPAD*%
%TO.N,GND*%
X85000000Y-100500000D03*
%TD*%
D21*
%TO.P,J17,1,1*%
%TO.N,GND*%
X115924700Y-66935000D03*
%TO.P,J17,2,2*%
X113384700Y-66935000D03*
%TO.P,J17,3,3*%
X115924700Y-69475000D03*
%TO.P,J17,4,4*%
X113384700Y-69475000D03*
%TO.P,J17,5,5*%
X115924700Y-72015000D03*
%TO.P,J17,6,6*%
X113384700Y-72015000D03*
%TO.P,J17,7,7*%
X115924700Y-74555000D03*
%TO.P,J17,8,8*%
X113384700Y-74555000D03*
%TO.P,J17,9,9*%
X115924700Y-77095000D03*
%TO.P,J17,10,10*%
X113384700Y-77095000D03*
%TO.P,J17,11,11*%
X115924700Y-79635000D03*
%TO.P,J17,12,12*%
X113384700Y-79635000D03*
%TO.P,J17,13,13*%
X115924700Y-82175000D03*
%TO.P,J17,14,14*%
X113384700Y-82175000D03*
%TO.P,J17,15,15*%
X115924700Y-84715000D03*
%TO.P,J17,16,16*%
X113384700Y-84715000D03*
%TD*%
D23*
%TO.P,J4,1,SLEEVE*%
%TO.N,GND*%
X47850000Y-25400000D03*
%TO.P,J4,2,TIP*%
%TO.N,Net-(J4-TIP)*%
X47850000Y-38000000D03*
%TO.P,J4,3,RING*%
%TO.N,unconnected-(J4-RING-Pad3)*%
X47850000Y-31700000D03*
%TO.P,J4,4,SLEEVE_SWITCH*%
%TO.N,unconnected-(J4-SLEEVE_SWITCH-Pad4)*%
X64150000Y-25400000D03*
%TO.P,J4,5,TIP_SWITCH*%
%TO.N,unconnected-(J4-TIP_SWITCH-Pad5)*%
X64150000Y-38000000D03*
%TO.P,J4,6,RING_SWITCH*%
%TO.N,unconnected-(J4-RING_SWITCH-Pad6)*%
X64150000Y-31700000D03*
%TD*%
D21*
%TO.P,J8,1,1*%
%TO.N,ADC2_FMT1*%
X49550000Y-55450000D03*
%TO.P,J8,2,2*%
%TO.N,ADC2_MODE0*%
X52090000Y-55450000D03*
%TO.P,J8,3,3*%
%TO.N,ADC2_MODE1*%
X54630000Y-55450000D03*
%TO.P,J8,4,4*%
%TO.N,ADC2_FMT0*%
X57170000Y-55450000D03*
%TO.P,J8,5,5*%
%TO.N,ADC2_OSR*%
X59710000Y-55450000D03*
%TO.P,J8,6,6*%
%TO.N,GND*%
X62250000Y-55450000D03*
%TD*%
D17*
%TO.P,C51,1*%
%TO.N,Net-(U9-XTAL2)*%
X22750000Y-65725000D03*
%TO.P,C51,2*%
%TO.N,GND*%
X22750000Y-67275000D03*
%TD*%
D13*
%TO.P,C16,1*%
%TO.N,Net-(U5-VREF1)*%
X85925000Y-54700000D03*
%TO.P,C16,2*%
%TO.N,GND*%
X84375000Y-54700000D03*
%TD*%
D17*
%TO.P,C14,1*%
%TO.N,+3V3*%
X46900000Y-58175000D03*
%TO.P,C14,2*%
%TO.N,GND*%
X46900000Y-59725000D03*
%TD*%
D18*
%TO.P,R7,1*%
%TO.N,Net-(U3-OUT)*%
X99500000Y-97575000D03*
%TO.P,R7,2*%
%TO.N,Net-(U3-FB)*%
X99500000Y-95925000D03*
%TD*%
D14*
%TO.P,C50,1*%
%TO.N,+3V3*%
X33750000Y-63225000D03*
%TO.P,C50,2*%
%TO.N,GND*%
X33750000Y-61675000D03*
%TD*%
%TO.P,C35,1*%
%TO.N,+3V3*%
X69250000Y-57525000D03*
%TO.P,C35,2*%
%TO.N,GND*%
X69250000Y-55975000D03*
%TD*%
D24*
%TO.P,R12,1*%
%TO.N,+5V*%
X111075000Y-90750000D03*
%TO.P,R12,2*%
%TO.N,Net-(D4-A)*%
X109425000Y-90750000D03*
%TD*%
%TO.P,R10,1*%
%TO.N,Net-(J1-CC1)*%
X111075000Y-94250000D03*
%TO.P,R10,2*%
%TO.N,GND*%
X109425000Y-94250000D03*
%TD*%
D17*
%TO.P,C40,1*%
%TO.N,GND*%
X60750000Y-66475000D03*
%TO.P,C40,2*%
%TO.N,Net-(U8-NRST)*%
X60750000Y-68025000D03*
%TD*%
D14*
%TO.P,C42,1*%
%TO.N,Net-(U8-PH1)*%
X55750000Y-74775000D03*
%TO.P,C42,2*%
%TO.N,GND*%
X55750000Y-73225000D03*
%TD*%
D11*
%TO.P,C15,1*%
%TO.N,GND*%
X33375000Y-58200000D03*
%TO.P,C15,2*%
%TO.N,+5V*%
X34925000Y-58200000D03*
%TD*%
D20*
%TO.P,R17,1*%
%TO.N,+2V5*%
X52425000Y-48500000D03*
%TO.P,R17,2*%
%TO.N,Net-(C18-Pad2)*%
X54075000Y-48500000D03*
%TD*%
D25*
%TO.P,X2,1,1*%
%TO.N,Net-(U9-XTAL2)*%
X25750000Y-66320800D03*
%TO.P,X2,2,2*%
%TO.N,Net-(U9-XTAL1{slash}CLKIN)*%
X25750000Y-69679200D03*
%TD*%
D14*
%TO.P,C34,1*%
%TO.N,+3V3*%
X67750000Y-57525000D03*
%TO.P,C34,2*%
%TO.N,GND*%
X67750000Y-55975000D03*
%TD*%
D18*
%TO.P,R25,1*%
%TO.N,Net-(J6-ANODE_YELLOW)*%
X38000000Y-78575000D03*
%TO.P,R25,2*%
%TO.N,Net-(U9-LED2{slash}\u002ANINTSEL)*%
X38000000Y-76925000D03*
%TD*%
%TO.P,R8,1*%
%TO.N,Net-(U3-FB)*%
X99500000Y-94325000D03*
%TO.P,R8,2*%
%TO.N,GND*%
X99500000Y-92675000D03*
%TD*%
D13*
%TO.P,C53,1*%
%TO.N,+3V3*%
X63775000Y-72000000D03*
%TO.P,C53,2*%
%TO.N,GND*%
X62225000Y-72000000D03*
%TD*%
D22*
%TO.P,R23,1*%
%TO.N,GND*%
X70750000Y-55925000D03*
%TO.P,R23,2*%
%TO.N,Net-(U8-BOOT0)*%
X70750000Y-57575000D03*
%TD*%
D24*
%TO.P,R15,1*%
%TO.N,Net-(C12-Pad2)*%
X105075000Y-50250000D03*
%TO.P,R15,2*%
%TO.N,Net-(U4-+INA)*%
X103425000Y-50250000D03*
%TD*%
D12*
%TO.P,C22,1*%
%TO.N,Net-(U6-+INA)*%
X50250000Y-51225000D03*
%TO.P,C22,2*%
%TO.N,+2V5*%
X50250000Y-48275000D03*
%TD*%
D26*
%TO.P,U6,1,OUTA*%
%TO.N,AN2_R*%
X40574933Y-48749999D03*
%TO.P,U6,2,-INA*%
%TO.N,AN2_L*%
X40574933Y-49250000D03*
%TO.P,U6,3,+INA*%
%TO.N,Net-(U6-+INA)*%
X40574933Y-49750000D03*
%TO.P,U6,4,V-*%
%TO.N,GND*%
X40574933Y-50250001D03*
%TO.P,U6,5,+INB*%
%TO.N,Net-(U6-+INB)*%
X43425067Y-50250001D03*
%TO.P,U6,6,-INB*%
%TO.N,AN2_R*%
X43425067Y-49750000D03*
%TO.P,U6,7,OUTB*%
%TO.N,AN2_L*%
X43425067Y-49250000D03*
%TO.P,U6,8,V+*%
%TO.N,+5V*%
X43425067Y-48749999D03*
D27*
%TO.P,U6,9,EPAD*%
%TO.N,GND*%
X42000000Y-49500000D03*
%TD*%
D21*
%TO.P,J7,1,1*%
%TO.N,ADC1_FMT1*%
X100550000Y-55450000D03*
%TO.P,J7,2,2*%
%TO.N,ADC1_MODE0*%
X103090000Y-55450000D03*
%TO.P,J7,3,3*%
%TO.N,ADC1_MODE1*%
X105630000Y-55450000D03*
%TO.P,J7,4,4*%
%TO.N,ADC1_FMT0*%
X108170000Y-55450000D03*
%TO.P,J7,5,5*%
%TO.N,ADC1_OSR*%
X110710000Y-55450000D03*
%TO.P,J7,6,6*%
%TO.N,GND*%
X113250000Y-55450000D03*
%TD*%
D11*
%TO.P,C3,1*%
%TO.N,Net-(U1-OUT)*%
X86225000Y-97500000D03*
%TO.P,C3,2*%
%TO.N,GND*%
X87775000Y-97500000D03*
%TD*%
D20*
%TO.P,R20,1*%
%TO.N,Net-(C19-Pad2)*%
X29425000Y-50250000D03*
%TO.P,R20,2*%
%TO.N,Net-(U6-+INB)*%
X31075000Y-50250000D03*
%TD*%
D11*
%TO.P,C9,1*%
%TO.N,Net-(U3-OUT)*%
X101225000Y-97500000D03*
%TO.P,C9,2*%
%TO.N,GND*%
X102775000Y-97500000D03*
%TD*%
D18*
%TO.P,R24,1*%
%TO.N,Net-(J6-ANODE_GREEN)*%
X29000000Y-78575000D03*
%TO.P,R24,2*%
%TO.N,Net-(U9-LED1{slash}\u002AREGOFF)*%
X29000000Y-76925000D03*
%TD*%
D20*
%TO.P,R13,1*%
%TO.N,+2V5*%
X103425000Y-48500000D03*
%TO.P,R13,2*%
%TO.N,Net-(C12-Pad2)*%
X105075000Y-48500000D03*
%TD*%
D21*
%TO.P,J9,1,1*%
%TO.N,USART1_CK*%
X70916000Y-101850000D03*
%TO.P,J9,2,2*%
%TO.N,USART1_TX*%
X70916000Y-99310000D03*
%TO.P,J9,3,3*%
%TO.N,USART1_RX*%
X70916000Y-96770000D03*
%TO.P,J9,4,4*%
%TO.N,USART1_CTS*%
X70916000Y-94230000D03*
%TO.P,J9,5,5*%
%TO.N,USART1_RTS*%
X70916000Y-91690000D03*
%TO.P,J9,6,6*%
%TO.N,GND*%
X70916000Y-89150000D03*
%TD*%
D28*
%TO.P,C19,1*%
%TO.N,Net-(J5-TIP)*%
X27250000Y-48275000D03*
%TO.P,C19,2*%
%TO.N,Net-(C19-Pad2)*%
X27250000Y-51225000D03*
%TD*%
D21*
%TO.P,J10,1,1*%
%TO.N,JTRST*%
X77250000Y-101850000D03*
%TO.P,J10,2,2*%
%TO.N,JTDO_SWO*%
X77250000Y-99310000D03*
%TO.P,J10,3,3*%
%TO.N,JTDI*%
X77250000Y-96770000D03*
%TO.P,J10,4,4*%
%TO.N,JTCK_SWCLK*%
X77250000Y-94230000D03*
%TO.P,J10,5,5*%
%TO.N,JTMS_SWDIO*%
X77250000Y-91690000D03*
%TO.P,J10,6,6*%
%TO.N,GND*%
X77250000Y-89150000D03*
%TD*%
%TO.P,J11,1,1*%
%TO.N,GPIO_PE14*%
X64390000Y-86515900D03*
%TO.P,J11,2,2*%
%TO.N,GPIO_PE12*%
X64390000Y-83975900D03*
%TO.P,J11,3,3*%
%TO.N,GPIO_PE15*%
X61850000Y-86515900D03*
%TO.P,J11,4,4*%
%TO.N,GPIO_PE13*%
X61850000Y-83975900D03*
%TO.P,J11,5,5*%
%TO.N,GPIO_PB14*%
X59310000Y-86515900D03*
%TO.P,J11,6,6*%
%TO.N,GPIO_PE11*%
X59310000Y-83975900D03*
%TO.P,J11,7,7*%
%TO.N,GPIO_PE10*%
X56770000Y-86515900D03*
%TO.P,J11,8,8*%
%TO.N,GPIO_PE9*%
X56770000Y-83975900D03*
%TO.P,J11,9,9*%
%TO.N,GPIO_PE8*%
X54230000Y-86515900D03*
%TO.P,J11,10,10*%
%TO.N,GPIO_PE7*%
X54230000Y-83975900D03*
%TO.P,J11,11,11*%
%TO.N,GPIO_PB2*%
X51690000Y-86515900D03*
%TO.P,J11,12,12*%
%TO.N,GPIO_PB1*%
X51690000Y-83975900D03*
%TO.P,J11,13,13*%
%TO.N,GPIO_PB0*%
X49150000Y-86515900D03*
%TO.P,J11,14,14*%
%TO.N,GPIO_PA6*%
X49150000Y-83975900D03*
%TO.P,J11,15,15*%
%TO.N,GPIO_PA5*%
X46610000Y-86515900D03*
%TO.P,J11,16,16*%
%TO.N,GPIO_PA3*%
X46610000Y-83975900D03*
%TD*%
D18*
%TO.P,R6,1*%
%TO.N,Net-(U2-OUT)*%
X93750000Y-95825000D03*
%TO.P,R6,2*%
%TO.N,Net-(D2-A)*%
X93750000Y-94175000D03*
%TD*%
D14*
%TO.P,C2,1*%
%TO.N,Net-(U1-OUT)*%
X82500000Y-99775900D03*
%TO.P,C2,2*%
%TO.N,Net-(U1-BYP)*%
X82500000Y-98225900D03*
%TD*%
%TO.P,C46,1*%
%TO.N,GND*%
X29000000Y-73025000D03*
%TO.P,C46,2*%
%TO.N,Net-(U9-VDDCR)*%
X29000000Y-71475000D03*
%TD*%
D20*
%TO.P,R21,1*%
%TO.N,+3V3*%
X62675000Y-75125000D03*
%TO.P,R21,2*%
%TO.N,VREF+*%
X64325000Y-75125000D03*
%TD*%
D11*
%TO.P,C1,1*%
%TO.N,+5V*%
X83225000Y-103500900D03*
%TO.P,C1,2*%
%TO.N,GND*%
X84775000Y-103500900D03*
%TD*%
D17*
%TO.P,C47,1*%
%TO.N,+3V3*%
X32000000Y-71475000D03*
%TO.P,C47,2*%
%TO.N,GND*%
X32000000Y-73025000D03*
%TD*%
D25*
%TO.P,X1,1,1*%
%TO.N,Net-(U8-PH0)*%
X58750000Y-70820800D03*
%TO.P,X1,2,2*%
%TO.N,Net-(U8-PH1)*%
X58750000Y-74179200D03*
%TD*%
D18*
%TO.P,R29,1*%
%TO.N,Net-(J6-TRD2+)*%
X30500000Y-78575000D03*
%TO.P,R29,2*%
%TO.N,+3V3*%
X30500000Y-76925000D03*
%TD*%
D11*
%TO.P,C26,1*%
%TO.N,GND*%
X84375000Y-58200000D03*
%TO.P,C26,2*%
%TO.N,+5V*%
X85925000Y-58200000D03*
%TD*%
D14*
%TO.P,C5,1*%
%TO.N,Net-(U2-OUT)*%
X90000000Y-99775000D03*
%TO.P,C5,2*%
%TO.N,Net-(U2-BYP)*%
X90000000Y-98225000D03*
%TD*%
D24*
%TO.P,R14,1*%
%TO.N,+2V5*%
X82075000Y-48500000D03*
%TO.P,R14,2*%
%TO.N,Net-(C13-Pad2)*%
X80425000Y-48500000D03*
%TD*%
D17*
%TO.P,C43,1*%
%TO.N,Net-(U8-VCAP_1)*%
X79250000Y-77475000D03*
%TO.P,C43,2*%
%TO.N,GND*%
X79250000Y-79025000D03*
%TD*%
D13*
%TO.P,C25,1*%
%TO.N,Net-(U7-VREF1)*%
X34925000Y-54700000D03*
%TO.P,C25,2*%
%TO.N,GND*%
X33375000Y-54700000D03*
%TD*%
D24*
%TO.P,R18,1*%
%TO.N,+2V5*%
X31075000Y-48500000D03*
%TO.P,R18,2*%
%TO.N,Net-(C19-Pad2)*%
X29425000Y-48500000D03*
%TD*%
D28*
%TO.P,C12,1*%
%TO.N,Net-(J2-TIP)*%
X107250000Y-48275000D03*
%TO.P,C12,2*%
%TO.N,Net-(C12-Pad2)*%
X107250000Y-51225000D03*
%TD*%
%TO.P,C13,1*%
%TO.N,Net-(J3-TIP)*%
X78250000Y-48275000D03*
%TO.P,C13,2*%
%TO.N,Net-(C13-Pad2)*%
X78250000Y-51225000D03*
%TD*%
D21*
%TO.P,J15,1,1*%
%TO.N,+2V5*%
X100665900Y-66935000D03*
%TO.P,J15,2,2*%
X98125900Y-66935000D03*
%TO.P,J15,3,3*%
X100665900Y-69475000D03*
%TO.P,J15,4,4*%
X98125900Y-69475000D03*
%TO.P,J15,5,5*%
X100665900Y-72015000D03*
%TO.P,J15,6,6*%
X98125900Y-72015000D03*
%TO.P,J15,7,7*%
X100665900Y-74555000D03*
%TO.P,J15,8,8*%
X98125900Y-74555000D03*
%TO.P,J15,9,9*%
X100665900Y-77095000D03*
%TO.P,J15,10,10*%
X98125900Y-77095000D03*
%TO.P,J15,11,11*%
X100665900Y-79635000D03*
%TO.P,J15,12,12*%
X98125900Y-79635000D03*
%TO.P,J15,13,13*%
X100665900Y-82175000D03*
%TO.P,J15,14,14*%
X98125900Y-82175000D03*
%TO.P,J15,15,15*%
X100665900Y-84715000D03*
%TO.P,J15,16,16*%
X98125900Y-84715000D03*
%TD*%
D29*
%TO.P,U5,1,VINL*%
%TO.N,AN1_L*%
X88399999Y-54275000D03*
%TO.P,U5,2,VINR*%
%TO.N,AN1_R*%
X88399999Y-54925001D03*
%TO.P,U5,3,VREF1*%
%TO.N,Net-(U5-VREF1)*%
X88399999Y-55574999D03*
%TO.P,U5,4,VREF2*%
%TO.N,Net-(U5-VREF2)*%
X88399999Y-56225001D03*
%TO.P,U5,5,VCC*%
%TO.N,+5V*%
X88399999Y-56874999D03*
%TO.P,U5,6,AGND*%
%TO.N,GND*%
X88399999Y-57525001D03*
%TO.P,U5,7,PDWN_N*%
%TO.N,ADC1_PDWN*%
X88399999Y-58174999D03*
%TO.P,U5,8,BYPAS*%
%TO.N,ADC1_BYPAS*%
X88399999Y-58825001D03*
%TO.P,U5,9,TEST*%
%TO.N,GND*%
X88399999Y-59474999D03*
%TO.P,U5,10,LRCK*%
%TO.N,ADC1_LRCK*%
X88399999Y-60125000D03*
%TO.P,U5,11,BCK*%
%TO.N,ADC1_BCK*%
X95400001Y-60125000D03*
%TO.P,U5,12,DOUT*%
%TO.N,ADC1_DOUT*%
X95400001Y-59474999D03*
%TO.P,U5,13,DGND*%
%TO.N,GND*%
X95400001Y-58825001D03*
%TO.P,U5,14,VDD*%
%TO.N,+3V3*%
X95400001Y-58174999D03*
%TO.P,U5,15,SCKI*%
%TO.N,ADC1_SCKI*%
X95400001Y-57525001D03*
%TO.P,U5,16,OSR*%
%TO.N,ADC1_OSR*%
X95400001Y-56874999D03*
%TO.P,U5,17,FMT0*%
%TO.N,ADC1_FMT0*%
X95400001Y-56225001D03*
%TO.P,U5,18,FMT1*%
%TO.N,ADC1_FMT1*%
X95400001Y-55574999D03*
%TO.P,U5,19,MODE0*%
%TO.N,ADC1_MODE0*%
X95400001Y-54925001D03*
%TO.P,U5,20,MODE1*%
%TO.N,ADC1_MODE1*%
X95400001Y-54275000D03*
%TD*%
%TO.P,U7,1,VINL*%
%TO.N,AN2_L*%
X37399999Y-54275000D03*
%TO.P,U7,2,VINR*%
%TO.N,AN2_R*%
X37399999Y-54925001D03*
%TO.P,U7,3,VREF1*%
%TO.N,Net-(U7-VREF1)*%
X37399999Y-55574999D03*
%TO.P,U7,4,VREF2*%
%TO.N,Net-(U7-VREF2)*%
X37399999Y-56225001D03*
%TO.P,U7,5,VCC*%
%TO.N,+5V*%
X37399999Y-56874999D03*
%TO.P,U7,6,AGND*%
%TO.N,GND*%
X37399999Y-57525001D03*
%TO.P,U7,7,PDWN_N*%
%TO.N,ADC2_PDWN*%
X37399999Y-58174999D03*
%TO.P,U7,8,BYPAS*%
%TO.N,ADC2_BYPAS*%
X37399999Y-58825001D03*
%TO.P,U7,9,TEST*%
%TO.N,GND*%
X37399999Y-59474999D03*
%TO.P,U7,10,LRCK*%
%TO.N,ADC2_LRCK*%
X37399999Y-60125000D03*
%TO.P,U7,11,BCK*%
%TO.N,ADC2_BCK*%
X44400001Y-60125000D03*
%TO.P,U7,12,DOUT*%
%TO.N,ADC2_DOUT*%
X44400001Y-59474999D03*
%TO.P,U7,13,DGND*%
%TO.N,GND*%
X44400001Y-58825001D03*
%TO.P,U7,14,VDD*%
%TO.N,+3V3*%
X44400001Y-58174999D03*
%TO.P,U7,15,SCKI*%
%TO.N,ADC2_SCKI*%
X44400001Y-57525001D03*
%TO.P,U7,16,OSR*%
%TO.N,ADC2_OSR*%
X44400001Y-56874999D03*
%TO.P,U7,17,FMT0*%
%TO.N,ADC2_FMT0*%
X44400001Y-56225001D03*
%TO.P,U7,18,FMT1*%
%TO.N,ADC2_FMT1*%
X44400001Y-55574999D03*
%TO.P,U7,19,MODE0*%
%TO.N,ADC2_MODE0*%
X44400001Y-54925001D03*
%TO.P,U7,20,MODE1*%
%TO.N,ADC2_MODE1*%
X44400001Y-54275000D03*
%TD*%
D17*
%TO.P,C41,1*%
%TO.N,Net-(U8-PH0)*%
X55750000Y-70225000D03*
%TO.P,C41,2*%
%TO.N,GND*%
X55750000Y-71775000D03*
%TD*%
D21*
%TO.P,J13,1,1*%
%TO.N,GPIO_PC11*%
X64390000Y-101774700D03*
%TO.P,J13,2,2*%
%TO.N,GPIO_PC8*%
X64390000Y-99234700D03*
%TO.P,J13,3,3*%
%TO.N,GPIO_PC9*%
X61850000Y-101774700D03*
%TO.P,J13,4,4*%
%TO.N,GPIO_PD15*%
X61850000Y-99234700D03*
%TO.P,J13,5,5*%
%TO.N,GPIO_PD13*%
X59310000Y-101774700D03*
%TO.P,J13,6,6*%
%TO.N,GPIO_PD14*%
X59310000Y-99234700D03*
%TO.P,J13,7,7*%
%TO.N,GPIO_PD11*%
X56770000Y-101774700D03*
%TO.P,J13,8,8*%
%TO.N,GPIO_PD12*%
X56770000Y-99234700D03*
%TO.P,J13,9,9*%
%TO.N,GPIO_PD9*%
X54230000Y-101774700D03*
%TO.P,J13,10,10*%
%TO.N,GPIO_PD10*%
X54230000Y-99234700D03*
%TO.P,J13,11,11*%
%TO.N,GPIO_PD4*%
X51690000Y-101774700D03*
%TO.P,J13,12,12*%
%TO.N,GPIO_PD8*%
X51690000Y-99234700D03*
%TO.P,J13,13,13*%
%TO.N,GPIO_PD0*%
X49150000Y-101774700D03*
%TO.P,J13,14,14*%
%TO.N,GPIO_PD3*%
X49150000Y-99234700D03*
%TO.P,J13,15,15*%
%TO.N,GPIO_PD1*%
X46610000Y-101774700D03*
%TO.P,J13,16,16*%
%TO.N,GPIO_PD2*%
X46610000Y-99234700D03*
%TD*%
D22*
%TO.P,R26,1*%
%TO.N,GND*%
X29750000Y-61600000D03*
%TO.P,R26,2*%
%TO.N,Net-(U9-RBIAS)*%
X29750000Y-63250000D03*
%TD*%
D14*
%TO.P,FB4,1*%
%TO.N,VBUS*%
X112750000Y-90775000D03*
%TO.P,FB4,2*%
%TO.N,+5V*%
X112750000Y-89225000D03*
%TD*%
D11*
%TO.P,C4,1*%
%TO.N,+5V*%
X90725000Y-103500000D03*
%TO.P,C4,2*%
%TO.N,GND*%
X92275000Y-103500000D03*
%TD*%
D18*
%TO.P,R1,1*%
%TO.N,Net-(U1-OUT)*%
X84500000Y-97575000D03*
%TO.P,R1,2*%
%TO.N,Net-(U1-FB)*%
X84500000Y-95925000D03*
%TD*%
%TO.P,R9,1*%
%TO.N,Net-(U3-OUT)*%
X101250000Y-95825000D03*
%TO.P,R9,2*%
%TO.N,Net-(D3-A)*%
X101250000Y-94175000D03*
%TD*%
D23*
%TO.P,J5,1,SLEEVE*%
%TO.N,GND*%
X24750000Y-25400000D03*
%TO.P,J5,2,TIP*%
%TO.N,Net-(J5-TIP)*%
X24750000Y-38000000D03*
%TO.P,J5,3,RING*%
%TO.N,unconnected-(J5-RING-Pad3)*%
X24750000Y-31700000D03*
%TO.P,J5,4,SLEEVE_SWITCH*%
%TO.N,unconnected-(J5-SLEEVE_SWITCH-Pad4)*%
X41050000Y-25400000D03*
%TO.P,J5,5,TIP_SWITCH*%
%TO.N,unconnected-(J5-TIP_SWITCH-Pad5)*%
X41050000Y-38000000D03*
%TO.P,J5,6,RING_SWITCH*%
%TO.N,unconnected-(J5-RING_SWITCH-Pad6)*%
X41050000Y-31700000D03*
%TD*%
D30*
%TO.P,U8,1,PE2*%
%TO.N,GPIO_PE2*%
X66075000Y-61500000D03*
%TO.P,U8,2,PE3*%
%TO.N,GPIO_PE3*%
X66075000Y-62000000D03*
%TO.P,U8,3,PE4*%
%TO.N,GPIO_PE4*%
X66075000Y-62500000D03*
%TO.P,U8,4,PE5*%
%TO.N,GPIO_PE5*%
X66075000Y-63000000D03*
%TO.P,U8,5,PE6*%
%TO.N,GPIO_PE6*%
X66075000Y-63500000D03*
%TO.P,U8,6,VBAT*%
%TO.N,+3V3*%
X66075000Y-64000000D03*
%TO.P,U8,7,PC13*%
%TO.N,PHY_TXD1*%
X66075000Y-64500000D03*
%TO.P,U8,8,PC14*%
%TO.N,GPIO_PC14*%
X66075000Y-65000000D03*
%TO.P,U8,9,PC15*%
%TO.N,GPIO_PC15*%
X66075000Y-65500000D03*
%TO.P,U8,10,VSS*%
%TO.N,GND*%
X66075000Y-66000000D03*
%TO.P,U8,11,VDD*%
%TO.N,+3V3*%
X66075000Y-66500000D03*
%TO.P,U8,12,PH0*%
%TO.N,Net-(U8-PH0)*%
X66075000Y-67000000D03*
%TO.P,U8,13,PH1*%
%TO.N,Net-(U8-PH1)*%
X66075000Y-67500000D03*
%TO.P,U8,14,NRST*%
%TO.N,Net-(U8-NRST)*%
X66075000Y-68000000D03*
%TO.P,U8,15,PC0*%
%TO.N,GPIO_PC0*%
X66075000Y-68500000D03*
%TO.P,U8,16,PC1*%
%TO.N,PHY_MDC*%
X66075000Y-69000000D03*
%TO.P,U8,17,PC2*%
%TO.N,GPIO_PC2*%
X66075000Y-69500000D03*
%TO.P,U8,18,PC3*%
%TO.N,GPIO_PC3*%
X66075000Y-70000000D03*
%TO.P,U8,19,VDD*%
%TO.N,+3V3*%
X66075000Y-70500000D03*
%TO.P,U8,20,VSSA*%
%TO.N,GND*%
X66075000Y-71000000D03*
%TO.P,U8,21,VREF+*%
%TO.N,VREF+*%
X66075000Y-71500000D03*
%TO.P,U8,22,VDDA*%
%TO.N,+3V3*%
X66075000Y-72000000D03*
%TO.P,U8,23,PA0*%
%TO.N,GPIO_PA0*%
X66075000Y-72500000D03*
%TO.P,U8,24,PA1*%
%TO.N,PHY_REFCLK*%
X66075000Y-73000000D03*
%TO.P,U8,25,PA2*%
%TO.N,PHY_MDIO*%
X66075000Y-73500000D03*
D31*
%TO.P,U8,26,PA3*%
%TO.N,GPIO_PA3*%
X67750000Y-75175000D03*
%TO.P,U8,27,VSS*%
%TO.N,GND*%
X68250000Y-75175000D03*
%TO.P,U8,28,VDD*%
%TO.N,+3V3*%
X68750000Y-75175000D03*
%TO.P,U8,29,PA4*%
%TO.N,ADC2_LRCK*%
X69250000Y-75175000D03*
%TO.P,U8,30,PA5*%
%TO.N,GPIO_PA5*%
X69750000Y-75175000D03*
%TO.P,U8,31,PA6*%
%TO.N,GPIO_PA6*%
X70250000Y-75175000D03*
%TO.P,U8,32,PA7*%
%TO.N,PHY_CRS_DV*%
X70750000Y-75175000D03*
%TO.P,U8,33,PC4*%
%TO.N,PHY_RXD0*%
X71250000Y-75175000D03*
%TO.P,U8,34,PC5*%
%TO.N,PHY_RXD1*%
X71750000Y-75175000D03*
%TO.P,U8,35,PB0*%
%TO.N,GPIO_PB0*%
X72250000Y-75175000D03*
%TO.P,U8,36,PB1*%
%TO.N,GPIO_PB1*%
X72750000Y-75175000D03*
%TO.P,U8,37,PB2*%
%TO.N,GPIO_PB2*%
X73250000Y-75175000D03*
%TO.P,U8,38,PE7*%
%TO.N,GPIO_PE7*%
X73750000Y-75175000D03*
%TO.P,U8,39,PE8*%
%TO.N,GPIO_PE8*%
X74250000Y-75175000D03*
%TO.P,U8,40,PE9*%
%TO.N,GPIO_PE9*%
X74750000Y-75175000D03*
%TO.P,U8,41,PE10*%
%TO.N,GPIO_PE10*%
X75250000Y-75175000D03*
%TO.P,U8,42,PE11*%
%TO.N,GPIO_PE11*%
X75750000Y-75175000D03*
%TO.P,U8,43,PE12*%
%TO.N,GPIO_PE12*%
X76250000Y-75175000D03*
%TO.P,U8,44,PE13*%
%TO.N,GPIO_PE13*%
X76750000Y-75175000D03*
%TO.P,U8,45,PE14*%
%TO.N,GPIO_PE14*%
X77250000Y-75175000D03*
%TO.P,U8,46,PE15*%
%TO.N,GPIO_PE15*%
X77750000Y-75175000D03*
%TO.P,U8,47,PB10*%
%TO.N,PHY_NRST*%
X78250000Y-75175000D03*
%TO.P,U8,48,PB11*%
%TO.N,PHY_TXEN*%
X78750000Y-75175000D03*
%TO.P,U8,49,VCAP_1*%
%TO.N,Net-(U8-VCAP_1)*%
X79250000Y-75175000D03*
%TO.P,U8,50,VDD*%
%TO.N,+3V3*%
X79750000Y-75175000D03*
D30*
%TO.P,U8,51,PB12*%
%TO.N,ADC1_LRCK*%
X81425000Y-73500000D03*
%TO.P,U8,52,PB13*%
%TO.N,ADC1_BCK*%
X81425000Y-73000000D03*
%TO.P,U8,53,PB14*%
%TO.N,GPIO_PB14*%
X81425000Y-72500000D03*
%TO.P,U8,54,PB15*%
%TO.N,ADC1_DOUT*%
X81425000Y-72000000D03*
%TO.P,U8,55,PD8*%
%TO.N,GPIO_PD8*%
X81425000Y-71500000D03*
%TO.P,U8,56,PD9*%
%TO.N,GPIO_PD9*%
X81425000Y-71000000D03*
%TO.P,U8,57,PD10*%
%TO.N,GPIO_PD10*%
X81425000Y-70500000D03*
%TO.P,U8,58,PD11*%
%TO.N,GPIO_PD11*%
X81425000Y-70000000D03*
%TO.P,U8,59,PD12*%
%TO.N,GPIO_PD12*%
X81425000Y-69500000D03*
%TO.P,U8,60,PD13*%
%TO.N,GPIO_PD13*%
X81425000Y-69000000D03*
%TO.P,U8,61,PD14*%
%TO.N,GPIO_PD14*%
X81425000Y-68500000D03*
%TO.P,U8,62,PD15*%
%TO.N,GPIO_PD15*%
X81425000Y-68000000D03*
%TO.P,U8,63,PC6*%
%TO.N,ADC1_SCKI*%
X81425000Y-67500000D03*
%TO.P,U8,64,PC7*%
%TO.N,ADC2_SCKI*%
X81425000Y-67000000D03*
%TO.P,U8,65,PC8*%
%TO.N,GPIO_PC8*%
X81425000Y-66500000D03*
%TO.P,U8,66,PC9*%
%TO.N,GPIO_PC9*%
X81425000Y-66000000D03*
%TO.P,U8,67,PA8*%
%TO.N,USART1_CK*%
X81425000Y-65500000D03*
%TO.P,U8,68,PA9*%
%TO.N,USART1_TX*%
X81425000Y-65000000D03*
%TO.P,U8,69,PA10*%
%TO.N,USART1_RX*%
X81425000Y-64500000D03*
%TO.P,U8,70,PA11*%
%TO.N,USART1_CTS*%
X81425000Y-64000000D03*
%TO.P,U8,71,PA12*%
%TO.N,USART1_RTS*%
X81425000Y-63500000D03*
%TO.P,U8,72,PA13*%
%TO.N,JTMS_SWDIO*%
X81425000Y-63000000D03*
%TO.P,U8,73,VCAP_2*%
%TO.N,Net-(U8-VCAP_2)*%
X81425000Y-62500000D03*
%TO.P,U8,74,VSS*%
%TO.N,GND*%
X81425000Y-62000000D03*
%TO.P,U8,75,VDD*%
%TO.N,+3V3*%
X81425000Y-61500000D03*
D31*
%TO.P,U8,76,PA14*%
%TO.N,JTCK_SWCLK*%
X79750000Y-59825000D03*
%TO.P,U8,77,PA15*%
%TO.N,JTDI*%
X79250000Y-59825000D03*
%TO.P,U8,78,PC10*%
%TO.N,ADC2_BCK*%
X78750000Y-59825000D03*
%TO.P,U8,79,PC11*%
%TO.N,GPIO_PC11*%
X78250000Y-59825000D03*
%TO.P,U8,80,PC12*%
%TO.N,PHY_TXD0*%
X77750000Y-59825000D03*
%TO.P,U8,81,PD0*%
%TO.N,GPIO_PD0*%
X77250000Y-59825000D03*
%TO.P,U8,82,PD1*%
%TO.N,GPIO_PD1*%
X76750000Y-59825000D03*
%TO.P,U8,83,PD2*%
%TO.N,GPIO_PD2*%
X76250000Y-59825000D03*
%TO.P,U8,84,PD3*%
%TO.N,GPIO_PD3*%
X75750000Y-59825000D03*
%TO.P,U8,85,PD4*%
%TO.N,GPIO_PD4*%
X75250000Y-59825000D03*
%TO.P,U8,86,PD5*%
%TO.N,GPIO_PD5*%
X74750000Y-59825000D03*
%TO.P,U8,87,PD6*%
%TO.N,GPIO_PD6*%
X74250000Y-59825000D03*
%TO.P,U8,88,PD7*%
%TO.N,GPIO_PD7*%
X73750000Y-59825000D03*
%TO.P,U8,89,PB3*%
%TO.N,JTDO_SWO*%
X73250000Y-59825000D03*
%TO.P,U8,90,PB4*%
%TO.N,JTRST*%
X72750000Y-59825000D03*
%TO.P,U8,91,PB5*%
%TO.N,ADC2_DOUT*%
X72250000Y-59825000D03*
%TO.P,U8,92,PB6*%
%TO.N,ADC1_PDWN*%
X71750000Y-59825000D03*
%TO.P,U8,93,PB7*%
%TO.N,ADC1_BYPAS*%
X71250000Y-59825000D03*
%TO.P,U8,94,BOOT0*%
%TO.N,Net-(U8-BOOT0)*%
X70750000Y-59825000D03*
%TO.P,U8,95,PB8*%
%TO.N,ADC2_PDWN*%
X70250000Y-59825000D03*
%TO.P,U8,96,PB9*%
%TO.N,ADC2_BYPAS*%
X69750000Y-59825000D03*
%TO.P,U8,97,PE0*%
%TO.N,GPIO_PE0*%
X69250000Y-59825000D03*
%TO.P,U8,98,PE1*%
%TO.N,GPIO_PE1*%
X68750000Y-59825000D03*
%TO.P,U8,99,VSS*%
%TO.N,GND*%
X68250000Y-59825000D03*
%TO.P,U8,100,VDD*%
%TO.N,+3V3*%
X67750000Y-59825000D03*
%TD*%
D11*
%TO.P,C7,1*%
%TO.N,+5V*%
X98225000Y-103500000D03*
%TO.P,C7,2*%
%TO.N,GND*%
X99775000Y-103500000D03*
%TD*%
D14*
%TO.P,C45,1*%
%TO.N,GND*%
X30500000Y-73025000D03*
%TO.P,C45,2*%
%TO.N,Net-(U9-VDDCR)*%
X30500000Y-71475000D03*
%TD*%
D21*
%TO.P,J16,1,1*%
%TO.N,+1V2*%
X108295300Y-66935000D03*
%TO.P,J16,2,2*%
X105755300Y-66935000D03*
%TO.P,J16,3,3*%
X108295300Y-69475000D03*
%TO.P,J16,4,4*%
X105755300Y-69475000D03*
%TO.P,J16,5,5*%
X108295300Y-72015000D03*
%TO.P,J16,6,6*%
X105755300Y-72015000D03*
%TO.P,J16,7,7*%
X108295300Y-74555000D03*
%TO.P,J16,8,8*%
X105755300Y-74555000D03*
%TO.P,J16,9,9*%
X108295300Y-77095000D03*
%TO.P,J16,10,10*%
X105755300Y-77095000D03*
%TO.P,J16,11,11*%
X108295300Y-79635000D03*
%TO.P,J16,12,12*%
X105755300Y-79635000D03*
%TO.P,J16,13,13*%
X108295300Y-82175000D03*
%TO.P,J16,14,14*%
X105755300Y-82175000D03*
%TO.P,J16,15,15*%
X108295300Y-84715000D03*
%TO.P,J16,16,16*%
X105755300Y-84715000D03*
%TD*%
D20*
%TO.P,R16,1*%
%TO.N,Net-(C13-Pad2)*%
X80425000Y-50250000D03*
%TO.P,R16,2*%
%TO.N,Net-(U4-+INB)*%
X82075000Y-50250000D03*
%TD*%
D14*
%TO.P,C48,1*%
%TO.N,+3V3*%
X32250000Y-63225000D03*
%TO.P,C48,2*%
%TO.N,GND*%
X32250000Y-61675000D03*
%TD*%
D13*
%TO.P,C27,1*%
%TO.N,Net-(U7-VREF2)*%
X34925000Y-56450000D03*
%TO.P,C27,2*%
%TO.N,GND*%
X33375000Y-56450000D03*
%TD*%
%TO.P,C11,1*%
%TO.N,+5V*%
X111025000Y-92500000D03*
%TO.P,C11,2*%
%TO.N,GND*%
X109475000Y-92500000D03*
%TD*%
D21*
%TO.P,J12,1,1*%
%TO.N,GPIO_PC3*%
X64390000Y-94145300D03*
%TO.P,J12,2,2*%
%TO.N,GPIO_PA0*%
X64390000Y-91605300D03*
%TO.P,J12,3,3*%
%TO.N,GPIO_PC0*%
X61850000Y-94145300D03*
%TO.P,J12,4,4*%
%TO.N,GPIO_PC2*%
X61850000Y-91605300D03*
%TO.P,J12,5,5*%
%TO.N,GPIO_PC14*%
X59310000Y-94145300D03*
%TO.P,J12,6,6*%
%TO.N,GPIO_PC15*%
X59310000Y-91605300D03*
%TO.P,J12,7,7*%
%TO.N,GPIO_PE5*%
X56770000Y-94145300D03*
%TO.P,J12,8,8*%
%TO.N,GPIO_PE6*%
X56770000Y-91605300D03*
%TO.P,J12,9,9*%
%TO.N,GPIO_PD6*%
X54230000Y-94145300D03*
%TO.P,J12,10,10*%
%TO.N,GPIO_PD5*%
X54230000Y-91605300D03*
%TO.P,J12,11,11*%
%TO.N,GPIO_PE0*%
X51690000Y-94145300D03*
%TO.P,J12,12,12*%
%TO.N,GPIO_PD7*%
X51690000Y-91605300D03*
%TO.P,J12,13,13*%
%TO.N,GPIO_PE4*%
X49150000Y-94145300D03*
%TO.P,J12,14,14*%
%TO.N,GPIO_PE1*%
X49150000Y-91605300D03*
%TO.P,J12,15,15*%
%TO.N,GPIO_PE2*%
X46610000Y-94145300D03*
%TO.P,J12,16,16*%
%TO.N,GPIO_PE3*%
X46610000Y-91605300D03*
%TD*%
D18*
%TO.P,R30,1*%
%TO.N,Net-(J6-TRD2-)*%
X32000000Y-78575000D03*
%TO.P,R30,2*%
%TO.N,+3V3*%
X32000000Y-76925000D03*
%TD*%
D14*
%TO.P,C36,1*%
%TO.N,GND*%
X61250000Y-78150000D03*
%TO.P,C36,2*%
%TO.N,+3V3*%
X61250000Y-76600000D03*
%TD*%
D23*
%TO.P,J3,1,SLEEVE*%
%TO.N,GND*%
X75750000Y-25400000D03*
%TO.P,J3,2,TIP*%
%TO.N,Net-(J3-TIP)*%
X75750000Y-38000000D03*
%TO.P,J3,3,RING*%
%TO.N,unconnected-(J3-RING-Pad3)*%
X75750000Y-31700000D03*
%TO.P,J3,4,SLEEVE_SWITCH*%
%TO.N,unconnected-(J3-SLEEVE_SWITCH-Pad4)*%
X92050000Y-25400000D03*
%TO.P,J3,5,TIP_SWITCH*%
%TO.N,unconnected-(J3-TIP_SWITCH-Pad5)*%
X92050000Y-38000000D03*
%TO.P,J3,6,RING_SWITCH*%
%TO.N,unconnected-(J3-RING_SWITCH-Pad6)*%
X92050000Y-31700000D03*
%TD*%
D19*
%TO.P,JP3,1,A*%
%TO.N,Net-(JP3-A)*%
X103000000Y-92070000D03*
%TO.P,JP3,2,B*%
%TO.N,+1V2*%
X103000000Y-91430000D03*
%TD*%
D26*
%TO.P,U4,1,OUTA*%
%TO.N,AN1_R*%
X91574933Y-48749999D03*
%TO.P,U4,2,-INA*%
%TO.N,AN1_L*%
X91574933Y-49250000D03*
%TO.P,U4,3,+INA*%
%TO.N,Net-(U4-+INA)*%
X91574933Y-49750000D03*
%TO.P,U4,4,V-*%
%TO.N,GND*%
X91574933Y-50250001D03*
%TO.P,U4,5,+INB*%
%TO.N,Net-(U4-+INB)*%
X94425067Y-50250001D03*
%TO.P,U4,6,-INB*%
%TO.N,AN1_R*%
X94425067Y-49750000D03*
%TO.P,U4,7,OUTB*%
%TO.N,AN1_L*%
X94425067Y-49250000D03*
%TO.P,U4,8,V+*%
%TO.N,+5V*%
X94425067Y-48749999D03*
D27*
%TO.P,U4,9,EPAD*%
%TO.N,GND*%
X93000000Y-49500000D03*
%TD*%
D32*
%TO.P,D4,1,K*%
%TO.N,GND*%
X107750000Y-92287500D03*
%TO.P,D4,2,A*%
%TO.N,Net-(D4-A)*%
X107750000Y-90712500D03*
%TD*%
D20*
%TO.P,R31,1*%
%TO.N,PHY_NRST*%
X34925000Y-67750000D03*
%TO.P,R31,2*%
%TO.N,+3V3*%
X36575000Y-67750000D03*
%TD*%
D14*
%TO.P,FB2,1*%
%TO.N,Net-(U2-OUT)*%
X95500000Y-95775000D03*
%TO.P,FB2,2*%
%TO.N,Net-(JP2-A)*%
X95500000Y-94225000D03*
%TD*%
D19*
%TO.P,JP1,1,A*%
%TO.N,Net-(JP1-A)*%
X88000000Y-92070000D03*
%TO.P,JP1,2,B*%
%TO.N,+3V3*%
X88000000Y-91430000D03*
%TD*%
D13*
%TO.P,C29,1*%
%TO.N,+3V3*%
X63775000Y-66500000D03*
%TO.P,C29,2*%
%TO.N,GND*%
X62225000Y-66500000D03*
%TD*%
D12*
%TO.P,C20,1*%
%TO.N,Net-(U4-+INA)*%
X101250000Y-51225000D03*
%TO.P,C20,2*%
%TO.N,+2V5*%
X101250000Y-48275000D03*
%TD*%
D18*
%TO.P,R5,1*%
%TO.N,Net-(U2-FB)*%
X92000000Y-94325000D03*
%TO.P,R5,2*%
%TO.N,GND*%
X92000000Y-92675000D03*
%TD*%
D33*
%TO.P,J6,1,TRD1+*%
%TO.N,Net-(J6-TRD1+)*%
X35622000Y-83350000D03*
%TO.P,J6,2,TRD1-*%
%TO.N,Net-(J6-TRD1-)*%
X36638000Y-82080000D03*
%TO.P,J6,3,TRD2+*%
%TO.N,Net-(J6-TRD2+)*%
X33590000Y-83350000D03*
%TO.P,J6,4,TRD2-*%
%TO.N,Net-(J6-TRD2-)*%
X34606000Y-82080000D03*
%TO.P,J6,5,TRD3+*%
%TO.N,unconnected-(J6-TRD3+-Pad5)*%
X31558000Y-83350000D03*
%TO.P,J6,6,TRD3-*%
%TO.N,unconnected-(J6-TRD3--Pad6)*%
X32574000Y-82080000D03*
%TO.P,J6,7,TRD4+*%
%TO.N,unconnected-(J6-TRD4+-Pad7)*%
X29526000Y-83350000D03*
%TO.P,J6,8,TRD4-*%
%TO.N,unconnected-(J6-TRD4--Pad8)*%
X30542000Y-82080000D03*
%TO.P,J6,9,VCC*%
%TO.N,+3V3*%
X27494000Y-83350000D03*
%TO.P,J6,10,GND*%
%TO.N,GND*%
X28510000Y-82080000D03*
D34*
%TO.P,J6,11,ANODE_YELLOW*%
%TO.N,Net-(J6-ANODE_YELLOW)*%
X38500000Y-98500000D03*
%TO.P,J6,12,CATHODE_YELLOW*%
%TO.N,GND*%
X38500000Y-96470000D03*
%TO.P,J6,13,ANODE_GREEN*%
%TO.N,Net-(J6-ANODE_GREEN)*%
X25620000Y-97490000D03*
%TO.P,J6,14,CATHODE_GREEN*%
%TO.N,GND*%
X25620000Y-95460000D03*
D35*
%TO.P,J6,MH3,MH3*%
X40110000Y-86090000D03*
%TO.P,J6,MH4,MH4*%
X24010000Y-86090000D03*
D36*
%TO.P,J6,MH5,MH5*%
X40110000Y-89590000D03*
%TO.P,J6,MH6,MH6*%
X24010000Y-89590000D03*
%TO.P,J6,MH7,MH7*%
X40110000Y-93590000D03*
%TO.P,J6,MH8,MH8*%
X24010000Y-93590000D03*
D37*
%TO.P,J6,MH9,MH9*%
X40110000Y-97490000D03*
%TO.P,J6,MH10,MH10*%
X24010000Y-96470000D03*
%TD*%
D11*
%TO.P,C44,1*%
%TO.N,Net-(U8-VCAP_2)*%
X83725000Y-62500000D03*
%TO.P,C44,2*%
%TO.N,GND*%
X85275000Y-62500000D03*
%TD*%
D38*
%TO.P,U9,1,VDD2A*%
%TO.N,+3V3*%
X28995800Y-66250000D03*
%TO.P,U9,2,LED2/\u002ANINTSEL*%
%TO.N,Net-(U9-LED2{slash}\u002ANINTSEL)*%
X28995800Y-66749999D03*
%TO.P,U9,3,LED1/\u002AREGOFF*%
%TO.N,Net-(U9-LED1{slash}\u002AREGOFF)*%
X28995800Y-67250000D03*
%TO.P,U9,4,XTAL2*%
%TO.N,Net-(U9-XTAL2)*%
X28995800Y-67750000D03*
%TO.P,U9,5,XTAL1/CLKIN*%
%TO.N,Net-(U9-XTAL1{slash}CLKIN)*%
X28995800Y-68250001D03*
%TO.P,U9,6,VDDCR*%
%TO.N,Net-(U9-VDDCR)*%
X28995800Y-68750000D03*
D39*
%TO.P,U9,7,RXD1/\u002AMODE1*%
%TO.N,PHY_RXD1*%
X29750000Y-69504200D03*
%TO.P,U9,8,RXD0/\u002AMODE0*%
%TO.N,PHY_RXD0*%
X30249999Y-69504200D03*
%TO.P,U9,9,VDDIO*%
%TO.N,+3V3*%
X30750000Y-69504200D03*
%TO.P,U9,10,RXER/\u002APHYAD0*%
%TO.N,unconnected-(U9-RXER{slash}\u002APHYAD0-Pad10)*%
X31250000Y-69504200D03*
%TO.P,U9,11,CRS_DV/\u002AMODE2*%
%TO.N,PHY_CRS_DV*%
X31750001Y-69504200D03*
%TO.P,U9,12,MDIO*%
%TO.N,PHY_MDIO*%
X32250000Y-69504200D03*
D38*
%TO.P,U9,13,MDC*%
%TO.N,PHY_MDC*%
X33004200Y-68750000D03*
%TO.P,U9,14,NINT/REFCLKO*%
%TO.N,PHY_REFCLK*%
X33004200Y-68250001D03*
%TO.P,U9,15,NRST*%
%TO.N,PHY_NRST*%
X33004200Y-67750000D03*
%TO.P,U9,16,TXEN*%
%TO.N,PHY_TXEN*%
X33004200Y-67250000D03*
%TO.P,U9,17,TXD0*%
%TO.N,PHY_TXD0*%
X33004200Y-66749999D03*
%TO.P,U9,18,TXD1*%
%TO.N,PHY_TXD1*%
X33004200Y-66250000D03*
D39*
%TO.P,U9,19,VDD1A*%
%TO.N,+3V3*%
X32250000Y-65495800D03*
%TO.P,U9,20,TXN*%
%TO.N,Net-(J6-TRD1-)*%
X31750001Y-65495800D03*
%TO.P,U9,21,TXP*%
%TO.N,Net-(J6-TRD1+)*%
X31250000Y-65495800D03*
%TO.P,U9,22,RXN*%
%TO.N,Net-(J6-TRD2-)*%
X30750000Y-65495800D03*
%TO.P,U9,23,RXP*%
%TO.N,Net-(J6-TRD2+)*%
X30249999Y-65495800D03*
%TO.P,U9,24,RBIAS*%
%TO.N,Net-(U9-RBIAS)*%
X29750000Y-65495800D03*
D40*
%TO.P,U9,25,EPAD*%
%TO.N,GND*%
X31000000Y-67500000D03*
%TD*%
D28*
%TO.P,C18,1*%
%TO.N,Net-(J4-TIP)*%
X56250000Y-48275000D03*
%TO.P,C18,2*%
%TO.N,Net-(C18-Pad2)*%
X56250000Y-51225000D03*
%TD*%
D13*
%TO.P,C28,1*%
%TO.N,+3V3*%
X63775000Y-64000000D03*
%TO.P,C28,2*%
%TO.N,GND*%
X62225000Y-64000000D03*
%TD*%
D17*
%TO.P,C37,1*%
%TO.N,VREF+*%
X65750000Y-76600000D03*
%TO.P,C37,2*%
%TO.N,GND*%
X65750000Y-78150000D03*
%TD*%
D24*
%TO.P,R19,1*%
%TO.N,Net-(C18-Pad2)*%
X54075000Y-50250000D03*
%TO.P,R19,2*%
%TO.N,Net-(U6-+INA)*%
X52425000Y-50250000D03*
%TD*%
D18*
%TO.P,R2,1*%
%TO.N,Net-(U1-FB)*%
X84500000Y-94325000D03*
%TO.P,R2,2*%
%TO.N,GND*%
X84500000Y-92675000D03*
%TD*%
D17*
%TO.P,C39,1*%
%TO.N,+3V3*%
X62750000Y-76600000D03*
%TO.P,C39,2*%
%TO.N,GND*%
X62750000Y-78150000D03*
%TD*%
D18*
%TO.P,R27,1*%
%TO.N,Net-(J6-TRD1+)*%
X33500000Y-78575000D03*
%TO.P,R27,2*%
%TO.N,+3V3*%
X33500000Y-76925000D03*
%TD*%
D14*
%TO.P,C8,1*%
%TO.N,Net-(U3-OUT)*%
X97500000Y-99775000D03*
%TO.P,C8,2*%
%TO.N,Net-(U3-BYP)*%
X97500000Y-98225000D03*
%TD*%
D41*
%TO.P,J1,A1,GND_1*%
%TO.N,GND*%
X109250000Y-97050000D03*
%TO.P,J1,A2,SSTXP1*%
%TO.N,unconnected-(J1-SSTXP1-PadA2)*%
X109750000Y-97050000D03*
%TO.P,J1,A3,SSTXN1*%
%TO.N,unconnected-(J1-SSTXN1-PadA3)*%
X110250000Y-97050000D03*
%TO.P,J1,A4,V_BUS_1*%
%TO.N,VBUS*%
X110750000Y-97050000D03*
%TO.P,J1,A5,CC1*%
%TO.N,Net-(J1-CC1)*%
X111250000Y-97050000D03*
%TO.P,J1,A6,DP1*%
%TO.N,unconnected-(J1-DP1-PadA6)*%
X111750000Y-97050000D03*
%TO.P,J1,A7,DN1*%
%TO.N,unconnected-(J1-DN1-PadA7)*%
X112250000Y-97050000D03*
%TO.P,J1,A8,SBU1*%
%TO.N,unconnected-(J1-SBU1-PadA8)*%
X112750000Y-97050000D03*
%TO.P,J1,A9,V_BUS_2*%
%TO.N,VBUS*%
X113250000Y-97050000D03*
%TO.P,J1,A10,SSRXN2*%
%TO.N,unconnected-(J1-SSRXN2-PadA10)*%
X113750000Y-97050000D03*
%TO.P,J1,A11,SSRXP2*%
%TO.N,unconnected-(J1-SSRXP2-PadA11)*%
X114250000Y-97050000D03*
%TO.P,J1,A12,GND_2*%
%TO.N,GND*%
X114750000Y-97050000D03*
D42*
%TO.P,J1,B1,GND_3*%
X115050000Y-98200000D03*
%TO.P,J1,B2,SSTXP2*%
%TO.N,unconnected-(J1-SSTXP2-PadB2)*%
X114400000Y-98900000D03*
%TO.P,J1,B3,SSTXN2*%
%TO.N,unconnected-(J1-SSTXN2-PadB3)*%
X113600000Y-98900000D03*
%TO.P,J1,B4,VBUS_1*%
%TO.N,VBUS*%
X113200000Y-98200000D03*
%TO.P,J1,B5,CC2*%
%TO.N,Net-(J1-CC2)*%
X112800000Y-98900000D03*
%TO.P,J1,B6,DP2*%
%TO.N,unconnected-(J1-DP2-PadB6)*%
X112400000Y-98200000D03*
%TO.P,J1,B7,DN2*%
%TO.N,unconnected-(J1-DN2-PadB7)*%
X111600000Y-98200000D03*
%TO.P,J1,B8,SBU2*%
%TO.N,unconnected-(J1-SBU2-PadB8)*%
X111200000Y-98900000D03*
%TO.P,J1,B9,VBUS_2*%
%TO.N,VBUS*%
X110800000Y-98200000D03*
%TO.P,J1,B10,SSRXN1*%
%TO.N,unconnected-(J1-SSRXN1-PadB10)*%
X110400000Y-98900000D03*
%TO.P,J1,B11,SSRXP1*%
%TO.N,unconnected-(J1-SSRXP1-PadB11)*%
X109600000Y-98900000D03*
%TO.P,J1,B12,GND_4*%
%TO.N,GND*%
X108950000Y-98200000D03*
D43*
%TO.P,J1,S1,GND_5*%
X107500000Y-97400000D03*
D44*
%TO.P,J1,S2,GND_6*%
X107500000Y-103000000D03*
%TO.P,J1,S3,GND_7*%
X116500000Y-103000000D03*
D43*
%TO.P,J1,S4,GND_8*%
X116500000Y-97400000D03*
%TD*%
D23*
%TO.P,J2,1,SLEEVE*%
%TO.N,GND*%
X98850000Y-25400000D03*
%TO.P,J2,2,TIP*%
%TO.N,Net-(J2-TIP)*%
X98850000Y-38000000D03*
%TO.P,J2,3,RING*%
%TO.N,unconnected-(J2-RING-Pad3)*%
X98850000Y-31700000D03*
%TO.P,J2,4,SLEEVE_SWITCH*%
%TO.N,unconnected-(J2-SLEEVE_SWITCH-Pad4)*%
X115150000Y-25400000D03*
%TO.P,J2,5,TIP_SWITCH*%
%TO.N,unconnected-(J2-TIP_SWITCH-Pad5)*%
X115150000Y-38000000D03*
%TO.P,J2,6,RING_SWITCH*%
%TO.N,unconnected-(J2-RING_SWITCH-Pad6)*%
X115150000Y-31700000D03*
%TD*%
D18*
%TO.P,R28,1*%
%TO.N,Net-(J6-TRD1-)*%
X35000000Y-78575000D03*
%TO.P,R28,2*%
%TO.N,+3V3*%
X35000000Y-76925000D03*
%TD*%
D45*
%TO.N,GND*%
X30990000Y-61630000D03*
X89990000Y-59480000D03*
X54310000Y-71760000D03*
X82120000Y-60220000D03*
X83100000Y-56460000D03*
X115020000Y-91390000D03*
X93000000Y-49500000D03*
X30250000Y-66750000D03*
X31750000Y-66750000D03*
X109430000Y-95700000D03*
X99210000Y-59720000D03*
X84750000Y-104750000D03*
X90000000Y-50625000D03*
X87770000Y-98710000D03*
X69100000Y-73600000D03*
X39000000Y-50650000D03*
X67600000Y-66700000D03*
X21550000Y-67280000D03*
X95280000Y-98670000D03*
X85000000Y-100500000D03*
X99750000Y-104750000D03*
X69080000Y-63760000D03*
X61600000Y-73240000D03*
X60000000Y-78150000D03*
X99490000Y-91000000D03*
X39040000Y-59470000D03*
X69250000Y-54780000D03*
X89980000Y-57520000D03*
X91990000Y-91040000D03*
X92250000Y-104750000D03*
X102780000Y-98690000D03*
X84500000Y-90990000D03*
X42000000Y-49500000D03*
X107750000Y-93450000D03*
X30490000Y-74330000D03*
X39030000Y-57530000D03*
X79250000Y-80190000D03*
X30250000Y-68250000D03*
X115070000Y-95830000D03*
X100000000Y-100500000D03*
X92500000Y-100500000D03*
X61000000Y-64600000D03*
X31990000Y-56450000D03*
X48220000Y-59720000D03*
X31750000Y-68250000D03*
X67550000Y-70970000D03*
%TO.N,+5V*%
X39580000Y-56880000D03*
X44500000Y-48050000D03*
X100800000Y-102500000D03*
X83250000Y-104750000D03*
X98250000Y-104750000D03*
X90750000Y-104750000D03*
X95500000Y-48099997D03*
X85650000Y-102500000D03*
X105580000Y-58970000D03*
X90190000Y-56290000D03*
X93250000Y-102500000D03*
X111365000Y-89495000D03*
%TO.N,VBUS*%
X112260000Y-95510000D03*
X112250000Y-93370000D03*
%TO.N,+3V3*%
X48250000Y-58170000D03*
X63780000Y-73420000D03*
X60000000Y-76600000D03*
X66810000Y-58280000D03*
X30510000Y-75490000D03*
X59250000Y-64710000D03*
X82130000Y-77475000D03*
X37800000Y-67750000D03*
X88000000Y-90000000D03*
X28620000Y-64360000D03*
X62960000Y-67780000D03*
X93670000Y-58170000D03*
X33760000Y-64390000D03*
X69010000Y-76850000D03*
X63780000Y-62710000D03*
X35000000Y-75540000D03*
X82760000Y-61050000D03*
X33210000Y-70950000D03*
%TO.N,+2V5*%
X48480000Y-48840000D03*
X95500000Y-90000000D03*
X34990000Y-48270000D03*
X85920000Y-48280000D03*
X99500000Y-48960000D03*
%TO.N,Net-(U4-+INA)*%
X89993640Y-49825023D03*
X99500000Y-51250000D03*
%TO.N,Net-(U6-+INA)*%
X39000000Y-49849997D03*
X48500000Y-51250000D03*
%TO.N,Net-(U8-PH0)*%
X64575000Y-67375000D03*
X60963235Y-69661765D03*
%TO.N,Net-(U8-PH1)*%
X60975000Y-70500000D03*
X67450000Y-67500000D03*
%TO.N,Net-(J1-CC2)*%
X113750000Y-95750000D03*
%TO.N,Net-(J6-TRD2+)*%
X30350000Y-64400000D03*
%TO.N,Net-(J6-TRD1+)*%
X31667807Y-64367807D03*
%TO.N,Net-(J6-TRD2-)*%
X31000000Y-63850000D03*
%TO.N,Net-(J6-TRD1-)*%
X32625000Y-64375000D03*
%TO.N,USART1_CTS*%
X74200000Y-67000000D03*
%TO.N,USART1_RTS*%
X74200000Y-66100000D03*
%TO.N,USART1_CK*%
X74200000Y-69700000D03*
%TO.N,USART1_TX*%
X74200000Y-68800000D03*
%TO.N,USART1_RX*%
X74200000Y-67900000D03*
%TO.N,JTRST*%
X74000000Y-62900000D03*
%TO.N,JTCK_SWCLK*%
X78598924Y-61920629D03*
%TO.N,JTMS_SWDIO*%
X78600410Y-62720630D03*
%TO.N,JTDI*%
X78601667Y-61120632D03*
%TO.N,JTDO_SWO*%
X74000000Y-62000000D03*
%TO.N,+1V2*%
X103000000Y-90000000D03*
%TO.N,Net-(U1-FB)*%
X85256967Y-98595590D03*
X83100000Y-95925000D03*
%TO.N,Net-(U2-FB)*%
X90575000Y-95925000D03*
X92760000Y-98530000D03*
%TO.N,Net-(U3-FB)*%
X98160000Y-95920000D03*
X100254272Y-98524868D03*
%TO.N,Net-(U9-LED1{slash}\u002AREGOFF)*%
X29000000Y-75475000D03*
X27575000Y-65750000D03*
%TO.N,Net-(U9-LED2{slash}\u002ANINTSEL)*%
X28175000Y-65025000D03*
X38000000Y-75457422D03*
%TO.N,PHY_NRST*%
X77800000Y-73580000D03*
X33954265Y-67855735D03*
%TO.N,AN1_L*%
X88400000Y-53400000D03*
X90002488Y-49025069D03*
X95500000Y-48900000D03*
%TO.N,AN1_R*%
X87000000Y-54925000D03*
X89999304Y-48225073D03*
X95500000Y-49750000D03*
%TO.N,ADC1_PDWN*%
X72725003Y-57650000D03*
X86950000Y-58175000D03*
%TO.N,ADC1_BYPAS*%
X71925000Y-57650000D03*
X80550000Y-57975000D03*
%TO.N,ADC1_LRCK*%
X86200000Y-64950000D03*
X86201000Y-67857815D03*
%TO.N,AN2_R*%
X35986765Y-54913235D03*
X44500000Y-49750000D03*
X39000000Y-48249991D03*
%TO.N,AN2_L*%
X44500000Y-48850000D03*
X39000000Y-49049994D03*
X37400000Y-53450000D03*
%TO.N,ADC2_LRCK*%
X69251000Y-72640000D03*
X57399000Y-64701000D03*
%TO.N,ADC2_BYPAS*%
X69760000Y-58480000D03*
X56400000Y-63326000D03*
%TO.N,ADC2_PDWN*%
X70785706Y-62726000D03*
X59425000Y-62726000D03*
%TO.N,ADC2_DOUT*%
X60575000Y-61526000D03*
X71275000Y-61525000D03*
%TO.N,ADC2_SCKI*%
X60008441Y-62126000D03*
X79750000Y-67000000D03*
%TO.N,PHY_RXD1*%
X71415339Y-77305453D03*
X29225000Y-70375000D03*
%TO.N,PHY_RXD0*%
X70850000Y-76700000D03*
X30250000Y-70375000D03*
%TO.N,PHY_TXD0*%
X77750000Y-57374000D03*
X58000000Y-66425000D03*
%TO.N,PHY_TXD1*%
X64575000Y-64950000D03*
X58000000Y-65325000D03*
%TO.N,PHY_TXEN*%
X58000000Y-67599997D03*
X78750000Y-73550000D03*
%TO.N,PHY_CRS_DV*%
X70750000Y-73675000D03*
X54288235Y-70536765D03*
%TO.N,PHY_MDIO*%
X64600000Y-73800003D03*
X54325000Y-69725000D03*
%TO.N,PHY_REFCLK*%
X64600000Y-73000000D03*
X58000000Y-68400000D03*
%TO.N,GPIO_PB14*%
X79520000Y-73180000D03*
%TO.N,GPIO_PA0*%
X67440000Y-72890000D03*
%TO.N,GPIO_PC3*%
X67550000Y-70050000D03*
%TO.N,GPIO_PC2*%
X67550000Y-69200000D03*
%TO.N,GPIO_PE2*%
X66070000Y-60010000D03*
%TO.N,GPIO_PE6*%
X67500000Y-63500000D03*
%TO.N,GPIO_PE5*%
X64748000Y-63327000D03*
%TO.N,GPIO_PE4*%
X68290000Y-63326000D03*
%TO.N,GPIO_PC15*%
X67606739Y-65849385D03*
%TO.N,GPIO_PC0*%
X67525000Y-68375000D03*
%TO.N,GPIO_PE3*%
X64680000Y-62000000D03*
%TO.N,GPIO_PC14*%
X67600000Y-65000000D03*
%TO.N,GPIO_PE0*%
X70791796Y-63525979D03*
%TO.N,GPIO_PE1*%
X69919653Y-64669653D03*
%TO.N,GPIO_PD7*%
X73470735Y-58400735D03*
%TO.N,GPIO_PD6*%
X74420000Y-58470000D03*
%TO.N,GPIO_PD5*%
X74750000Y-61240000D03*
%TO.N,GPIO_PD4*%
X75390000Y-61950000D03*
%TO.N,GPIO_PD3*%
X75994553Y-61426054D03*
%TO.N,GPIO_PD2*%
X75366447Y-58523318D03*
%TO.N,GPIO_PD1*%
X76230000Y-58000000D03*
%TO.N,GPIO_PD0*%
X76880000Y-57400000D03*
%TO.N,GPIO_PD9*%
X78979523Y-71784881D03*
%TO.N,GPIO_PD8*%
X78985384Y-72584862D03*
%TO.N,GPIO_PD10*%
X78980164Y-70984879D03*
%TO.N,GPIO_PD11*%
X78961147Y-70155366D03*
%TO.N,GPIO_PD13*%
X78980296Y-68555541D03*
%TO.N,GPIO_PD12*%
X78978030Y-69355541D03*
%TO.N,GPIO_PD14*%
X79760000Y-67870000D03*
%TO.N,GPIO_PD15*%
X82950000Y-68100000D03*
%TO.N,GPIO_PC9*%
X82940000Y-65790000D03*
%TO.N,GPIO_PC8*%
X82950000Y-66690000D03*
%TO.N,GPIO_PC11*%
X78610000Y-58260000D03*
%TO.N,GPIO_PA3*%
X68460000Y-71820000D03*
%TD*%
D46*
%TO.N,+3V3*%
X66810000Y-58280000D02*
X66995000Y-58280000D01*
X66995000Y-58280000D02*
X67750000Y-57525000D01*
X60000000Y-76600000D02*
X61250000Y-76600000D01*
%TO.N,GND*%
X68250000Y-74341176D02*
X68250000Y-75175000D01*
X69050000Y-73650000D02*
X68941176Y-73650000D01*
X68941176Y-73650000D02*
X68250000Y-74341176D01*
X69100000Y-73600000D02*
X69050000Y-73650000D01*
%TO.N,ADC2_LRCK*%
X69700000Y-73891176D02*
X69700000Y-73089000D01*
X69250000Y-75175000D02*
X69250000Y-74341176D01*
X69250000Y-74341176D02*
X69700000Y-73891176D01*
%TO.N,GPIO_PA3*%
X67750000Y-73997100D02*
X67750000Y-75175000D01*
X68460000Y-73287100D02*
X67750000Y-73997100D01*
X68460000Y-71820000D02*
X68460000Y-73287100D01*
%TO.N,ADC2_LRCK*%
X69299000Y-75126000D02*
X69250000Y-75175000D01*
X69251000Y-72640000D02*
X69700000Y-73089000D01*
%TO.N,GND*%
X61560000Y-64000000D02*
X62225000Y-64000000D01*
X61050000Y-64550000D02*
X61050000Y-64510000D01*
X61000000Y-64600000D02*
X61050000Y-64550000D01*
X61050000Y-64510000D02*
X61560000Y-64000000D01*
X60000000Y-78150000D02*
X61250000Y-78150000D01*
X61600000Y-73240000D02*
X61850000Y-73240000D01*
X61250000Y-78150000D02*
X62750000Y-78150000D01*
X70700000Y-55975000D02*
X70750000Y-55925000D01*
X62225000Y-66500000D02*
X60775000Y-66500000D01*
X95280000Y-98670000D02*
X95280000Y-97505000D01*
X93300000Y-103500000D02*
X93900000Y-102900000D01*
X44400001Y-58825001D02*
X46000001Y-58825001D01*
X69250000Y-55975000D02*
X69250000Y-54780000D01*
X88405000Y-59480000D02*
X88399999Y-59474999D01*
X62225000Y-64000000D02*
X62225000Y-66500000D01*
X91574933Y-50250001D02*
X90849999Y-50250001D01*
X99750000Y-103475000D02*
X99775000Y-103500000D01*
X33375000Y-56450000D02*
X33375000Y-58200000D01*
X108750000Y-92500000D02*
X109475000Y-92500000D01*
X67200000Y-78125000D02*
X68250000Y-77075000D01*
X28250000Y-61650000D02*
X29700000Y-61650000D01*
X86222500Y-90990000D02*
X86250000Y-90962500D01*
X66075000Y-66000000D02*
X66908824Y-66000000D01*
X84174110Y-60224000D02*
X85275000Y-61324890D01*
X91990000Y-91040000D02*
X91990000Y-92665000D01*
X99490000Y-92665000D02*
X99500000Y-92675000D01*
X31990000Y-56450000D02*
X33375000Y-56450000D01*
X115025000Y-92500000D02*
X115025000Y-94200000D01*
X91990000Y-91040000D02*
X93672500Y-91040000D01*
X93900000Y-102150899D02*
X93250001Y-101500900D01*
X99490000Y-91000000D02*
X99490000Y-92665000D01*
X92275000Y-104725000D02*
X92250000Y-104750000D01*
X107750000Y-92287500D02*
X108537500Y-92287500D01*
X80324000Y-61732824D02*
X80324000Y-61267176D01*
X46905000Y-59720000D02*
X46900000Y-59725000D01*
X66075000Y-66000000D02*
X64500110Y-66000000D01*
X65750000Y-78150000D02*
X67175000Y-78150000D01*
X69250000Y-55975000D02*
X70700000Y-55975000D01*
X93900000Y-102900000D02*
X93900000Y-102150899D01*
X68176000Y-67267176D02*
X68176000Y-70364000D01*
X114750000Y-96200000D02*
X115075000Y-95875000D01*
X79250000Y-79025000D02*
X80750000Y-79025000D01*
X102780000Y-98690000D02*
X102780000Y-97505000D01*
X83100000Y-56460000D02*
X84365000Y-56460000D01*
X97000001Y-58825001D02*
X97900000Y-59725000D01*
X101212500Y-91000000D02*
X101250000Y-90962500D01*
X62225000Y-72000000D02*
X62225000Y-70500000D01*
X85749100Y-103500900D02*
X84775000Y-103500900D01*
X84775000Y-104725000D02*
X84750000Y-104750000D01*
X99210000Y-59720000D02*
X97905000Y-59720000D01*
X115025000Y-94200000D02*
X115075000Y-94250000D01*
X114750000Y-97050000D02*
X114750000Y-96200000D01*
X67175000Y-78150000D02*
X67200000Y-78125000D01*
X32205000Y-61630000D02*
X32250000Y-61675000D01*
X88405000Y-57520000D02*
X88399999Y-57525001D01*
X95400001Y-58825001D02*
X97000001Y-58825001D01*
X30490000Y-74330000D02*
X30490000Y-73035000D01*
X87770000Y-97505000D02*
X87775000Y-97500000D01*
X99775000Y-104725000D02*
X99750000Y-104750000D01*
X85275000Y-61324890D02*
X85275000Y-62500000D01*
X115020000Y-92495000D02*
X115025000Y-92500000D01*
X80591176Y-62000000D02*
X80324000Y-61732824D01*
X107750000Y-93450000D02*
X107750000Y-92287500D01*
X86300000Y-102950000D02*
X85749100Y-103500900D01*
X109250000Y-96340000D02*
X109250000Y-97050000D01*
X79250000Y-80190000D02*
X79250000Y-79025000D01*
X102780000Y-97505000D02*
X102775000Y-97500000D01*
X64500110Y-66000000D02*
X64224110Y-65724000D01*
X90500000Y-50600000D02*
X90025000Y-50600000D01*
X29700000Y-61975000D02*
X29750000Y-61925000D01*
X66908824Y-66000000D02*
X68176000Y-67267176D01*
X109475000Y-92500000D02*
X109475000Y-94200000D01*
X30960000Y-61600000D02*
X30990000Y-61630000D01*
X108950000Y-98200000D02*
X108950000Y-97350000D01*
X99775000Y-103500000D02*
X99775000Y-104725000D01*
X80324000Y-61267176D02*
X81367176Y-60224000D01*
X30500000Y-73025000D02*
X32000000Y-73025000D01*
X62225000Y-72865000D02*
X62225000Y-72000000D01*
X69080000Y-63760000D02*
X69080000Y-63004437D01*
X85275000Y-62500000D02*
X85275000Y-61000000D01*
X48220000Y-59720000D02*
X46905000Y-59720000D01*
X92275000Y-103500000D02*
X93300000Y-103500000D01*
X60775000Y-66500000D02*
X60750000Y-66475000D01*
X39030000Y-57530000D02*
X37404998Y-57530000D01*
X92275000Y-103500000D02*
X92275000Y-104725000D01*
X29750000Y-61600000D02*
X30960000Y-61600000D01*
X84500000Y-90990000D02*
X86222500Y-90990000D01*
X86300000Y-102050899D02*
X86300000Y-102950000D01*
X55735000Y-71760000D02*
X55750000Y-71775000D01*
X108950000Y-97350000D02*
X109250000Y-97050000D01*
X22750000Y-67275000D02*
X22750000Y-68725000D01*
X89980000Y-57520000D02*
X88405000Y-57520000D01*
X99750000Y-101500900D02*
X99750000Y-103475000D01*
X100900000Y-103500000D02*
X99775000Y-103500000D01*
X62750000Y-78150000D02*
X64250000Y-78150000D01*
X37404998Y-57530000D02*
X37399999Y-57525001D01*
X115075000Y-95875000D02*
X115075000Y-94250000D01*
X32250000Y-61675000D02*
X33750000Y-61675000D01*
X67750000Y-55975000D02*
X69250000Y-55975000D01*
X55750000Y-73225000D02*
X55750000Y-71775000D01*
X64250000Y-78150000D02*
X65750000Y-78150000D01*
X90025000Y-50600000D02*
X90000000Y-50625000D01*
X69080000Y-63004437D02*
X68250000Y-62174437D01*
X39450000Y-50650000D02*
X39000000Y-50650000D01*
X63001000Y-65724000D02*
X62225000Y-66500000D01*
X22745000Y-67280000D02*
X22750000Y-67275000D01*
X81425000Y-62000000D02*
X80591176Y-62000000D01*
X39040000Y-59470000D02*
X37404998Y-59470000D01*
X68250000Y-62174437D02*
X68250000Y-59825000D01*
X89990000Y-59480000D02*
X88405000Y-59480000D01*
X46000001Y-58825001D02*
X46900000Y-59725000D01*
X109475000Y-94200000D02*
X109425000Y-94250000D01*
X21550000Y-67280000D02*
X22745000Y-67280000D01*
X30490000Y-73035000D02*
X30500000Y-73025000D01*
X33375000Y-54700000D02*
X33375000Y-56450000D01*
X29000000Y-73025000D02*
X30500000Y-73025000D01*
X84375000Y-54700000D02*
X84375000Y-56450000D01*
X97905000Y-59720000D02*
X97900000Y-59725000D01*
X92250000Y-101500900D02*
X92250000Y-103475000D01*
X61850000Y-73240000D02*
X62225000Y-72865000D01*
X90849999Y-50250001D02*
X90500000Y-50600000D01*
X84365000Y-56460000D02*
X84375000Y-56450000D01*
X101500000Y-102900000D02*
X100900000Y-103500000D01*
X115050000Y-98200000D02*
X115050000Y-97350000D01*
X108537500Y-92287500D02*
X108750000Y-92500000D01*
X87770000Y-98710000D02*
X87770000Y-97505000D01*
X84375000Y-56450000D02*
X84375000Y-58200000D01*
X109420000Y-95710000D02*
X109420000Y-96170000D01*
X109420000Y-96170000D02*
X109250000Y-96340000D01*
X95280000Y-97505000D02*
X95275000Y-97500000D01*
X85750001Y-101500900D02*
X86300000Y-102050899D01*
X99490000Y-91000000D02*
X101212500Y-91000000D01*
X101500000Y-102250899D02*
X101500000Y-102900000D01*
X30990000Y-61630000D02*
X32205000Y-61630000D01*
X109425000Y-94250000D02*
X109425000Y-95705000D01*
X68176000Y-70364000D02*
X67540000Y-71000000D01*
X109425000Y-95705000D02*
X109420000Y-95710000D01*
X84500000Y-90990000D02*
X84500000Y-92675000D01*
X67540000Y-71000000D02*
X66075000Y-71000000D01*
X115050000Y-97350000D02*
X114750000Y-97050000D01*
X40574933Y-50250001D02*
X39849999Y-50250001D01*
X39849999Y-50250001D02*
X39450000Y-50650000D01*
X68250000Y-77075000D02*
X68250000Y-75175000D01*
X29700000Y-61650000D02*
X29750000Y-61600000D01*
X64224110Y-65724000D02*
X63001000Y-65724000D01*
X84750000Y-103475900D02*
X84775000Y-103500900D01*
X100750001Y-101500900D02*
X101500000Y-102250899D01*
X92250000Y-103475000D02*
X92275000Y-103500000D01*
X54310000Y-71760000D02*
X55735000Y-71760000D01*
X84750000Y-101500900D02*
X84750000Y-103475900D01*
X115020000Y-91390000D02*
X115020000Y-92495000D01*
X84775000Y-103500900D02*
X84775000Y-104725000D01*
X91990000Y-92665000D02*
X92000000Y-92675000D01*
X93672500Y-91040000D02*
X93750000Y-90962500D01*
X37404998Y-59470000D02*
X37399999Y-59474999D01*
X81367176Y-60224000D02*
X84174110Y-60224000D01*
%TO.N,+5V*%
X111075000Y-90750000D02*
X111075000Y-92450000D01*
X85250000Y-102100000D02*
X85250000Y-101500900D01*
X100250000Y-101500900D02*
X100250000Y-101950000D01*
X111365000Y-89495000D02*
X111635000Y-89225000D01*
X37399999Y-56874999D02*
X39574999Y-56874999D01*
X100250000Y-101950000D02*
X100800000Y-102500000D01*
X98225000Y-104725000D02*
X98250000Y-104750000D01*
X84249999Y-101500900D02*
X83225000Y-102525899D01*
X90190000Y-56290000D02*
X89605001Y-56874999D01*
X36250001Y-56874999D02*
X37399999Y-56874999D01*
X99249999Y-101550001D02*
X98200000Y-102600000D01*
X94425067Y-48749999D02*
X94425067Y-48624933D01*
X34925000Y-58200000D02*
X36250001Y-56874999D01*
X92750000Y-101500900D02*
X92750000Y-102000000D01*
X83225000Y-103500900D02*
X83225000Y-104725000D01*
X43425067Y-48524933D02*
X43900000Y-48050000D01*
X111075000Y-90750000D02*
X111075000Y-89785000D01*
X43900000Y-48050000D02*
X44500000Y-48050000D01*
X111075000Y-92450000D02*
X111025000Y-92500000D01*
X94950003Y-48099997D02*
X95500000Y-48099997D01*
X83225000Y-102525899D02*
X83225000Y-103500900D01*
X85650000Y-102500000D02*
X85250000Y-102100000D01*
X94425067Y-48624933D02*
X94950003Y-48099997D01*
X90725000Y-104725000D02*
X90750000Y-104750000D01*
X90725000Y-102525000D02*
X90725000Y-103500000D01*
X85925000Y-58200000D02*
X87250001Y-56874999D01*
X91749999Y-101500900D02*
X91749100Y-101500900D01*
X99249999Y-101500900D02*
X99249999Y-101550001D01*
X87250001Y-56874999D02*
X88399999Y-56874999D01*
X111635000Y-89225000D02*
X112750000Y-89225000D01*
X98225000Y-103500000D02*
X98225000Y-104725000D01*
X43425067Y-48749999D02*
X43425067Y-48524933D01*
X92750000Y-102000000D02*
X93250000Y-102500000D01*
X98200000Y-103475000D02*
X98225000Y-103500000D01*
X111075000Y-89785000D02*
X111365000Y-89495000D01*
X98200000Y-102600000D02*
X98200000Y-103475000D01*
X83225000Y-104725000D02*
X83250000Y-104750000D01*
X39574999Y-56874999D02*
X39580000Y-56880000D01*
X91749100Y-101500900D02*
X90725000Y-102525000D01*
X90725000Y-103500000D02*
X90725000Y-104725000D01*
X89605001Y-56874999D02*
X88399999Y-56874999D01*
%TO.N,Net-(U1-OUT)*%
X83424100Y-99775900D02*
X82500000Y-99775900D01*
X83700900Y-99499100D02*
X83424100Y-99775900D01*
X84249999Y-99499100D02*
X83700900Y-99499100D01*
X82500000Y-99775900D02*
X81975900Y-99775900D01*
X86225000Y-95850000D02*
X86250000Y-95825000D01*
X82100000Y-97200000D02*
X83300000Y-97200000D01*
X87950000Y-95825000D02*
X88000000Y-95775000D01*
X83300000Y-97200000D02*
X83675000Y-97575000D01*
X86225000Y-97500000D02*
X86225000Y-95850000D01*
X84500000Y-97575000D02*
X86150000Y-97575000D01*
X81975900Y-99775900D02*
X81500000Y-99300000D01*
X81500000Y-97800000D02*
X82100000Y-97200000D01*
X83675000Y-97575000D02*
X84500000Y-97575000D01*
X86150000Y-97575000D02*
X86225000Y-97500000D01*
X81500000Y-99300000D02*
X81500000Y-97800000D01*
X86250000Y-95825000D02*
X87950000Y-95825000D01*
%TO.N,Net-(U1-BYP)*%
X84750000Y-98916502D02*
X84433498Y-98600000D01*
X83700000Y-98600000D02*
X83325900Y-98225900D01*
X84750000Y-99499100D02*
X84750000Y-98916502D01*
X83325900Y-98225900D02*
X82500000Y-98225900D01*
X84433498Y-98600000D02*
X83700000Y-98600000D01*
%TO.N,Net-(U2-BYP)*%
X91200000Y-98600000D02*
X90825000Y-98225000D01*
X90825000Y-98225000D02*
X90000000Y-98225000D01*
X92250000Y-98916502D02*
X91933498Y-98600000D01*
X92250000Y-99499100D02*
X92250000Y-98916502D01*
X91933498Y-98600000D02*
X91200000Y-98600000D01*
%TO.N,Net-(U2-OUT)*%
X95450000Y-95825000D02*
X95500000Y-95775000D01*
X89000000Y-97800000D02*
X89600000Y-97200000D01*
X93650000Y-97575000D02*
X93725000Y-97500000D01*
X91200900Y-99499100D02*
X90925000Y-99775000D01*
X93750000Y-95825000D02*
X95450000Y-95825000D01*
X90800000Y-97200000D02*
X91175000Y-97575000D01*
X89600000Y-97200000D02*
X90800000Y-97200000D01*
X91175000Y-97575000D02*
X92000000Y-97575000D01*
X92000000Y-97575000D02*
X93650000Y-97575000D01*
X89475000Y-99775000D02*
X89000000Y-99300000D01*
X91749999Y-99499100D02*
X91200900Y-99499100D01*
X90925000Y-99775000D02*
X90000000Y-99775000D01*
X89000000Y-99300000D02*
X89000000Y-97800000D01*
X93725000Y-97500000D02*
X93725000Y-95850000D01*
X93725000Y-95850000D02*
X93750000Y-95825000D01*
X90000000Y-99775000D02*
X89475000Y-99775000D01*
%TO.N,Net-(U3-BYP)*%
X98325000Y-98225000D02*
X97500000Y-98225000D01*
X99500000Y-98600000D02*
X98700000Y-98600000D01*
X99750000Y-98850000D02*
X99500000Y-98600000D01*
X98700000Y-98600000D02*
X98325000Y-98225000D01*
X99750000Y-99499100D02*
X99750000Y-98850000D01*
%TO.N,Net-(U3-OUT)*%
X97500000Y-99775000D02*
X96975000Y-99775000D01*
X96975000Y-99775000D02*
X96500000Y-99300000D01*
X98300000Y-97200000D02*
X98675000Y-97575000D01*
X98425000Y-99775000D02*
X97500000Y-99775000D01*
X101250000Y-95825000D02*
X102950000Y-95825000D01*
X99500000Y-97575000D02*
X101150000Y-97575000D01*
X101225000Y-95850000D02*
X101250000Y-95825000D01*
X96500000Y-99300000D02*
X96500000Y-97800000D01*
X98700900Y-99499100D02*
X98425000Y-99775000D01*
X101225000Y-97500000D02*
X101225000Y-95850000D01*
X98675000Y-97575000D02*
X99500000Y-97575000D01*
X101150000Y-97575000D02*
X101225000Y-97500000D01*
X97100000Y-97200000D02*
X98300000Y-97200000D01*
X96500000Y-97800000D02*
X97100000Y-97200000D01*
X102950000Y-95825000D02*
X103000000Y-95775000D01*
X99249999Y-99499100D02*
X98700900Y-99499100D01*
%TO.N,VBUS*%
X112250000Y-93370000D02*
X112250000Y-95500000D01*
X110600000Y-93370000D02*
X112250000Y-93370000D01*
X113250000Y-97050000D02*
X113250000Y-98150000D01*
X112750000Y-90775000D02*
X112750000Y-91775000D01*
X113475000Y-92500000D02*
X113000000Y-92500000D01*
X110240000Y-95865000D02*
X110240000Y-93730000D01*
X110240000Y-93730000D02*
X110600000Y-93370000D01*
X112250000Y-95500000D02*
X113250000Y-96500000D01*
X112250000Y-93250000D02*
X112250000Y-93370000D01*
X110750000Y-98150000D02*
X110750000Y-97050000D01*
X110800000Y-98200000D02*
X110750000Y-98150000D01*
X110750000Y-96375000D02*
X110240000Y-95865000D01*
X113250000Y-98150000D02*
X113200000Y-98200000D01*
X113000000Y-92500000D02*
X112250000Y-93250000D01*
X112750000Y-91775000D02*
X113475000Y-92500000D01*
X113250000Y-96500000D02*
X113250000Y-97050000D01*
X110750000Y-97050000D02*
X110750000Y-96375000D01*
%TO.N,Net-(J2-TIP)*%
X98850000Y-38000000D02*
X101250000Y-38000000D01*
X107250000Y-44000000D02*
X107250000Y-48275000D01*
X101250000Y-38000000D02*
X107250000Y-44000000D01*
%TO.N,Net-(C12-Pad2)*%
X105075000Y-50325000D02*
X105975000Y-51225000D01*
X105975000Y-51225000D02*
X107250000Y-51225000D01*
X105075000Y-48500000D02*
X105075000Y-50250000D01*
X105075000Y-50250000D02*
X105075000Y-50325000D01*
%TO.N,Net-(J3-TIP)*%
X78250000Y-40500000D02*
X78250000Y-48275000D01*
X75750000Y-38000000D02*
X78250000Y-40500000D01*
%TO.N,Net-(C13-Pad2)*%
X78250000Y-51225000D02*
X79450000Y-51225000D01*
X80425000Y-50250000D02*
X80425000Y-48500000D01*
X79450000Y-51225000D02*
X80425000Y-50250000D01*
%TO.N,+3V3*%
X63775000Y-66500000D02*
X66075000Y-66500000D01*
X63775000Y-70500000D02*
X66075000Y-70500000D01*
X95395002Y-58170000D02*
X95400001Y-58174999D01*
X63560000Y-67170000D02*
X63775000Y-66955000D01*
X62675000Y-75125000D02*
X63775000Y-74025000D01*
X62960000Y-67780000D02*
X63560000Y-67180000D01*
X63560000Y-67180000D02*
X63560000Y-67170000D01*
X97900000Y-58175000D02*
X95400001Y-58174999D01*
X67750000Y-57525000D02*
X67750000Y-59825000D01*
X61250000Y-76600000D02*
X62750000Y-76600000D01*
X30750000Y-69504200D02*
X30750000Y-70000000D01*
X30500000Y-76925000D02*
X32000000Y-76925000D01*
X69010000Y-77865000D02*
X68750000Y-78125000D01*
X88000000Y-91430000D02*
X88000000Y-90000000D01*
X35000000Y-75540000D02*
X35000000Y-76925000D01*
X29000000Y-64750000D02*
X28995800Y-64754200D01*
X48250000Y-58170000D02*
X46905000Y-58170000D01*
X33750000Y-63225000D02*
X32250000Y-63225000D01*
X69250000Y-57525000D02*
X67750000Y-57525000D01*
X80750000Y-76175000D02*
X79750000Y-75175000D01*
X63775000Y-64000000D02*
X66075000Y-64000000D01*
X93670000Y-58170000D02*
X95395002Y-58170000D01*
X63780000Y-62710000D02*
X63780000Y-63995000D01*
X63775000Y-72000000D02*
X63775000Y-70500000D01*
X32629200Y-65495800D02*
X33750000Y-64375000D01*
X46905000Y-58170000D02*
X46900000Y-58175000D01*
X63775000Y-74025000D02*
X63775000Y-72000000D01*
X68750000Y-75175000D02*
X68750000Y-76590000D01*
X63775000Y-72000000D02*
X66075000Y-72000000D01*
X62675000Y-76525000D02*
X62750000Y-76600000D01*
X82310000Y-61500000D02*
X82760000Y-61050000D01*
X32525000Y-70950000D02*
X32000000Y-71475000D01*
X81425000Y-61500000D02*
X82310000Y-61500000D01*
X83675000Y-61050000D02*
X83725000Y-61000000D01*
X69010000Y-76850000D02*
X69010000Y-77865000D01*
X97905000Y-58170000D02*
X97900000Y-58175000D01*
X28250000Y-64000000D02*
X29000000Y-64750000D01*
X33500000Y-76925000D02*
X35000000Y-76925000D01*
X46900000Y-58175000D02*
X44400001Y-58174999D01*
X30510000Y-76915000D02*
X30500000Y-76925000D01*
X62675000Y-75125000D02*
X62675000Y-76525000D01*
X33210000Y-70950000D02*
X32525000Y-70950000D01*
X63775000Y-66955000D02*
X63775000Y-66500000D01*
X37800000Y-67750000D02*
X36575000Y-67750000D01*
X80750000Y-77475000D02*
X80750000Y-76175000D01*
X32000000Y-71250000D02*
X32000000Y-71475000D01*
X59250000Y-64710000D02*
X59250000Y-66425000D01*
X28250000Y-64000000D02*
X28250000Y-63200000D01*
X82130000Y-77475000D02*
X80750000Y-77475000D01*
X32250000Y-65495800D02*
X32629200Y-65495800D01*
X30510000Y-75490000D02*
X30510000Y-76915000D01*
X32000000Y-76925000D02*
X33500000Y-76925000D01*
X62675000Y-76650000D02*
X62750000Y-76725000D01*
X28995800Y-64754200D02*
X28995800Y-66250000D01*
X68750000Y-76590000D02*
X69010000Y-76850000D01*
X30750000Y-70000000D02*
X32000000Y-71250000D01*
X82760000Y-61050000D02*
X83675000Y-61050000D01*
X63780000Y-63995000D02*
X63775000Y-64000000D01*
X62675000Y-75250000D02*
X62675000Y-75175000D01*
X33750000Y-64375000D02*
X33750000Y-63225000D01*
%TO.N,Net-(U5-VREF1)*%
X85925000Y-54700000D02*
X86799999Y-55574999D01*
X86799999Y-55574999D02*
X88399999Y-55574999D01*
%TO.N,Net-(U5-VREF2)*%
X87024999Y-56225001D02*
X86800000Y-56450000D01*
X86800000Y-56450000D02*
X85925000Y-56450000D01*
X88399999Y-56225001D02*
X87024999Y-56225001D01*
%TO.N,Net-(C18-Pad2)*%
X54725000Y-51225000D02*
X56250000Y-51225000D01*
X54075000Y-50575000D02*
X54725000Y-51225000D01*
X54075000Y-50250000D02*
X54075000Y-50575000D01*
X54075000Y-48500000D02*
X54075000Y-50250000D01*
%TO.N,Net-(J4-TIP)*%
X56250000Y-43750000D02*
X56250000Y-48275000D01*
X47850000Y-38000000D02*
X50500000Y-38000000D01*
X50500000Y-38000000D02*
X56250000Y-43750000D01*
%TO.N,Net-(J5-TIP)*%
X24750000Y-38000000D02*
X27250000Y-40500000D01*
X27250000Y-40500000D02*
X27250000Y-48275000D01*
%TO.N,Net-(C19-Pad2)*%
X28450000Y-51225000D02*
X29425000Y-50250000D01*
X27250000Y-51225000D02*
X28450000Y-51225000D01*
X29425000Y-50250000D02*
X29425000Y-48500000D01*
%TO.N,+2V5*%
X50475000Y-48500000D02*
X50250000Y-48275000D01*
X103425000Y-48500000D02*
X101475000Y-48500000D01*
X82075000Y-48500000D02*
X84025000Y-48500000D01*
X31075000Y-48500000D02*
X33025000Y-48500000D01*
X84025000Y-48500000D02*
X84250000Y-48275000D01*
X33025000Y-48500000D02*
X33250000Y-48275000D01*
X101475000Y-48500000D02*
X101250000Y-48275000D01*
X101250000Y-48275000D02*
X100185000Y-48275000D01*
X52425000Y-48500000D02*
X50475000Y-48500000D01*
X33250000Y-48275000D02*
X34985000Y-48275000D01*
X85915000Y-48275000D02*
X85920000Y-48280000D01*
X84250000Y-48275000D02*
X85915000Y-48275000D01*
X50250000Y-48275000D02*
X49045000Y-48275000D01*
X95500000Y-91430000D02*
X95500000Y-90000000D01*
X100185000Y-48275000D02*
X99500000Y-48960000D01*
X34985000Y-48275000D02*
X34990000Y-48270000D01*
X49045000Y-48275000D02*
X48480000Y-48840000D01*
%TO.N,Net-(U4-+INA)*%
X90650000Y-49750000D02*
X90574977Y-49825023D01*
X91574933Y-49750000D02*
X90650000Y-49750000D01*
X102450000Y-51225000D02*
X103425000Y-50250000D01*
X101250000Y-51225000D02*
X102450000Y-51225000D01*
X99500000Y-51250000D02*
X101225000Y-51250000D01*
X101225000Y-51250000D02*
X101250000Y-51225000D01*
X90574977Y-49825023D02*
X89993640Y-49825023D01*
%TO.N,Net-(U4-+INB)*%
X82075000Y-50250000D02*
X83275000Y-50250000D01*
X83275000Y-50250000D02*
X84250000Y-51225000D01*
X93425068Y-51250000D02*
X94425067Y-50250001D01*
X84275000Y-51250000D02*
X93425068Y-51250000D01*
X84250000Y-51225000D02*
X84275000Y-51250000D01*
%TO.N,Net-(U6-+INA)*%
X39650000Y-49750000D02*
X39550003Y-49849997D01*
X51450000Y-51225000D02*
X52425000Y-50250000D01*
X50250000Y-51225000D02*
X51450000Y-51225000D01*
X40574933Y-49750000D02*
X39650000Y-49750000D01*
X48500000Y-51250000D02*
X50225000Y-51250000D01*
X39550003Y-49849997D02*
X39000000Y-49849997D01*
X50225000Y-51250000D02*
X50250000Y-51225000D01*
%TO.N,Net-(U6-+INB)*%
X33250000Y-51225000D02*
X33275000Y-51250000D01*
X42425068Y-51250000D02*
X43425067Y-50250001D01*
X33275000Y-51250000D02*
X42425068Y-51250000D01*
X32275000Y-50250000D02*
X33250000Y-51225000D01*
X31075000Y-50250000D02*
X32275000Y-50250000D01*
%TO.N,Net-(U7-VREF1)*%
X35799999Y-55574999D02*
X37399999Y-55574999D01*
X34925000Y-54700000D02*
X35799999Y-55574999D01*
%TO.N,Net-(U7-VREF2)*%
X37399999Y-56225001D02*
X36024999Y-56225001D01*
X36024999Y-56225001D02*
X35800000Y-56450000D01*
X35800000Y-56450000D02*
X34925000Y-56450000D01*
%TO.N,VREF+*%
X68050000Y-72550000D02*
X67000000Y-71500000D01*
X66055000Y-75125000D02*
X68050000Y-73130000D01*
X64325000Y-76525000D02*
X64250000Y-76600000D01*
X68050000Y-73130000D02*
X68050000Y-72550000D01*
X64325000Y-75125000D02*
X66055000Y-75125000D01*
X64325000Y-76650000D02*
X64250000Y-76725000D01*
X67000000Y-71500000D02*
X66075000Y-71500000D01*
X64325000Y-75125000D02*
X64325000Y-76525000D01*
X64250000Y-76600000D02*
X65750000Y-76600000D01*
%TO.N,Net-(U8-NRST)*%
X61690000Y-68020000D02*
X61250000Y-68020000D01*
X61250000Y-68020000D02*
X61245000Y-68025000D01*
X61245000Y-68025000D02*
X60750000Y-68025000D01*
X64350000Y-68520000D02*
X62190000Y-68520000D01*
X66075000Y-68000000D02*
X64870000Y-68000000D01*
X62190000Y-68520000D02*
X61690000Y-68020000D01*
X60700000Y-68075000D02*
X60750000Y-68025000D01*
X64870000Y-68000000D02*
X64350000Y-68520000D01*
X59250000Y-68075000D02*
X60700000Y-68075000D01*
%TO.N,Net-(U8-PH0)*%
X64575000Y-67375000D02*
X64950000Y-67000000D01*
X59804200Y-70820800D02*
X60963235Y-69661765D01*
X55750000Y-70225000D02*
X58154200Y-70225000D01*
X64950000Y-67000000D02*
X66075000Y-67000000D01*
X58154200Y-70225000D02*
X58750000Y-70820800D01*
X58750000Y-70820800D02*
X59804200Y-70820800D01*
%TO.N,Net-(U8-PH1)*%
X58154200Y-74775000D02*
X58750000Y-74179200D01*
X67450000Y-67500000D02*
X66075000Y-67500000D01*
X60975000Y-71954200D02*
X60975000Y-70500000D01*
X55750000Y-74775000D02*
X58154200Y-74775000D01*
X58750000Y-74179200D02*
X60975000Y-71954200D01*
%TO.N,Net-(U8-VCAP_1)*%
X79250000Y-75175000D02*
X79250000Y-77475000D01*
%TO.N,Net-(U8-VCAP_2)*%
X81425000Y-62500000D02*
X83725000Y-62500000D01*
%TO.N,Net-(U9-VDDCR)*%
X28475000Y-70950000D02*
X28475000Y-69270800D01*
X30500000Y-71475000D02*
X29000000Y-71475000D01*
X28475000Y-69270800D02*
X28995800Y-68750000D01*
X29000000Y-71475000D02*
X28475000Y-70950000D01*
%TO.N,Net-(U9-XTAL2)*%
X25154200Y-65725000D02*
X25750000Y-66320800D01*
X28200000Y-67750000D02*
X28995800Y-67750000D01*
X25750000Y-66320800D02*
X26770800Y-66320800D01*
X22750000Y-65725000D02*
X25154200Y-65725000D01*
X26770800Y-66320800D02*
X28200000Y-67750000D01*
%TO.N,Net-(U9-XTAL1{slash}CLKIN)*%
X27070800Y-69679200D02*
X25750000Y-69679200D01*
X25750000Y-69679200D02*
X25570800Y-69679200D01*
X28499999Y-68250001D02*
X27070800Y-69679200D01*
X24975000Y-70275000D02*
X22750000Y-70275000D01*
X28995800Y-68250001D02*
X28499999Y-68250001D01*
X25570800Y-69679200D02*
X24975000Y-70275000D01*
%TO.N,Net-(D1-A)*%
X86250000Y-94175000D02*
X86250000Y-92537500D01*
%TO.N,Net-(D2-A)*%
X93750000Y-94175000D02*
X93750000Y-92537500D01*
%TO.N,Net-(D3-A)*%
X101250000Y-94175000D02*
X101250000Y-92537500D01*
%TO.N,Net-(D4-A)*%
X107750000Y-90712500D02*
X109387500Y-90712500D01*
X109387500Y-90712500D02*
X109425000Y-90750000D01*
%TO.N,Net-(J1-CC1)*%
X111250000Y-97050000D02*
X111250000Y-95600000D01*
X111075000Y-95425000D02*
X111075000Y-94250000D01*
X111250000Y-95600000D02*
X111075000Y-95425000D01*
%TO.N,Net-(J1-CC2)*%
X113425000Y-94250000D02*
X113425000Y-95425000D01*
X113425000Y-95425000D02*
X113750000Y-95750000D01*
%TO.N,Net-(J6-TRD2+)*%
X30350000Y-64550000D02*
X30249999Y-64650001D01*
X31700000Y-80800000D02*
X31700000Y-80775000D01*
X30350000Y-64400000D02*
X30350000Y-64550000D01*
X33600000Y-81325000D02*
X33075000Y-80800000D01*
X33590000Y-83350000D02*
X33590000Y-81335000D01*
X30249999Y-64650001D02*
X30249999Y-65495800D01*
X30500000Y-79575000D02*
X30500000Y-78575000D01*
X31700000Y-80775000D02*
X30500000Y-79575000D01*
X33590000Y-81335000D02*
X33600000Y-81325000D01*
X33075000Y-80800000D02*
X31700000Y-80800000D01*
%TO.N,Net-(J6-ANODE_GREEN)*%
X26250000Y-82300000D02*
X29000000Y-79550000D01*
X29800000Y-91150000D02*
X26250000Y-87600000D01*
X29000000Y-79550000D02*
X29000000Y-78575000D01*
X26250000Y-87600000D02*
X26250000Y-82300000D01*
X25620000Y-97490000D02*
X26710000Y-97490000D01*
X26710000Y-97490000D02*
X29800000Y-94400000D01*
X29800000Y-94400000D02*
X29800000Y-91150000D01*
%TO.N,Net-(J6-TRD1+)*%
X31250000Y-65067043D02*
X31250000Y-65495800D01*
X31650000Y-64510838D02*
X31650000Y-64667043D01*
X31650000Y-64667043D02*
X31250000Y-65067043D01*
X33500000Y-78900000D02*
X33500000Y-78575000D01*
X31667807Y-64367807D02*
X31625000Y-64410614D01*
X31625000Y-64485838D02*
X31650000Y-64510838D01*
X35622000Y-81022000D02*
X33500000Y-78900000D01*
X31625000Y-64410614D02*
X31625000Y-64485838D01*
X35622000Y-83350000D02*
X35622000Y-81022000D01*
%TO.N,Net-(J6-TRD2-)*%
X32000000Y-79350000D02*
X32000000Y-78575000D01*
X34606000Y-82080000D02*
X34606000Y-81019000D01*
X31000000Y-63850000D02*
X31000000Y-64749943D01*
X31000000Y-64749943D02*
X30750000Y-64999943D01*
X34606000Y-81019000D02*
X34625000Y-81000000D01*
X32925000Y-80275000D02*
X32000000Y-79350000D01*
X33900000Y-80275000D02*
X32925000Y-80275000D01*
X34625000Y-81000000D02*
X33900000Y-80275000D01*
X30750000Y-64999943D02*
X30750000Y-65495800D01*
%TO.N,Net-(J6-ANODE_YELLOW)*%
X34400000Y-87750000D02*
X38000000Y-84150000D01*
X34400000Y-87750000D02*
X34400000Y-94400000D01*
X34400000Y-94400000D02*
X38500000Y-98500000D01*
X38000000Y-84150000D02*
X38000000Y-78575000D01*
%TO.N,Net-(J6-TRD1-)*%
X36638000Y-82080000D02*
X36638000Y-81038000D01*
X32484143Y-64400000D02*
X31750001Y-65134142D01*
X35000000Y-79400000D02*
X35000000Y-78575000D01*
X31750001Y-65134142D02*
X31750001Y-65495800D01*
X32600000Y-64400000D02*
X32484143Y-64400000D01*
X32625000Y-64375000D02*
X32600000Y-64400000D01*
X36638000Y-81038000D02*
X35000000Y-79400000D01*
%TO.N,USART1_CTS*%
X77200000Y-64000000D02*
X81425000Y-64000000D01*
X74200000Y-67000000D02*
X77200000Y-64000000D01*
%TO.N,USART1_RTS*%
X74200000Y-66100000D02*
X76800000Y-63500000D01*
X76800000Y-63500000D02*
X81425000Y-63500000D01*
%TO.N,USART1_CK*%
X74200000Y-69700000D02*
X78400000Y-65500000D01*
X78400000Y-65500000D02*
X81425000Y-65500000D01*
%TO.N,USART1_TX*%
X74200000Y-68800000D02*
X78000000Y-65000000D01*
X78000000Y-65000000D02*
X81425000Y-65000000D01*
%TO.N,USART1_RX*%
X77600000Y-64500000D02*
X81425000Y-64500000D01*
X74200000Y-67900000D02*
X77600000Y-64500000D01*
%TO.N,JTRST*%
X72750000Y-61650000D02*
X72750000Y-59825000D01*
X74000000Y-62900000D02*
X72750000Y-61650000D01*
%TO.N,JTCK_SWCLK*%
X78598924Y-61920629D02*
X78651613Y-61920629D01*
X78651613Y-61920629D02*
X79750000Y-60822242D01*
X79750000Y-60822242D02*
X79750000Y-59825000D01*
%TO.N,JTMS_SWDIO*%
X78600410Y-62720630D02*
X78879780Y-63000000D01*
X78879780Y-63000000D02*
X81425000Y-63000000D01*
%TO.N,JTDI*%
X78601667Y-61120632D02*
X78788192Y-61120632D01*
X78788192Y-61120632D02*
X79250000Y-60658824D01*
X79250000Y-60658824D02*
X79250000Y-59825000D01*
%TO.N,JTDO_SWO*%
X73250000Y-61250000D02*
X73250000Y-59825000D01*
X74000000Y-62000000D02*
X73250000Y-61250000D01*
%TO.N,+1V2*%
X103000000Y-91430000D02*
X103000000Y-90000000D01*
%TO.N,Net-(U1-FB)*%
X85256967Y-98595590D02*
X85250000Y-98602557D01*
X84500000Y-95925000D02*
X84500000Y-94325000D01*
X85250000Y-98602557D02*
X85250000Y-99499100D01*
X83100000Y-95925000D02*
X84500000Y-95925000D01*
%TO.N,Net-(U2-FB)*%
X90575000Y-95925000D02*
X92000000Y-95925000D01*
X92760000Y-98641203D02*
X92750000Y-98651203D01*
X92760000Y-98530000D02*
X92760000Y-98641203D01*
X92750000Y-98651203D02*
X92750000Y-99499100D01*
X92000000Y-94325000D02*
X92000000Y-95925000D01*
%TO.N,Net-(U3-FB)*%
X99495000Y-95920000D02*
X99500000Y-95925000D01*
X100250000Y-98529140D02*
X100254272Y-98524868D01*
X100250000Y-99499100D02*
X100250000Y-98529140D01*
X98160000Y-95920000D02*
X99495000Y-95920000D01*
X99500000Y-94325000D02*
X99500000Y-95925000D01*
%TO.N,Net-(U8-BOOT0)*%
X70750000Y-57575000D02*
X70750000Y-59825000D01*
%TO.N,Net-(U9-LED1{slash}\u002AREGOFF)*%
X28300000Y-67250000D02*
X28995800Y-67250000D01*
X27575000Y-66525000D02*
X28300000Y-67250000D01*
X29000000Y-75475000D02*
X29000000Y-76925000D01*
X27575000Y-65750000D02*
X27575000Y-66525000D01*
%TO.N,Net-(U9-LED2{slash}\u002ANINTSEL)*%
X28464000Y-66749999D02*
X28175000Y-66460999D01*
X38000000Y-75457422D02*
X38000000Y-76925000D01*
X28995800Y-66749999D02*
X28464000Y-66749999D01*
X28175000Y-66460999D02*
X28175000Y-65025000D01*
%TO.N,Net-(U9-RBIAS)*%
X29750000Y-65495800D02*
X29750000Y-63250000D01*
%TO.N,PHY_NRST*%
X34819265Y-67855735D02*
X34925000Y-67750000D01*
X33954265Y-67855735D02*
X34819265Y-67855735D01*
X33004200Y-67750000D02*
X33848530Y-67750000D01*
X33848530Y-67750000D02*
X33954265Y-67855735D01*
X78250000Y-74030000D02*
X78250000Y-75175000D01*
X77800000Y-73580000D02*
X78250000Y-74030000D01*
%TO.N,AN1_L*%
X95150000Y-49250000D02*
X94425067Y-49250000D01*
X88399999Y-54275000D02*
X88400000Y-53400000D01*
X95500000Y-48900000D02*
X95150000Y-49250000D01*
X90475069Y-49025069D02*
X90002488Y-49025069D01*
X91574933Y-49250000D02*
X90700000Y-49250000D01*
X90700000Y-49250000D02*
X90475069Y-49025069D01*
%TO.N,AN1_R*%
X90400000Y-48200000D02*
X90024377Y-48200000D01*
X95500000Y-49750000D02*
X94425067Y-49750000D01*
X91574933Y-48749999D02*
X90949999Y-48749999D01*
X88399999Y-54925001D02*
X87000001Y-54925001D01*
X90024377Y-48200000D02*
X89999304Y-48225073D01*
X90949999Y-48749999D02*
X90400000Y-48200000D01*
X87000001Y-54925001D02*
X87000000Y-54925000D01*
%TO.N,ADC1_BCK*%
X93042100Y-60125000D02*
X85601000Y-67566100D01*
X82258824Y-73000000D02*
X81425000Y-73000000D01*
X85601000Y-69657824D02*
X82258824Y-73000000D01*
X95400001Y-60125000D02*
X93042100Y-60125000D01*
X85601000Y-67566100D02*
X85601000Y-69657824D01*
%TO.N,ADC1_PDWN*%
X88399999Y-58174999D02*
X86950000Y-58175000D01*
X72725003Y-57650000D02*
X72725003Y-58016173D01*
X72725003Y-58016173D02*
X71750000Y-58991176D01*
X71750000Y-58991176D02*
X71750000Y-59825000D01*
%TO.N,ADC1_DOUT*%
X85200000Y-67400000D02*
X85200000Y-69491724D01*
X95400001Y-59474999D02*
X93125000Y-59475000D01*
X93125000Y-59475000D02*
X85200000Y-67400000D01*
X82691724Y-72000000D02*
X81425000Y-72000000D01*
X85200000Y-69491724D02*
X82691724Y-72000000D01*
%TO.N,ADC1_BYPAS*%
X71250000Y-58775000D02*
X71250000Y-59825000D01*
X82125000Y-59550000D02*
X86525000Y-59550000D01*
X86525000Y-59550000D02*
X87249999Y-58825001D01*
X71925000Y-57650000D02*
X71925000Y-58100000D01*
X80550000Y-57975000D02*
X82125000Y-59550000D01*
X87249999Y-58825001D02*
X88399999Y-58825001D01*
X71925000Y-58100000D02*
X71250000Y-58775000D01*
%TO.N,ADC1_LRCK*%
X86201000Y-69649000D02*
X86201000Y-67857815D01*
X85700000Y-70150000D02*
X86201000Y-69649000D01*
X82350000Y-73500000D02*
X81425000Y-73500000D01*
X86200000Y-64950000D02*
X88399999Y-62750001D01*
X88399999Y-62750001D02*
X88399999Y-60125000D01*
X85700000Y-70150000D02*
X82350000Y-73500000D01*
%TO.N,ADC1_SCKI*%
X81425000Y-67500000D02*
X84532900Y-67500000D01*
X92010000Y-60022900D02*
X92010000Y-58230000D01*
X92714999Y-57525001D02*
X95400001Y-57525001D01*
X92010000Y-58230000D02*
X92714999Y-57525001D01*
X84532900Y-67500000D02*
X92010000Y-60022900D01*
%TO.N,AN2_R*%
X40574933Y-48749999D02*
X39949999Y-48749999D01*
X43425067Y-49750000D02*
X44500000Y-49750000D01*
X39949999Y-48749999D02*
X39449991Y-48249991D01*
X35986765Y-54913235D02*
X36199845Y-54913235D01*
X36199845Y-54913235D02*
X36211611Y-54925001D01*
X36211611Y-54925001D02*
X37399999Y-54925001D01*
X39449991Y-48249991D02*
X39000000Y-48249991D01*
%TO.N,AN2_L*%
X40574933Y-49250000D02*
X39800000Y-49250000D01*
X39599994Y-49049994D02*
X39000000Y-49049994D01*
X37399999Y-54275000D02*
X37400000Y-53450000D01*
X39800000Y-49250000D02*
X39599994Y-49049994D01*
X44100000Y-49250000D02*
X44500000Y-48850000D01*
X43425067Y-49250000D02*
X44100000Y-49250000D01*
%TO.N,ADC2_LRCK*%
X41949999Y-64675000D02*
X37399999Y-60125000D01*
X57399000Y-64701000D02*
X57373000Y-64675000D01*
X57373000Y-64675000D02*
X41949999Y-64675000D01*
%TO.N,ADC2_BYPAS*%
X69760000Y-59815000D02*
X69750000Y-59825000D01*
X39646704Y-58825001D02*
X37399999Y-58825001D01*
X56400000Y-63326000D02*
X44147703Y-63326000D01*
X69760000Y-58480000D02*
X69760000Y-59815000D01*
X44147703Y-63326000D02*
X39646704Y-58825001D01*
%TO.N,ADC2_PDWN*%
X39563802Y-58174999D02*
X44114803Y-62726000D01*
X37399999Y-58174999D02*
X39563802Y-58174999D01*
X44114803Y-62726000D02*
X59425000Y-62726000D01*
X70785706Y-62726000D02*
X70250000Y-62190294D01*
X70250000Y-62190294D02*
X70250000Y-59825000D01*
%TO.N,ADC2_BCK*%
X78799000Y-59776000D02*
X78750000Y-59825000D01*
X45201001Y-60926000D02*
X63123890Y-60926000D01*
X79017176Y-58722824D02*
X79017176Y-58724000D01*
X63123890Y-60926000D02*
X67275890Y-56774000D01*
X78799000Y-58942176D02*
X78799000Y-59776000D01*
X78554000Y-56774000D02*
X79600000Y-57820000D01*
X79017176Y-58724000D02*
X78799000Y-58942176D01*
X79600000Y-58140000D02*
X79017176Y-58722824D01*
X67275890Y-56774000D02*
X78554000Y-56774000D01*
X79600000Y-57820000D02*
X79600000Y-58140000D01*
X44400001Y-60125000D02*
X45201001Y-60926000D01*
%TO.N,ADC2_DOUT*%
X71275000Y-61525000D02*
X71383824Y-61525000D01*
X44400001Y-59474999D02*
X43298004Y-59474999D01*
X44049003Y-61526000D02*
X60575000Y-61526000D01*
X72250000Y-60658824D02*
X72250000Y-59825000D01*
X71383824Y-61525000D02*
X72250000Y-60658824D01*
X43174002Y-60650999D02*
X44049003Y-61526000D01*
X43174002Y-59599001D02*
X43174002Y-60650999D01*
X43298004Y-59474999D02*
X43174002Y-59599001D01*
%TO.N,ADC2_SCKI*%
X42773002Y-58050000D02*
X42773002Y-60817099D01*
X44081903Y-62126000D02*
X60008441Y-62126000D01*
X43298001Y-57525001D02*
X42773002Y-58050000D01*
X42773002Y-60817099D02*
X44081903Y-62126000D01*
X44400001Y-57525001D02*
X43298001Y-57525001D01*
X79750000Y-67000000D02*
X81425000Y-67000000D01*
%TO.N,PHY_RXD1*%
X29750000Y-69504200D02*
X29750000Y-69850000D01*
X29750000Y-69850000D02*
X29225000Y-70375000D01*
X71415339Y-77305453D02*
X71750000Y-76970792D01*
X71750000Y-76970792D02*
X71750000Y-75175000D01*
%TO.N,PHY_RXD0*%
X70850000Y-76700000D02*
X70850000Y-76425000D01*
X71250000Y-76025000D02*
X71250000Y-75175000D01*
X70850000Y-76425000D02*
X71250000Y-76025000D01*
X30249999Y-69504200D02*
X30250000Y-70375000D01*
%TO.N,PHY_TXD0*%
X33004200Y-66749999D02*
X33782901Y-66749999D01*
X33782901Y-66749999D02*
X34107900Y-66425000D01*
X34107900Y-66425000D02*
X58000000Y-66425000D01*
X77750000Y-57374000D02*
X77750000Y-59825000D01*
%TO.N,PHY_TXD1*%
X65025000Y-64500000D02*
X66075000Y-64500000D01*
X64575000Y-64950000D02*
X65025000Y-64500000D01*
X33004200Y-66250000D02*
X33929200Y-65325000D01*
X33929200Y-65325000D02*
X58000000Y-65325000D01*
%TO.N,PHY_TXEN*%
X33850000Y-67250000D02*
X34200000Y-66900000D01*
X33004200Y-67250000D02*
X33850000Y-67250000D01*
X34200000Y-66900000D02*
X57300003Y-66900000D01*
X57300003Y-66900000D02*
X58000000Y-67599997D01*
X78750000Y-73550000D02*
X78750000Y-75175000D01*
%TO.N,PHY_CRS_DV*%
X31750001Y-69504200D02*
X31750001Y-69999891D01*
X70750000Y-73675000D02*
X70750000Y-75175000D01*
X35761765Y-70536765D02*
X54288235Y-70536765D01*
X31750001Y-69999891D02*
X31950110Y-70200000D01*
X31950110Y-70200000D02*
X35425000Y-70200000D01*
X35425000Y-70200000D02*
X35761765Y-70536765D01*
%TO.N,PHY_MDIO*%
X54104200Y-69504200D02*
X54325000Y-69725000D01*
X64950000Y-73500000D02*
X66075000Y-73500000D01*
X32250000Y-69504200D02*
X54104200Y-69504200D01*
X64649997Y-73800003D02*
X64950000Y-73500000D01*
X64600000Y-73800003D02*
X64649997Y-73800003D01*
%TO.N,PHY_MDC*%
X33004200Y-68750000D02*
X33254200Y-69000000D01*
X33254200Y-69000000D02*
X66075000Y-69000000D01*
%TO.N,PHY_REFCLK*%
X58000000Y-68400000D02*
X57801000Y-68599000D01*
X64600000Y-73000000D02*
X66075000Y-73000000D01*
X33450001Y-68250001D02*
X33004200Y-68250001D01*
X33799000Y-68599000D02*
X33450001Y-68250001D01*
X57801000Y-68599000D02*
X33799000Y-68599000D01*
%TO.N,ADC1_FMT1*%
X100425001Y-55574999D02*
X100550000Y-55450000D01*
X95400001Y-55574999D02*
X100425001Y-55574999D01*
%TO.N,ADC1_OSR*%
X109285001Y-56874999D02*
X110710000Y-55450000D01*
X95400001Y-56874999D02*
X109285001Y-56874999D01*
%TO.N,ADC1_FMT0*%
X99723999Y-56473999D02*
X107146001Y-56473999D01*
X107146001Y-56473999D02*
X108170000Y-55450000D01*
X99475001Y-56225001D02*
X99723999Y-56473999D01*
X95400001Y-56225001D02*
X99475001Y-56225001D01*
%TO.N,ADC1_MODE1*%
X95400001Y-54275000D02*
X99375000Y-54275000D01*
X104229500Y-54049500D02*
X105630000Y-55450000D01*
X99600500Y-54049500D02*
X104229500Y-54049500D01*
X99375000Y-54275000D02*
X99600500Y-54049500D01*
%TO.N,ADC1_MODE0*%
X95400001Y-54925001D02*
X99424999Y-54925001D01*
X102090500Y-54450500D02*
X103090000Y-55450000D01*
X99424999Y-54925001D02*
X99899500Y-54450500D01*
X99899500Y-54450500D02*
X102090500Y-54450500D01*
%TO.N,ADC2_MODE0*%
X48424999Y-54925001D02*
X48899500Y-54450500D01*
X44400001Y-54925001D02*
X48424999Y-54925001D01*
X51090500Y-54450500D02*
X52090000Y-55450000D01*
X48899500Y-54450500D02*
X51090500Y-54450500D01*
%TO.N,ADC2_FMT0*%
X49135493Y-56450000D02*
X49135993Y-56449500D01*
X44400001Y-56225001D02*
X48475001Y-56225001D01*
X56170500Y-56449500D02*
X57170000Y-55450000D01*
X48475001Y-56225001D02*
X48700000Y-56450000D01*
X49135993Y-56449500D02*
X56170500Y-56449500D01*
X48700000Y-56450000D02*
X49135493Y-56450000D01*
%TO.N,ADC2_FMT1*%
X49425001Y-55574999D02*
X49550000Y-55450000D01*
X44400001Y-55574999D02*
X49425001Y-55574999D01*
%TO.N,ADC2_MODE1*%
X53230000Y-54050000D02*
X54630000Y-55450000D01*
X48650000Y-54050000D02*
X53230000Y-54050000D01*
X48425000Y-54275000D02*
X48650000Y-54050000D01*
X44400001Y-54275000D02*
X48425000Y-54275000D01*
%TO.N,ADC2_OSR*%
X58285001Y-56874999D02*
X59710000Y-55450000D01*
X44400001Y-56874999D02*
X58285001Y-56874999D01*
%TO.N,GPIO_PA5*%
X52350000Y-79125000D02*
X47875000Y-83600000D01*
X47875000Y-83600000D02*
X47875000Y-85250900D01*
X69750000Y-75175000D02*
X69750000Y-78675000D01*
X47875000Y-85250900D02*
X46610000Y-86515900D01*
X69300000Y-79125000D02*
X52350000Y-79125000D01*
X69750000Y-78675000D02*
X69300000Y-79125000D01*
%TO.N,GPIO_PA6*%
X70250000Y-75175000D02*
X70250000Y-78750000D01*
X69474000Y-79526000D02*
X53599900Y-79526000D01*
X70250000Y-78750000D02*
X69474000Y-79526000D01*
X53599900Y-79526000D02*
X49150000Y-83975900D01*
%TO.N,GPIO_PB0*%
X50425000Y-85240900D02*
X49150000Y-86515900D01*
X50425000Y-83525000D02*
X50425000Y-85240900D01*
X69667100Y-79900000D02*
X69640100Y-79927000D01*
X54023000Y-79927000D02*
X50425000Y-83525000D01*
X69675000Y-79900000D02*
X69667100Y-79900000D01*
X69640100Y-79927000D02*
X54023000Y-79927000D01*
X72250000Y-77325000D02*
X69675000Y-79900000D01*
X72250000Y-75175000D02*
X72250000Y-77325000D01*
%TO.N,GPIO_PB1*%
X69806200Y-80328000D02*
X55337900Y-80328000D01*
X69841100Y-80301000D02*
X69833200Y-80301000D01*
X55337900Y-80328000D02*
X51690000Y-83975900D01*
X69833200Y-80301000D02*
X69806200Y-80328000D01*
X72750000Y-77392100D02*
X69841100Y-80301000D01*
X72750000Y-75175000D02*
X72750000Y-77392100D01*
%TO.N,GPIO_PB2*%
X69972300Y-80729000D02*
X55696000Y-80729000D01*
X70007200Y-80702000D02*
X69999300Y-80702000D01*
X73151000Y-77558200D02*
X70007200Y-80702000D01*
X73250000Y-77450000D02*
X73151000Y-77549000D01*
X55696000Y-80729000D02*
X53000000Y-83425000D01*
X53000000Y-85205900D02*
X51690000Y-86515900D01*
X73151000Y-77549000D02*
X73151000Y-77558200D01*
X73250000Y-75175000D02*
X73250000Y-77450000D01*
X53000000Y-83425000D02*
X53000000Y-85205900D01*
X69999300Y-80702000D02*
X69972300Y-80729000D01*
%TO.N,GPIO_PE8*%
X70339400Y-81504000D02*
X74250000Y-77593400D01*
X70331500Y-81504000D02*
X70339400Y-81504000D01*
X70304500Y-81531000D02*
X70331500Y-81504000D01*
X57594000Y-81531000D02*
X70304500Y-81531000D01*
X54230000Y-86515900D02*
X55500000Y-85245900D01*
X74250000Y-77593400D02*
X74250000Y-75175000D01*
X55500000Y-83625000D02*
X57594000Y-81531000D01*
X55500000Y-85245900D02*
X55500000Y-83625000D01*
%TO.N,GPIO_PE7*%
X57075900Y-81130000D02*
X70138400Y-81130000D01*
X73750000Y-77526300D02*
X73750000Y-75175000D01*
X70165400Y-81103000D02*
X70173300Y-81103000D01*
X70138400Y-81130000D02*
X70165400Y-81103000D01*
X54230000Y-83975900D02*
X57075900Y-81130000D01*
X70173300Y-81103000D02*
X73750000Y-77526300D01*
%TO.N,GPIO_PE9*%
X70505500Y-81905000D02*
X74750000Y-77660500D01*
X74750000Y-77660500D02*
X74750000Y-75175000D01*
X70497600Y-81905000D02*
X70505500Y-81905000D01*
X56770000Y-83975900D02*
X58813900Y-81932000D01*
X58813900Y-81932000D02*
X70470600Y-81932000D01*
X70470600Y-81932000D02*
X70497600Y-81905000D01*
%TO.N,GPIO_PE12*%
X70135900Y-83975900D02*
X76250000Y-77861800D01*
X64390000Y-83975900D02*
X70135900Y-83975900D01*
X76250000Y-77861800D02*
X76250000Y-75175000D01*
%TO.N,GPIO_PE10*%
X75250000Y-75175000D02*
X75250000Y-77727600D01*
X70636700Y-82333000D02*
X59242000Y-82333000D01*
X58050000Y-85235900D02*
X56770000Y-86515900D01*
X70671600Y-82306000D02*
X70663700Y-82306000D01*
X70663700Y-82306000D02*
X70636700Y-82333000D01*
X75250000Y-77727600D02*
X70671600Y-82306000D01*
X59242000Y-82333000D02*
X58050000Y-83525000D01*
X58050000Y-83525000D02*
X58050000Y-85235900D01*
%TO.N,GPIO_PE11*%
X70837700Y-82707000D02*
X70829800Y-82707000D01*
X75750000Y-77794700D02*
X70837700Y-82707000D01*
X70829800Y-82707000D02*
X70802800Y-82734000D01*
X70802800Y-82734000D02*
X60551900Y-82734000D01*
X60551900Y-82734000D02*
X59310000Y-83975900D01*
X75750000Y-75175000D02*
X75750000Y-77794700D01*
%TO.N,GPIO_PE13*%
X63124100Y-85250000D02*
X69428900Y-85250000D01*
X76750000Y-77928900D02*
X76750000Y-75175000D01*
X69428900Y-85250000D02*
X76750000Y-77928900D01*
X61850000Y-83975900D02*
X63124100Y-85250000D01*
%TO.N,GPIO_PE15*%
X68088100Y-87725000D02*
X77750000Y-78063100D01*
X61850000Y-86515900D02*
X63059100Y-87725000D01*
X77750000Y-78063100D02*
X77750000Y-75175000D01*
X63059100Y-87725000D02*
X68088100Y-87725000D01*
%TO.N,GPIO_PE14*%
X77250000Y-77996000D02*
X77250000Y-75175000D01*
X64390000Y-86515900D02*
X68730100Y-86515900D01*
X68730100Y-86515900D02*
X77250000Y-77996000D01*
%TO.N,GPIO_PB14*%
X80200000Y-72500000D02*
X79520000Y-73180000D01*
X81425000Y-72500000D02*
X80200000Y-72500000D01*
%TO.N,GPIO_PA0*%
X67050000Y-72500000D02*
X66075000Y-72500000D01*
X67440000Y-72890000D02*
X67050000Y-72500000D01*
%TO.N,GPIO_PC3*%
X67550000Y-70050000D02*
X67000000Y-70050000D01*
X67000000Y-70050000D02*
X66950000Y-70000000D01*
X66950000Y-70000000D02*
X66075000Y-70000000D01*
%TO.N,GPIO_PC2*%
X67550000Y-69200000D02*
X67525057Y-69200000D01*
X67225057Y-69500000D02*
X66075000Y-69500000D01*
X67525057Y-69200000D02*
X67225057Y-69500000D01*
%TO.N,GPIO_PE2*%
X66070000Y-61495000D02*
X66075000Y-61500000D01*
X66070000Y-60010000D02*
X66070000Y-61495000D01*
%TO.N,GPIO_PE6*%
X67500000Y-63500000D02*
X66075000Y-63500000D01*
%TO.N,GPIO_PE5*%
X65075000Y-63000000D02*
X66075000Y-63000000D01*
X64748000Y-63327000D02*
X65075000Y-63000000D01*
%TO.N,GPIO_PE4*%
X67464000Y-62500000D02*
X66075000Y-62500000D01*
X68290000Y-63326000D02*
X67464000Y-62500000D01*
%TO.N,GPIO_PC15*%
X67257354Y-65500000D02*
X66075000Y-65500000D01*
X67606739Y-65849385D02*
X67257354Y-65500000D01*
%TO.N,GPIO_PC0*%
X67525000Y-68375000D02*
X67400000Y-68500000D01*
X67400000Y-68500000D02*
X66075000Y-68500000D01*
%TO.N,GPIO_PE3*%
X64680000Y-62000000D02*
X66075000Y-62000000D01*
%TO.N,GPIO_PC14*%
X67600000Y-65000000D02*
X66075000Y-65000000D01*
%TO.N,GPIO_PE0*%
X69480000Y-60888824D02*
X69250000Y-60658824D01*
X70791796Y-63525979D02*
X70735742Y-63525979D01*
X69480000Y-62270237D02*
X69480000Y-60888824D01*
X69250000Y-60658824D02*
X69250000Y-59825000D01*
X70735742Y-63525979D02*
X69480000Y-62270237D01*
%TO.N,GPIO_PE1*%
X69919653Y-64669653D02*
X69919653Y-63276990D01*
X69919653Y-63276990D02*
X69079000Y-62436337D01*
X69079000Y-62436337D02*
X69079000Y-61089000D01*
X68750000Y-60658824D02*
X68750000Y-59825000D01*
X68760000Y-60770000D02*
X68760000Y-60668824D01*
X69079000Y-61089000D02*
X68760000Y-60770000D01*
X68760000Y-60668824D02*
X68750000Y-60658824D01*
%TO.N,GPIO_PD7*%
X73470735Y-58400735D02*
X73750000Y-58680000D01*
X73750000Y-58680000D02*
X73750000Y-59825000D01*
%TO.N,GPIO_PD6*%
X74250000Y-58640000D02*
X74250000Y-59825000D01*
X74420000Y-58470000D02*
X74250000Y-58640000D01*
%TO.N,GPIO_PD5*%
X74750000Y-61240000D02*
X74750000Y-59825000D01*
%TO.N,GPIO_PD4*%
X75390000Y-60798824D02*
X75250000Y-60658824D01*
X75250000Y-60658824D02*
X75250000Y-59825000D01*
X75390000Y-61950000D02*
X75390000Y-60798824D01*
%TO.N,GPIO_PD3*%
X75994553Y-61426054D02*
X75799000Y-61230501D01*
X75799000Y-59874000D02*
X75750000Y-59825000D01*
X75799000Y-61230501D02*
X75799000Y-59874000D01*
%TO.N,GPIO_PD2*%
X75366447Y-58523318D02*
X75782142Y-58523318D01*
X75782142Y-58523318D02*
X76250000Y-58991176D01*
X76250000Y-58991176D02*
X76250000Y-59825000D01*
%TO.N,GPIO_PD1*%
X76750000Y-58520000D02*
X76750000Y-59825000D01*
X76230000Y-58000000D02*
X76750000Y-58520000D01*
%TO.N,GPIO_PD0*%
X76880000Y-57400000D02*
X77250000Y-57770000D01*
X77250000Y-57770000D02*
X77250000Y-59825000D01*
%TO.N,GPIO_PD9*%
X80263446Y-71000000D02*
X81425000Y-71000000D01*
X78979523Y-71784881D02*
X79478565Y-71784881D01*
X79478565Y-71784881D02*
X80263446Y-71000000D01*
%TO.N,GPIO_PD8*%
X79512176Y-72579000D02*
X80591176Y-71500000D01*
X80591176Y-71500000D02*
X81425000Y-71500000D01*
X78985384Y-72584862D02*
X78991246Y-72579000D01*
X78991246Y-72579000D02*
X79512176Y-72579000D01*
%TO.N,GPIO_PD10*%
X79465043Y-70500000D02*
X81425000Y-70500000D01*
X78980164Y-70984879D02*
X79465043Y-70500000D01*
%TO.N,GPIO_PD11*%
X78961147Y-70155366D02*
X79116513Y-70000000D01*
X79116513Y-70000000D02*
X81425000Y-70000000D01*
%TO.N,GPIO_PD13*%
X80090000Y-69000000D02*
X81425000Y-69000000D01*
X78980296Y-68555541D02*
X79645541Y-68555541D01*
X79645541Y-68555541D02*
X80090000Y-69000000D01*
%TO.N,GPIO_PD12*%
X78978030Y-69355541D02*
X79122489Y-69500000D01*
X79122489Y-69500000D02*
X81425000Y-69500000D01*
%TO.N,GPIO_PD14*%
X80390000Y-68500000D02*
X81425000Y-68500000D01*
X79760000Y-67870000D02*
X80390000Y-68500000D01*
%TO.N,GPIO_PD15*%
X82850000Y-68000000D02*
X81425000Y-68000000D01*
X82950000Y-68100000D02*
X82850000Y-68000000D01*
%TO.N,GPIO_PC9*%
X82730000Y-66000000D02*
X81425000Y-66000000D01*
X82940000Y-65790000D02*
X82730000Y-66000000D01*
%TO.N,GPIO_PC8*%
X82950000Y-66690000D02*
X82760000Y-66500000D01*
X82760000Y-66500000D02*
X81425000Y-66500000D01*
%TO.N,GPIO_PC11*%
X78610000Y-58260000D02*
X78250000Y-58620000D01*
X78250000Y-58620000D02*
X78250000Y-59825000D01*
%TO.N,Net-(JP1-A)*%
X88000000Y-94225000D02*
X88000000Y-92070000D01*
%TO.N,Net-(JP2-A)*%
X95500000Y-94225000D02*
X95500000Y-92070000D01*
%TO.N,Net-(JP3-A)*%
X103000000Y-94225000D02*
X103000000Y-92070000D01*
%TD*%
M02*
