M48
; DRILL file {KiCad 9.0.6} date 2026-04-01T05:13:29+0200
; FORMAT={-:-/ absolute / metric / decimal}
; #@! TF.CreationDate,2026-04-01T05:13:29+02:00
; #@! TF.GenerationSoftware,Kicad,Pcbnew,9.0.6
; #@! TF.FileFunction,Plated,1,2,Blind
FMAT,2
METRIC
; #@! TA.AperFunction,Plated,Buried,ViaDrill
T1C0.300
%
G90
G05
T1
X27.575Y-65.75
X28.175Y-65.025
X39.0Y-49.85
X48.5Y-51.25
X58.0Y-65.325
X60.008Y-62.126
X60.575Y-61.526
X60.963Y-69.662
X60.975Y-70.5
X64.575Y-64.95
X64.575Y-67.375
X64.748Y-63.327
X67.44Y-72.89
X67.45Y-67.5
X67.5Y-63.5
X67.55Y-70.05
X68.46Y-71.82
X71.275Y-61.525
X74.2Y-66.1
X74.2Y-67.0
X74.2Y-67.9
X74.2Y-68.8
X74.2Y-69.7
X75.366Y-58.523
X75.39Y-61.95
X75.995Y-61.426
X76.23Y-58.0
X76.88Y-57.4
X79.75Y-67.0
X89.994Y-49.825
X99.5Y-51.25
M30
