%TF.GenerationSoftware,KiCad,Pcbnew,9.0.6*%
%TF.CreationDate,2026-04-01T05:14:03+02:00*%
%TF.ProjectId,SIGMAGE,5349474d-4147-4452-9e6b-696361645f70,rev?*%
%TF.SameCoordinates,Original*%
%TF.FileFunction,Copper,L6,Bot*%
%TF.FilePolarity,Positive*%
%FSLAX46Y46*%
G04 Gerber Fmt 4.6, Leading zero omitted, Abs format (unit mm)*
G04 Created by KiCad (PCBNEW 9.0.6) date 2026-04-01 05:14:03*
%MOMM*%
%LPD*%
G01*
G04 APERTURE LIST*
%TA.AperFunction,ComponentPad*%
%ADD10C,1.397000*%
%TD*%
%TA.AperFunction,ComponentPad*%
%ADD11C,2.400000*%
%TD*%
%TA.AperFunction,ComponentPad*%
%ADD12C,1.192000*%
%TD*%
%TA.AperFunction,ComponentPad*%
%ADD13C,0.750000*%
%TD*%
%TA.AperFunction,ComponentPad*%
%ADD14C,3.075000*%
%TD*%
%TA.AperFunction,ComponentPad*%
%ADD15C,1.650000*%
%TD*%
%TA.AperFunction,ComponentPad*%
%ADD16C,2.500000*%
%TD*%
%TA.AperFunction,ComponentPad*%
%ADD17C,0.650000*%
%TD*%
%TA.AperFunction,ComponentPad*%
%ADD18C,1.815000*%
%TD*%
%TA.AperFunction,ComponentPad*%
%ADD19C,2.085000*%
%TD*%
%TA.AperFunction,ViaPad*%
%ADD20C,0.600000*%
%TD*%
%TA.AperFunction,Conductor*%
%ADD21C,0.400000*%
%TD*%
%TA.AperFunction,Conductor*%
%ADD22C,0.200000*%
%TD*%
G04 APERTURE END LIST*
D10*
%TO.P,J14,1,1*%
%TO.N,+3V3*%
X93036500Y-66935000D03*
%TO.P,J14,2,2*%
X90496500Y-66935000D03*
%TO.P,J14,3,3*%
X93036500Y-69475000D03*
%TO.P,J14,4,4*%
X90496500Y-69475000D03*
%TO.P,J14,5,5*%
X93036500Y-72015000D03*
%TO.P,J14,6,6*%
X90496500Y-72015000D03*
%TO.P,J14,7,7*%
X93036500Y-74555000D03*
%TO.P,J14,8,8*%
X90496500Y-74555000D03*
%TO.P,J14,9,9*%
X93036500Y-77095000D03*
%TO.P,J14,10,10*%
X90496500Y-77095000D03*
%TO.P,J14,11,11*%
X93036500Y-79635000D03*
%TO.P,J14,12,12*%
X90496500Y-79635000D03*
%TO.P,J14,13,13*%
X93036500Y-82175000D03*
%TO.P,J14,14,14*%
X90496500Y-82175000D03*
%TO.P,J14,15,15*%
X93036500Y-84715000D03*
%TO.P,J14,16,16*%
X90496500Y-84715000D03*
%TD*%
%TO.P,J17,1,1*%
%TO.N,GND*%
X115924700Y-66935000D03*
%TO.P,J17,2,2*%
X113384700Y-66935000D03*
%TO.P,J17,3,3*%
X115924700Y-69475000D03*
%TO.P,J17,4,4*%
X113384700Y-69475000D03*
%TO.P,J17,5,5*%
X115924700Y-72015000D03*
%TO.P,J17,6,6*%
X113384700Y-72015000D03*
%TO.P,J17,7,7*%
X115924700Y-74555000D03*
%TO.P,J17,8,8*%
X113384700Y-74555000D03*
%TO.P,J17,9,9*%
X115924700Y-77095000D03*
%TO.P,J17,10,10*%
X113384700Y-77095000D03*
%TO.P,J17,11,11*%
X115924700Y-79635000D03*
%TO.P,J17,12,12*%
X113384700Y-79635000D03*
%TO.P,J17,13,13*%
X115924700Y-82175000D03*
%TO.P,J17,14,14*%
X113384700Y-82175000D03*
%TO.P,J17,15,15*%
X115924700Y-84715000D03*
%TO.P,J17,16,16*%
X113384700Y-84715000D03*
%TD*%
D11*
%TO.P,J4,1,SLEEVE*%
%TO.N,GND*%
X47850000Y-25400000D03*
%TO.P,J4,2,TIP*%
%TO.N,Net-(J4-TIP)*%
X47850000Y-38000000D03*
%TO.P,J4,3,RING*%
%TO.N,unconnected-(J4-RING-Pad3)*%
X47850000Y-31700000D03*
%TO.P,J4,4,SLEEVE_SWITCH*%
%TO.N,unconnected-(J4-SLEEVE_SWITCH-Pad4)*%
X64150000Y-25400000D03*
%TO.P,J4,5,TIP_SWITCH*%
%TO.N,unconnected-(J4-TIP_SWITCH-Pad5)*%
X64150000Y-38000000D03*
%TO.P,J4,6,RING_SWITCH*%
%TO.N,unconnected-(J4-RING_SWITCH-Pad6)*%
X64150000Y-31700000D03*
%TD*%
D10*
%TO.P,J8,1,1*%
%TO.N,ADC2_FMT1*%
X49550000Y-55450000D03*
%TO.P,J8,2,2*%
%TO.N,ADC2_MODE0*%
X52090000Y-55450000D03*
%TO.P,J8,3,3*%
%TO.N,ADC2_MODE1*%
X54630000Y-55450000D03*
%TO.P,J8,4,4*%
%TO.N,ADC2_FMT0*%
X57170000Y-55450000D03*
%TO.P,J8,5,5*%
%TO.N,ADC2_OSR*%
X59710000Y-55450000D03*
%TO.P,J8,6,6*%
%TO.N,GND*%
X62250000Y-55450000D03*
%TD*%
%TO.P,J7,1,1*%
%TO.N,ADC1_FMT1*%
X100550000Y-55450000D03*
%TO.P,J7,2,2*%
%TO.N,ADC1_MODE0*%
X103090000Y-55450000D03*
%TO.P,J7,3,3*%
%TO.N,ADC1_MODE1*%
X105630000Y-55450000D03*
%TO.P,J7,4,4*%
%TO.N,ADC1_FMT0*%
X108170000Y-55450000D03*
%TO.P,J7,5,5*%
%TO.N,ADC1_OSR*%
X110710000Y-55450000D03*
%TO.P,J7,6,6*%
%TO.N,GND*%
X113250000Y-55450000D03*
%TD*%
%TO.P,J9,1,1*%
%TO.N,USART1_CK*%
X70916000Y-101850000D03*
%TO.P,J9,2,2*%
%TO.N,USART1_TX*%
X70916000Y-99310000D03*
%TO.P,J9,3,3*%
%TO.N,USART1_RX*%
X70916000Y-96770000D03*
%TO.P,J9,4,4*%
%TO.N,USART1_CTS*%
X70916000Y-94230000D03*
%TO.P,J9,5,5*%
%TO.N,USART1_RTS*%
X70916000Y-91690000D03*
%TO.P,J9,6,6*%
%TO.N,GND*%
X70916000Y-89150000D03*
%TD*%
%TO.P,J10,1,1*%
%TO.N,JTRST*%
X77250000Y-101850000D03*
%TO.P,J10,2,2*%
%TO.N,JTDO_SWO*%
X77250000Y-99310000D03*
%TO.P,J10,3,3*%
%TO.N,JTDI*%
X77250000Y-96770000D03*
%TO.P,J10,4,4*%
%TO.N,JTCK_SWCLK*%
X77250000Y-94230000D03*
%TO.P,J10,5,5*%
%TO.N,JTMS_SWDIO*%
X77250000Y-91690000D03*
%TO.P,J10,6,6*%
%TO.N,GND*%
X77250000Y-89150000D03*
%TD*%
%TO.P,J11,1,1*%
%TO.N,GPIO_PE14*%
X64390000Y-86515900D03*
%TO.P,J11,2,2*%
%TO.N,GPIO_PE12*%
X64390000Y-83975900D03*
%TO.P,J11,3,3*%
%TO.N,GPIO_PE15*%
X61850000Y-86515900D03*
%TO.P,J11,4,4*%
%TO.N,GPIO_PE13*%
X61850000Y-83975900D03*
%TO.P,J11,5,5*%
%TO.N,GPIO_PB14*%
X59310000Y-86515900D03*
%TO.P,J11,6,6*%
%TO.N,GPIO_PE11*%
X59310000Y-83975900D03*
%TO.P,J11,7,7*%
%TO.N,GPIO_PE10*%
X56770000Y-86515900D03*
%TO.P,J11,8,8*%
%TO.N,GPIO_PE9*%
X56770000Y-83975900D03*
%TO.P,J11,9,9*%
%TO.N,GPIO_PE8*%
X54230000Y-86515900D03*
%TO.P,J11,10,10*%
%TO.N,GPIO_PE7*%
X54230000Y-83975900D03*
%TO.P,J11,11,11*%
%TO.N,GPIO_PB2*%
X51690000Y-86515900D03*
%TO.P,J11,12,12*%
%TO.N,GPIO_PB1*%
X51690000Y-83975900D03*
%TO.P,J11,13,13*%
%TO.N,GPIO_PB0*%
X49150000Y-86515900D03*
%TO.P,J11,14,14*%
%TO.N,GPIO_PA6*%
X49150000Y-83975900D03*
%TO.P,J11,15,15*%
%TO.N,GPIO_PA5*%
X46610000Y-86515900D03*
%TO.P,J11,16,16*%
%TO.N,GPIO_PA3*%
X46610000Y-83975900D03*
%TD*%
%TO.P,J15,1,1*%
%TO.N,+2V5*%
X100665900Y-66935000D03*
%TO.P,J15,2,2*%
X98125900Y-66935000D03*
%TO.P,J15,3,3*%
X100665900Y-69475000D03*
%TO.P,J15,4,4*%
X98125900Y-69475000D03*
%TO.P,J15,5,5*%
X100665900Y-72015000D03*
%TO.P,J15,6,6*%
X98125900Y-72015000D03*
%TO.P,J15,7,7*%
X100665900Y-74555000D03*
%TO.P,J15,8,8*%
X98125900Y-74555000D03*
%TO.P,J15,9,9*%
X100665900Y-77095000D03*
%TO.P,J15,10,10*%
X98125900Y-77095000D03*
%TO.P,J15,11,11*%
X100665900Y-79635000D03*
%TO.P,J15,12,12*%
X98125900Y-79635000D03*
%TO.P,J15,13,13*%
X100665900Y-82175000D03*
%TO.P,J15,14,14*%
X98125900Y-82175000D03*
%TO.P,J15,15,15*%
X100665900Y-84715000D03*
%TO.P,J15,16,16*%
X98125900Y-84715000D03*
%TD*%
%TO.P,J13,1,1*%
%TO.N,GPIO_PC11*%
X64390000Y-101774700D03*
%TO.P,J13,2,2*%
%TO.N,GPIO_PC8*%
X64390000Y-99234700D03*
%TO.P,J13,3,3*%
%TO.N,GPIO_PC9*%
X61850000Y-101774700D03*
%TO.P,J13,4,4*%
%TO.N,GPIO_PD15*%
X61850000Y-99234700D03*
%TO.P,J13,5,5*%
%TO.N,GPIO_PD13*%
X59310000Y-101774700D03*
%TO.P,J13,6,6*%
%TO.N,GPIO_PD14*%
X59310000Y-99234700D03*
%TO.P,J13,7,7*%
%TO.N,GPIO_PD11*%
X56770000Y-101774700D03*
%TO.P,J13,8,8*%
%TO.N,GPIO_PD12*%
X56770000Y-99234700D03*
%TO.P,J13,9,9*%
%TO.N,GPIO_PD9*%
X54230000Y-101774700D03*
%TO.P,J13,10,10*%
%TO.N,GPIO_PD10*%
X54230000Y-99234700D03*
%TO.P,J13,11,11*%
%TO.N,GPIO_PD4*%
X51690000Y-101774700D03*
%TO.P,J13,12,12*%
%TO.N,GPIO_PD8*%
X51690000Y-99234700D03*
%TO.P,J13,13,13*%
%TO.N,GPIO_PD0*%
X49150000Y-101774700D03*
%TO.P,J13,14,14*%
%TO.N,GPIO_PD3*%
X49150000Y-99234700D03*
%TO.P,J13,15,15*%
%TO.N,GPIO_PD1*%
X46610000Y-101774700D03*
%TO.P,J13,16,16*%
%TO.N,GPIO_PD2*%
X46610000Y-99234700D03*
%TD*%
D11*
%TO.P,J5,1,SLEEVE*%
%TO.N,GND*%
X24750000Y-25400000D03*
%TO.P,J5,2,TIP*%
%TO.N,Net-(J5-TIP)*%
X24750000Y-38000000D03*
%TO.P,J5,3,RING*%
%TO.N,unconnected-(J5-RING-Pad3)*%
X24750000Y-31700000D03*
%TO.P,J5,4,SLEEVE_SWITCH*%
%TO.N,unconnected-(J5-SLEEVE_SWITCH-Pad4)*%
X41050000Y-25400000D03*
%TO.P,J5,5,TIP_SWITCH*%
%TO.N,unconnected-(J5-TIP_SWITCH-Pad5)*%
X41050000Y-38000000D03*
%TO.P,J5,6,RING_SWITCH*%
%TO.N,unconnected-(J5-RING_SWITCH-Pad6)*%
X41050000Y-31700000D03*
%TD*%
D10*
%TO.P,J16,1,1*%
%TO.N,+1V2*%
X108295300Y-66935000D03*
%TO.P,J16,2,2*%
X105755300Y-66935000D03*
%TO.P,J16,3,3*%
X108295300Y-69475000D03*
%TO.P,J16,4,4*%
X105755300Y-69475000D03*
%TO.P,J16,5,5*%
X108295300Y-72015000D03*
%TO.P,J16,6,6*%
X105755300Y-72015000D03*
%TO.P,J16,7,7*%
X108295300Y-74555000D03*
%TO.P,J16,8,8*%
X105755300Y-74555000D03*
%TO.P,J16,9,9*%
X108295300Y-77095000D03*
%TO.P,J16,10,10*%
X105755300Y-77095000D03*
%TO.P,J16,11,11*%
X108295300Y-79635000D03*
%TO.P,J16,12,12*%
X105755300Y-79635000D03*
%TO.P,J16,13,13*%
X108295300Y-82175000D03*
%TO.P,J16,14,14*%
X105755300Y-82175000D03*
%TO.P,J16,15,15*%
X108295300Y-84715000D03*
%TO.P,J16,16,16*%
X105755300Y-84715000D03*
%TD*%
%TO.P,J12,1,1*%
%TO.N,GPIO_PC3*%
X64390000Y-94145300D03*
%TO.P,J12,2,2*%
%TO.N,GPIO_PA0*%
X64390000Y-91605300D03*
%TO.P,J12,3,3*%
%TO.N,GPIO_PC0*%
X61850000Y-94145300D03*
%TO.P,J12,4,4*%
%TO.N,GPIO_PC2*%
X61850000Y-91605300D03*
%TO.P,J12,5,5*%
%TO.N,GPIO_PC14*%
X59310000Y-94145300D03*
%TO.P,J12,6,6*%
%TO.N,GPIO_PC15*%
X59310000Y-91605300D03*
%TO.P,J12,7,7*%
%TO.N,GPIO_PE5*%
X56770000Y-94145300D03*
%TO.P,J12,8,8*%
%TO.N,GPIO_PE6*%
X56770000Y-91605300D03*
%TO.P,J12,9,9*%
%TO.N,GPIO_PD6*%
X54230000Y-94145300D03*
%TO.P,J12,10,10*%
%TO.N,GPIO_PD5*%
X54230000Y-91605300D03*
%TO.P,J12,11,11*%
%TO.N,GPIO_PE0*%
X51690000Y-94145300D03*
%TO.P,J12,12,12*%
%TO.N,GPIO_PD7*%
X51690000Y-91605300D03*
%TO.P,J12,13,13*%
%TO.N,GPIO_PE4*%
X49150000Y-94145300D03*
%TO.P,J12,14,14*%
%TO.N,GPIO_PE1*%
X49150000Y-91605300D03*
%TO.P,J12,15,15*%
%TO.N,GPIO_PE2*%
X46610000Y-94145300D03*
%TO.P,J12,16,16*%
%TO.N,GPIO_PE3*%
X46610000Y-91605300D03*
%TD*%
D11*
%TO.P,J3,1,SLEEVE*%
%TO.N,GND*%
X75750000Y-25400000D03*
%TO.P,J3,2,TIP*%
%TO.N,Net-(J3-TIP)*%
X75750000Y-38000000D03*
%TO.P,J3,3,RING*%
%TO.N,unconnected-(J3-RING-Pad3)*%
X75750000Y-31700000D03*
%TO.P,J3,4,SLEEVE_SWITCH*%
%TO.N,unconnected-(J3-SLEEVE_SWITCH-Pad4)*%
X92050000Y-25400000D03*
%TO.P,J3,5,TIP_SWITCH*%
%TO.N,unconnected-(J3-TIP_SWITCH-Pad5)*%
X92050000Y-38000000D03*
%TO.P,J3,6,RING_SWITCH*%
%TO.N,unconnected-(J3-RING_SWITCH-Pad6)*%
X92050000Y-31700000D03*
%TD*%
D12*
%TO.P,J6,1,TRD1+*%
%TO.N,Net-(J6-TRD1+)*%
X35622000Y-83350000D03*
%TO.P,J6,2,TRD1-*%
%TO.N,Net-(J6-TRD1-)*%
X36638000Y-82080000D03*
%TO.P,J6,3,TRD2+*%
%TO.N,Net-(J6-TRD2+)*%
X33590000Y-83350000D03*
%TO.P,J6,4,TRD2-*%
%TO.N,Net-(J6-TRD2-)*%
X34606000Y-82080000D03*
%TO.P,J6,5,TRD3+*%
%TO.N,unconnected-(J6-TRD3+-Pad5)*%
X31558000Y-83350000D03*
%TO.P,J6,6,TRD3-*%
%TO.N,unconnected-(J6-TRD3--Pad6)*%
X32574000Y-82080000D03*
%TO.P,J6,7,TRD4+*%
%TO.N,unconnected-(J6-TRD4+-Pad7)*%
X29526000Y-83350000D03*
%TO.P,J6,8,TRD4-*%
%TO.N,unconnected-(J6-TRD4--Pad8)*%
X30542000Y-82080000D03*
%TO.P,J6,9,VCC*%
%TO.N,+3V3*%
X27494000Y-83350000D03*
%TO.P,J6,10,GND*%
%TO.N,GND*%
X28510000Y-82080000D03*
D13*
%TO.P,J6,11,ANODE_YELLOW*%
%TO.N,Net-(J6-ANODE_YELLOW)*%
X38500000Y-98500000D03*
%TO.P,J6,12,CATHODE_YELLOW*%
%TO.N,GND*%
X38500000Y-96470000D03*
%TO.P,J6,13,ANODE_GREEN*%
%TO.N,Net-(J6-ANODE_GREEN)*%
X25620000Y-97490000D03*
%TO.P,J6,14,CATHODE_GREEN*%
%TO.N,GND*%
X25620000Y-95460000D03*
D14*
%TO.P,J6,MH3,MH3*%
X40110000Y-86090000D03*
%TO.P,J6,MH4,MH4*%
X24010000Y-86090000D03*
D15*
%TO.P,J6,MH5,MH5*%
X40110000Y-89590000D03*
%TO.P,J6,MH6,MH6*%
X24010000Y-89590000D03*
%TO.P,J6,MH7,MH7*%
X40110000Y-93590000D03*
%TO.P,J6,MH8,MH8*%
X24010000Y-93590000D03*
D16*
%TO.P,J6,MH9,MH9*%
X40110000Y-97490000D03*
%TO.P,J6,MH10,MH10*%
X24010000Y-96470000D03*
%TD*%
D17*
%TO.P,J1,B1,GND_3*%
%TO.N,GND*%
X115050000Y-98200000D03*
%TO.P,J1,B2,SSTXP2*%
%TO.N,unconnected-(J1-SSTXP2-PadB2)*%
X114400000Y-98900000D03*
%TO.P,J1,B3,SSTXN2*%
%TO.N,unconnected-(J1-SSTXN2-PadB3)*%
X113600000Y-98900000D03*
%TO.P,J1,B4,VBUS_1*%
%TO.N,VBUS*%
X113200000Y-98200000D03*
%TO.P,J1,B5,CC2*%
%TO.N,Net-(J1-CC2)*%
X112800000Y-98900000D03*
%TO.P,J1,B6,DP2*%
%TO.N,unconnected-(J1-DP2-PadB6)*%
X112400000Y-98200000D03*
%TO.P,J1,B7,DN2*%
%TO.N,unconnected-(J1-DN2-PadB7)*%
X111600000Y-98200000D03*
%TO.P,J1,B8,SBU2*%
%TO.N,unconnected-(J1-SBU2-PadB8)*%
X111200000Y-98900000D03*
%TO.P,J1,B9,VBUS_2*%
%TO.N,VBUS*%
X110800000Y-98200000D03*
%TO.P,J1,B10,SSRXN1*%
%TO.N,unconnected-(J1-SSRXN1-PadB10)*%
X110400000Y-98900000D03*
%TO.P,J1,B11,SSRXP1*%
%TO.N,unconnected-(J1-SSRXP1-PadB11)*%
X109600000Y-98900000D03*
%TO.P,J1,B12,GND_4*%
%TO.N,GND*%
X108950000Y-98200000D03*
D18*
%TO.P,J1,S1,GND_5*%
X107500000Y-97400000D03*
D19*
%TO.P,J1,S2,GND_6*%
X107500000Y-103000000D03*
%TO.P,J1,S3,GND_7*%
X116500000Y-103000000D03*
D18*
%TO.P,J1,S4,GND_8*%
X116500000Y-97400000D03*
%TD*%
D11*
%TO.P,J2,1,SLEEVE*%
%TO.N,GND*%
X98850000Y-25400000D03*
%TO.P,J2,2,TIP*%
%TO.N,Net-(J2-TIP)*%
X98850000Y-38000000D03*
%TO.P,J2,3,RING*%
%TO.N,unconnected-(J2-RING-Pad3)*%
X98850000Y-31700000D03*
%TO.P,J2,4,SLEEVE_SWITCH*%
%TO.N,unconnected-(J2-SLEEVE_SWITCH-Pad4)*%
X115150000Y-25400000D03*
%TO.P,J2,5,TIP_SWITCH*%
%TO.N,unconnected-(J2-TIP_SWITCH-Pad5)*%
X115150000Y-38000000D03*
%TO.P,J2,6,RING_SWITCH*%
%TO.N,unconnected-(J2-RING_SWITCH-Pad6)*%
X115150000Y-31700000D03*
%TD*%
D20*
%TO.N,+5V*%
X39580000Y-56880000D03*
X44500000Y-48050000D03*
X95500000Y-48099997D03*
X105580000Y-58970000D03*
X90190000Y-56290000D03*
%TO.N,Net-(J1-CC2)*%
X113750000Y-95750000D03*
%TO.N,JTRST*%
X74000000Y-62900000D03*
%TO.N,JTCK_SWCLK*%
X78598924Y-61920629D03*
%TO.N,JTMS_SWDIO*%
X78600410Y-62720630D03*
%TO.N,JTDI*%
X78601667Y-61120632D03*
%TO.N,JTDO_SWO*%
X74000000Y-62000000D03*
%TO.N,Net-(U1-FB)*%
X85256967Y-98595590D03*
X83100000Y-95925000D03*
%TO.N,Net-(U2-FB)*%
X90575000Y-95925000D03*
X92760000Y-98530000D03*
%TO.N,Net-(U3-FB)*%
X98160000Y-95920000D03*
X100254272Y-98524868D03*
%TO.N,Net-(U9-LED1{slash}\u002AREGOFF)*%
X29000000Y-75475000D03*
%TO.N,Net-(U9-LED2{slash}\u002ANINTSEL)*%
X38000000Y-75457422D03*
%TO.N,PHY_NRST*%
X77800000Y-73580000D03*
X33954265Y-67855735D03*
%TO.N,AN1_L*%
X88400000Y-53400000D03*
X90002488Y-49025069D03*
X95500000Y-48900000D03*
%TO.N,AN1_R*%
X87000000Y-54925000D03*
X89999304Y-48225073D03*
X95500000Y-49750000D03*
%TO.N,ADC1_BYPAS*%
X71925000Y-57650000D03*
X80550000Y-57975000D03*
%TO.N,ADC1_LRCK*%
X86200000Y-64950000D03*
X86201000Y-67857815D03*
%TO.N,AN2_R*%
X35986765Y-54913235D03*
X44500000Y-49750000D03*
X39000000Y-48249991D03*
%TO.N,AN2_L*%
X44500000Y-48850000D03*
X39000000Y-49049994D03*
X37400000Y-53450000D03*
%TO.N,PHY_RXD1*%
X71415339Y-77305453D03*
X29225000Y-70375000D03*
%TO.N,PHY_RXD0*%
X70850000Y-76700000D03*
X30250000Y-70375000D03*
%TO.N,PHY_TXD0*%
X77750000Y-57374000D03*
X58000000Y-66425000D03*
%TO.N,PHY_TXEN*%
X58000000Y-67599997D03*
X78750000Y-73550000D03*
%TO.N,PHY_CRS_DV*%
X70750000Y-73675000D03*
X54288235Y-70536765D03*
%TO.N,PHY_MDIO*%
X64600000Y-73800003D03*
X54325000Y-69725000D03*
%TO.N,PHY_REFCLK*%
X64600000Y-73000000D03*
X58000000Y-68400000D03*
%TO.N,GPIO_PB14*%
X79520000Y-73180000D03*
%TO.N,GPIO_PC2*%
X67550000Y-69200000D03*
%TO.N,GPIO_PE2*%
X66070000Y-60010000D03*
%TO.N,GPIO_PC15*%
X67606739Y-65849385D03*
%TO.N,GPIO_PC0*%
X67525000Y-68375000D03*
%TO.N,GPIO_PC14*%
X67600000Y-65000000D03*
%TO.N,GPIO_PD9*%
X78979523Y-71784881D03*
%TO.N,GPIO_PD8*%
X78985384Y-72584862D03*
%TO.N,GPIO_PD10*%
X78980164Y-70984879D03*
%TO.N,GPIO_PD11*%
X78961147Y-70155366D03*
%TO.N,GPIO_PD13*%
X78980296Y-68555541D03*
%TO.N,GPIO_PD12*%
X78978030Y-69355541D03*
%TO.N,GPIO_PD14*%
X79760000Y-67870000D03*
%TO.N,GPIO_PD15*%
X82950000Y-68100000D03*
%TO.N,GPIO_PC9*%
X82940000Y-65790000D03*
%TO.N,GPIO_PC8*%
X82950000Y-66690000D03*
%TO.N,GPIO_PC11*%
X78610000Y-58260000D03*
%TO.N,GPIO_PA3*%
X68390000Y-83334000D03*
%TD*%
D21*
%TO.N,+5V*%
X46260000Y-48960000D02*
X46260000Y-56880000D01*
X45350000Y-48050000D02*
X46260000Y-48960000D01*
X44500000Y-48050000D02*
X45350000Y-48050000D01*
X97100000Y-53340000D02*
X94150000Y-56290000D01*
X97100000Y-48800000D02*
X97100000Y-53340000D01*
X96399997Y-48099997D02*
X97100000Y-48800000D01*
X95500000Y-48099997D02*
X96399997Y-48099997D01*
X46260000Y-56880000D02*
X39580000Y-56880000D01*
X66160000Y-56290000D02*
X63760000Y-58690000D01*
X63760000Y-58690000D02*
X48070000Y-58690000D01*
X96810000Y-58950000D02*
X94150000Y-56290000D01*
X105560000Y-58950000D02*
X96810000Y-58950000D01*
X48070000Y-58690000D02*
X46260000Y-56880000D01*
X94150000Y-56290000D02*
X66160000Y-56290000D01*
X105580000Y-58970000D02*
X105560000Y-58950000D01*
D22*
%TO.N,Net-(J1-CC2)*%
X113440381Y-100000000D02*
X112800000Y-99359619D01*
X113750000Y-95750000D02*
X117000000Y-95750000D01*
X117000000Y-95750000D02*
X118000000Y-96750000D01*
X118000000Y-96750000D02*
X118000000Y-98500000D01*
X112800000Y-99359619D02*
X112800000Y-98900000D01*
X118000000Y-98500000D02*
X116500000Y-100000000D01*
X116500000Y-100000000D02*
X113440381Y-100000000D01*
%TO.N,Net-(U1-FB)*%
X85150000Y-98500000D02*
X83100000Y-96450000D01*
X85161377Y-98500000D02*
X85150000Y-98500000D01*
X83100000Y-96450000D02*
X83100000Y-95925000D01*
X85256967Y-98595590D02*
X85161377Y-98500000D01*
%TO.N,Net-(U2-FB)*%
X92760000Y-98530000D02*
X92710000Y-98530000D01*
X90575000Y-96395000D02*
X90575000Y-95925000D01*
X92710000Y-98530000D02*
X90575000Y-96395000D01*
%TO.N,Net-(U3-FB)*%
X100234868Y-98524868D02*
X98160000Y-96450000D01*
X100254272Y-98524868D02*
X100234868Y-98524868D01*
X98160000Y-96450000D02*
X98160000Y-95920000D01*
%TO.N,PHY_NRST*%
X58050000Y-75300000D02*
X76080000Y-75300000D01*
X33954265Y-67855735D02*
X50605735Y-67855735D01*
X50605735Y-67855735D02*
X58050000Y-75300000D01*
X76080000Y-75300000D02*
X77800000Y-73580000D01*
%TO.N,AN1_L*%
X89943651Y-49025069D02*
X90002488Y-49025069D01*
X95251057Y-50351000D02*
X95748943Y-50351000D01*
X93925126Y-49025069D02*
X95251057Y-50351000D01*
X88400000Y-53400000D02*
X88400000Y-50568720D01*
X88400000Y-50568720D02*
X89943651Y-49025069D01*
X96101000Y-49998943D02*
X96101000Y-49501000D01*
X95748943Y-50351000D02*
X96101000Y-49998943D01*
X96101000Y-49501000D02*
X95500000Y-48900000D01*
X90002488Y-49025069D02*
X93925126Y-49025069D01*
%TO.N,AN1_R*%
X87000000Y-54925000D02*
X87000000Y-51177614D01*
X93975073Y-48225073D02*
X95500000Y-49750000D01*
X89999304Y-48225073D02*
X93975073Y-48225073D01*
X87000000Y-51177614D02*
X89952541Y-48225073D01*
X89952541Y-48225073D02*
X89999304Y-48225073D01*
%TO.N,ADC1_BYPAS*%
X77998943Y-57975000D02*
X77501057Y-57975000D01*
X80550000Y-57975000D02*
X80225000Y-57650000D01*
X77501057Y-57975000D02*
X77176057Y-57650000D01*
X77176057Y-57650000D02*
X71925000Y-57650000D01*
X80225000Y-57650000D02*
X78323943Y-57650000D01*
X78323943Y-57650000D02*
X77998943Y-57975000D01*
%TO.N,ADC1_LRCK*%
X86200000Y-64950000D02*
X86200000Y-67856815D01*
X86200000Y-67856815D02*
X86201000Y-67857815D01*
%TO.N,AN2_R*%
X42999991Y-48249991D02*
X39000000Y-48249991D01*
X44500000Y-49750000D02*
X42999991Y-48249991D01*
X35986765Y-54913235D02*
X35986765Y-51213286D01*
X35986765Y-51213286D02*
X38950060Y-48249991D01*
X38950060Y-48249991D02*
X39000000Y-48249991D01*
%TO.N,AN2_L*%
X45101000Y-49998943D02*
X44748943Y-50351000D01*
X45101000Y-49451000D02*
X45101000Y-49998943D01*
X37400000Y-50600054D02*
X38950060Y-49049994D01*
X38950060Y-49049994D02*
X39000000Y-49049994D01*
X44251000Y-50351000D02*
X42950000Y-49050000D01*
X39000006Y-49050000D02*
X39000000Y-49049994D01*
X42950000Y-49050000D02*
X39000006Y-49050000D01*
X44500000Y-48850000D02*
X45101000Y-49451000D01*
X37400000Y-53450000D02*
X37400000Y-50600054D01*
X44748943Y-50351000D02*
X44251000Y-50351000D01*
%TO.N,PHY_RXD1*%
X70688965Y-78036035D02*
X36886035Y-78036035D01*
X71400000Y-77320792D02*
X71400000Y-77325000D01*
X71400000Y-77325000D02*
X70688965Y-78036035D01*
X71415339Y-77305453D02*
X71400000Y-77320792D01*
X36886035Y-78036035D02*
X29225000Y-70375000D01*
%TO.N,PHY_RXD0*%
X70850000Y-76700000D02*
X70850000Y-77104475D01*
X70677236Y-77277239D02*
X37152239Y-77277239D01*
X70850000Y-77104475D02*
X70677236Y-77277239D01*
X37152239Y-77277239D02*
X30250000Y-70375000D01*
%TO.N,PHY_TXD0*%
X67375000Y-57050000D02*
X77426000Y-57050000D01*
X58000000Y-66425000D02*
X67375000Y-57050000D01*
X77426000Y-57050000D02*
X77750000Y-57374000D01*
%TO.N,PHY_TXEN*%
X78750000Y-73550000D02*
X72799997Y-67599997D01*
X72799997Y-67599997D02*
X58000000Y-67599997D01*
%TO.N,PHY_CRS_DV*%
X70750000Y-73675000D02*
X69775000Y-74650000D01*
X69775000Y-74650000D02*
X58401470Y-74650000D01*
X58401470Y-74650000D02*
X54288235Y-70536765D01*
%TO.N,PHY_MDIO*%
X54325000Y-69725000D02*
X58400003Y-73800003D01*
X58400003Y-73800003D02*
X64600000Y-73800003D01*
%TO.N,PHY_REFCLK*%
X64600000Y-72450000D02*
X64600000Y-73000000D01*
X58000000Y-68400000D02*
X60550000Y-68400000D01*
X60550000Y-68400000D02*
X64600000Y-72450000D01*
%TO.N,GPIO_PB14*%
X60575900Y-85250000D02*
X59310000Y-86515900D01*
X67899943Y-85250000D02*
X60575900Y-85250000D01*
X79520000Y-73180000D02*
X79520000Y-73629943D01*
X79520000Y-73629943D02*
X67899943Y-85250000D01*
%TO.N,GPIO_PD9*%
X65931000Y-88353143D02*
X65931000Y-94776100D01*
X65931000Y-94776100D02*
X65016100Y-95691000D01*
X80522000Y-72764957D02*
X80522000Y-73762143D01*
X80522000Y-73762143D02*
X65931000Y-88353143D01*
X65016100Y-95691000D02*
X55800800Y-95691000D01*
X78979523Y-71790000D02*
X79547043Y-71790000D01*
X52950000Y-100494700D02*
X54230000Y-101774700D01*
X52950000Y-98541800D02*
X52950000Y-100494700D01*
X78979523Y-71784881D02*
X78979523Y-71790000D01*
X79547043Y-71790000D02*
X80522000Y-72764957D01*
X55800800Y-95691000D02*
X52950000Y-98541800D01*
%TO.N,GPIO_PD8*%
X79271057Y-72579000D02*
X79768943Y-72579000D01*
X79768943Y-72579000D02*
X80121000Y-72931057D01*
X78985384Y-72584862D02*
X79265195Y-72584862D01*
X80121000Y-72931057D02*
X80121000Y-73596043D01*
X80121000Y-73596043D02*
X65530000Y-88187043D01*
X79265195Y-72584862D02*
X79271057Y-72579000D01*
X64850000Y-95290000D02*
X55634700Y-95290000D01*
X65530000Y-88187043D02*
X65530000Y-94610000D01*
X65530000Y-94610000D02*
X64850000Y-95290000D01*
X55634700Y-95290000D02*
X51690000Y-99234700D01*
%TO.N,GPIO_PD10*%
X78980164Y-70984879D02*
X79344879Y-70984879D01*
X66332000Y-94942200D02*
X65182200Y-96092000D01*
X66332000Y-88519243D02*
X66332000Y-94942200D01*
X54230000Y-97828900D02*
X54230000Y-99234700D01*
X80930000Y-73921243D02*
X66332000Y-88519243D01*
X55966900Y-96092000D02*
X54230000Y-97828900D01*
X65182200Y-96092000D02*
X55966900Y-96092000D01*
X79344879Y-70984879D02*
X80930000Y-72570000D01*
X80930000Y-72570000D02*
X80930000Y-73921243D01*
%TO.N,GPIO_PD11*%
X81331000Y-74087343D02*
X81331000Y-72403900D01*
X66733000Y-95108300D02*
X66733000Y-92570000D01*
X81331000Y-72403900D02*
X80388550Y-71461450D01*
X55510000Y-97116000D02*
X56133000Y-96493000D01*
X55510000Y-98140000D02*
X55510000Y-97116000D01*
X65348300Y-96493000D02*
X66733000Y-95108300D01*
X56133000Y-96493000D02*
X65348300Y-96493000D01*
X55510000Y-100514700D02*
X55510000Y-98140000D01*
X66733000Y-88685343D02*
X79264172Y-76154171D01*
X66733000Y-92570000D02*
X66733000Y-88685343D01*
X79082466Y-70155366D02*
X78961147Y-70155366D01*
X56770000Y-101774700D02*
X55510000Y-100514700D01*
X80388550Y-71461450D02*
X79082466Y-70155366D01*
X79264172Y-76154171D02*
X81331000Y-74087343D01*
%TO.N,GPIO_PD13*%
X67535000Y-95440500D02*
X67535000Y-89017543D01*
X65680500Y-97295000D02*
X67535000Y-95440500D01*
X79027973Y-68555541D02*
X78980296Y-68555541D01*
X58050000Y-100514700D02*
X58050000Y-97830000D01*
X82133000Y-71660568D02*
X79027973Y-68555541D01*
X58585000Y-97295000D02*
X65680500Y-97295000D01*
X58050000Y-97830000D02*
X58585000Y-97295000D01*
X67535000Y-89017543D02*
X82133000Y-74419543D01*
X59310000Y-101774700D02*
X58050000Y-100514700D01*
X82133000Y-74419543D02*
X82133000Y-71660568D01*
%TO.N,GPIO_PD12*%
X79010519Y-69355541D02*
X78978030Y-69355541D01*
X56770000Y-97754000D02*
X57630000Y-96894000D01*
X67134000Y-95274400D02*
X67134000Y-88851443D01*
X57630000Y-96894000D02*
X65514400Y-96894000D01*
X81732000Y-72077022D02*
X79010519Y-69355541D01*
X81732000Y-74253443D02*
X81732000Y-72077022D01*
X56770000Y-99234700D02*
X56770000Y-97754000D01*
X65514400Y-96894000D02*
X67134000Y-95274400D01*
X67134000Y-88851443D02*
X81732000Y-74253443D01*
%TO.N,GPIO_PD14*%
X59310000Y-99234700D02*
X59310000Y-98246872D01*
X67936000Y-95606600D02*
X67936000Y-94370000D01*
X82534000Y-74585643D02*
X82534000Y-70644000D01*
X59310000Y-98246872D02*
X59860872Y-97696000D01*
X62250000Y-97696000D02*
X65846600Y-97696000D01*
X82534000Y-70644000D02*
X79760000Y-67870000D01*
X65846600Y-97696000D02*
X67936000Y-95606600D01*
X67936000Y-94370000D02*
X67936000Y-89183643D01*
X67936000Y-89183643D02*
X78994822Y-78124821D01*
X59860872Y-97696000D02*
X62250000Y-97696000D01*
X78994822Y-78124821D02*
X82534000Y-74585643D01*
%TO.N,GPIO_PD15*%
X61999872Y-98097000D02*
X64560000Y-98097000D01*
X66012700Y-98097000D02*
X68337000Y-95772700D01*
X78988372Y-78698371D02*
X82950000Y-74736743D01*
X61850000Y-98246872D02*
X61999872Y-98097000D01*
X68337000Y-95772700D02*
X68337000Y-93110000D01*
X64560000Y-98097000D02*
X66012700Y-98097000D01*
X61850000Y-99234700D02*
X61850000Y-98246872D01*
X82950000Y-74736743D02*
X82950000Y-68100000D01*
X68337000Y-93110000D02*
X68337000Y-89349743D01*
X68337000Y-89349743D02*
X78988372Y-78698371D01*
%TO.N,GPIO_PC9*%
X69139000Y-91190000D02*
X69909000Y-90420000D01*
X63114700Y-100510000D02*
X64733900Y-100510000D01*
X83952000Y-74868943D02*
X83952000Y-66802000D01*
X72099000Y-89741000D02*
X72099000Y-86721943D01*
X69139000Y-96104900D02*
X69139000Y-91190000D01*
X78880472Y-79940471D02*
X83952000Y-74868943D01*
X83952000Y-66802000D02*
X82940000Y-65790000D01*
X71420000Y-90420000D02*
X72099000Y-89741000D01*
X69909000Y-90420000D02*
X71420000Y-90420000D01*
X72099000Y-86721943D02*
X78880472Y-79940471D01*
X64733900Y-100510000D02*
X69139000Y-96104900D01*
X61850000Y-101774700D02*
X63114700Y-100510000D01*
%TO.N,GPIO_PC8*%
X83551000Y-67291000D02*
X82950000Y-66690000D01*
X68738000Y-94710000D02*
X68738000Y-89515843D01*
X78931922Y-79321921D02*
X83551000Y-74702843D01*
X64390000Y-99234700D02*
X65442100Y-99234700D01*
X83551000Y-74702843D02*
X83551000Y-67291000D01*
X68738000Y-95938800D02*
X68738000Y-94710000D01*
X65442100Y-99234700D02*
X68738000Y-95938800D01*
X68738000Y-89515843D02*
X78931922Y-79321921D01*
%TO.N,GPIO_PC11*%
X64390000Y-101774700D02*
X69540000Y-96624700D01*
X71660000Y-92950000D02*
X72500000Y-92110000D01*
X70340000Y-92950000D02*
X71660000Y-92950000D01*
X72500000Y-92110000D02*
X72500000Y-86888043D01*
X72500000Y-86888043D02*
X84353000Y-75035043D01*
X84353000Y-64003000D02*
X78610000Y-58260000D01*
X69540000Y-96624700D02*
X69540000Y-93750000D01*
X84353000Y-75035043D02*
X84353000Y-64003000D01*
X69540000Y-93750000D02*
X70340000Y-92950000D01*
%TO.N,GPIO_PA3*%
X67786000Y-82730000D02*
X68390000Y-83334000D01*
X47855900Y-82730000D02*
X67786000Y-82730000D01*
X46610000Y-83975900D02*
X47855900Y-82730000D01*
%TD*%
M02*
