M48
; DRILL file {KiCad 9.0.6} date 2026-04-07T19:44:16+0200
; FORMAT={-:-/ absolute / metric / decimal}
; #@! TF.CreationDate,2026-04-07T19:44:16+02:00
; #@! TF.GenerationSoftware,Kicad,Pcbnew,9.0.6
; #@! TF.FileFunction,Plated,1,6,PTH
FMAT,2
METRIC
; #@! TA.AperFunction,Plated,PTH,ViaDrill
T1C0.300
; #@! TA.AperFunction,Plated,PTH,ComponentDrill
T2C0.400
; #@! TA.AperFunction,Plated,PTH,ComponentDrill
T3C0.889
; #@! TA.AperFunction,Plated,PTH,ComponentDrill
T4C0.900
; #@! TA.AperFunction,Plated,PTH,ComponentDrill
T5C1.020
; #@! TA.AperFunction,Plated,PTH,ComponentDrill
T6C1.220
; #@! TA.AperFunction,Plated,PTH,ComponentDrill
T7C1.393
; #@! TA.AperFunction,Plated,PTH,ComponentDrill
T8C1.600
%
G90
G05
T1
X24.6Y-79.7
X29.225Y-70.375
X30.25Y-70.375
X31.4Y-83.7
X32.9Y-83.7
X33.795Y-67.8
X34.4Y-83.7
X35.9Y-83.7
X35.987Y-54.913
X37.4Y-53.45
X38.0Y-75.457
X39.0Y-48.25
X39.0Y-49.05
X39.58Y-56.88
X44.5Y-48.05
X44.5Y-48.85
X44.5Y-49.75
X54.288Y-70.537
X54.325Y-69.725
X58.0Y-66.425
X58.0Y-67.6
X58.0Y-68.4
X64.6Y-73.0
X64.6Y-73.8
X66.07Y-60.01
X67.525Y-68.375
X67.55Y-69.2
X67.6Y-65.0
X67.607Y-65.849
X70.75Y-73.675
X70.85Y-76.7
X71.415Y-77.305
X71.925Y-57.65
X74.0Y-62.0
X74.0Y-62.9
X77.75Y-57.374
X77.8Y-73.58
X78.599Y-61.921
X78.6Y-62.721
X78.602Y-61.121
X78.61Y-58.26
X78.75Y-73.55
X78.961Y-70.155
X78.978Y-69.356
X78.98Y-71.785
X78.98Y-70.985
X78.98Y-68.556
X78.985Y-72.585
X79.52Y-73.18
X79.76Y-67.87
X80.55Y-57.975
X82.94Y-65.79
X82.95Y-66.69
X82.95Y-68.1
X83.5Y-95.925
X85.257Y-98.596
X86.2Y-64.95
X86.201Y-67.858
X87.0Y-54.925
X88.4Y-53.4
X89.999Y-48.225
X90.002Y-49.025
X90.19Y-56.29
X91.0Y-95.925
X92.76Y-98.53
X95.5Y-48.1
X95.5Y-48.9
X95.5Y-49.75
X98.5Y-95.92
X100.254Y-98.525
X105.58Y-58.97
X113.75Y-95.75
T2
X108.95Y-98.2
X109.6Y-98.9
X110.4Y-98.9
X110.8Y-98.2
X111.2Y-98.9
X111.6Y-98.2
X112.4Y-98.2
X112.8Y-98.9
X113.2Y-98.2
X113.6Y-98.9
X114.4Y-98.9
X115.05Y-98.2
T3
X46.61Y-83.976
X46.61Y-86.516
X46.61Y-91.605
X46.61Y-94.145
X46.61Y-99.235
X46.61Y-101.775
X49.15Y-83.976
X49.15Y-86.516
X49.15Y-91.605
X49.15Y-94.145
X49.15Y-99.235
X49.15Y-101.775
X49.55Y-55.45
X51.69Y-83.976
X51.69Y-86.516
X51.69Y-91.605
X51.69Y-94.145
X51.69Y-99.235
X51.69Y-101.775
X52.09Y-55.45
X54.23Y-83.976
X54.23Y-86.516
X54.23Y-91.605
X54.23Y-94.145
X54.23Y-99.235
X54.23Y-101.775
X54.63Y-55.45
X56.77Y-83.976
X56.77Y-86.516
X56.77Y-91.605
X56.77Y-94.145
X56.77Y-99.235
X56.77Y-101.775
X57.17Y-55.45
X59.31Y-83.976
X59.31Y-86.516
X59.31Y-91.605
X59.31Y-94.145
X59.31Y-99.235
X59.31Y-101.775
X59.71Y-55.45
X61.85Y-83.976
X61.85Y-86.516
X61.85Y-91.605
X61.85Y-94.145
X61.85Y-99.235
X61.85Y-101.775
X62.25Y-55.45
X64.39Y-83.976
X64.39Y-86.516
X64.39Y-91.605
X64.39Y-94.145
X64.39Y-99.235
X64.39Y-101.775
X70.916Y-89.15
X70.916Y-91.69
X70.916Y-94.23
X70.916Y-96.77
X70.916Y-99.31
X70.916Y-101.85
X77.25Y-89.15
X77.25Y-91.69
X77.25Y-94.23
X77.25Y-96.77
X77.25Y-99.31
X77.25Y-101.85
X89.08Y-89.23
X89.08Y-91.77
X90.496Y-66.935
X90.496Y-69.475
X90.496Y-72.015
X90.496Y-74.555
X90.496Y-77.095
X90.496Y-79.635
X90.496Y-82.175
X90.496Y-84.715
X93.036Y-66.935
X93.036Y-69.475
X93.036Y-72.015
X93.036Y-74.555
X93.036Y-77.095
X93.036Y-79.635
X93.036Y-82.175
X93.036Y-84.715
X96.6Y-89.23
X96.6Y-91.77
X98.126Y-66.935
X98.126Y-69.475
X98.126Y-72.015
X98.126Y-74.555
X98.126Y-77.095
X98.126Y-79.635
X98.126Y-82.175
X98.126Y-84.715
X100.55Y-55.45
X100.666Y-66.935
X100.666Y-69.475
X100.666Y-72.015
X100.666Y-74.555
X100.666Y-77.095
X100.666Y-79.635
X100.666Y-82.175
X100.666Y-84.715
X103.09Y-55.45
X104.1Y-89.23
X104.1Y-91.77
X105.63Y-55.45
X105.755Y-66.935
X105.755Y-69.475
X105.755Y-72.015
X105.755Y-74.555
X105.755Y-77.095
X105.755Y-79.635
X105.755Y-82.175
X105.755Y-84.715
X108.17Y-55.45
X108.295Y-66.935
X108.295Y-69.475
X108.295Y-72.015
X108.295Y-74.555
X108.295Y-77.095
X108.295Y-79.635
X108.295Y-82.175
X108.295Y-84.715
X110.71Y-55.45
X113.25Y-55.45
X113.385Y-66.935
X113.385Y-69.475
X113.385Y-72.015
X113.385Y-74.555
X113.385Y-77.095
X113.385Y-79.635
X113.385Y-82.175
X113.385Y-84.715
X115.925Y-66.935
X115.925Y-69.475
X115.925Y-72.015
X115.925Y-74.555
X115.925Y-77.095
X115.925Y-79.635
X115.925Y-82.175
X115.925Y-84.715
T4
X25.585Y-86.21
X26.855Y-88.75
X28.125Y-86.21
X29.395Y-88.75
X30.665Y-86.21
X31.935Y-88.75
X33.205Y-86.21
X34.475Y-88.75
X35.745Y-86.21
X37.015Y-88.75
T5
X24.515Y-97.64
X24.515Y-99.67
X38.085Y-97.64
X38.085Y-99.67
T6
X107.5Y-97.4
X116.5Y-97.4
T7
X107.5Y-103.0
X116.5Y-103.0
T8
X23.55Y-92.05
X24.75Y-25.4
X24.75Y-31.7
X24.75Y-38.0
X39.05Y-92.05
X41.05Y-25.4
X41.05Y-31.7
X41.05Y-38.0
X47.85Y-25.4
X47.85Y-31.7
X47.85Y-38.0
X64.15Y-25.4
X64.15Y-31.7
X64.15Y-38.0
X75.75Y-25.4
X75.75Y-31.7
X75.75Y-38.0
X92.05Y-25.4
X92.05Y-31.7
X92.05Y-38.0
X98.85Y-25.4
X98.85Y-31.7
X98.85Y-38.0
X115.15Y-25.4
X115.15Y-31.7
X115.15Y-38.0
M30
