%TF.GenerationSoftware,KiCad,Pcbnew,9.0.6*%
%TF.CreationDate,2026-04-07T19:48:28+02:00*%
%TF.ProjectId,SIGMAGE,5349474d-4147-4452-9e6b-696361645f70,rev?*%
%TF.SameCoordinates,Original*%
%TF.FileFunction,Legend,Top*%
%TF.FilePolarity,Positive*%
%FSLAX46Y46*%
G04 Gerber Fmt 4.6, Leading zero omitted, Abs format (unit mm)*
G04 Created by KiCad (PCBNEW 9.0.6) date 2026-04-07 19:48:28*
%MOMM*%
%LPD*%
G01*
G04 APERTURE LIST*
%ADD10C,0.150000*%
%ADD11C,0.254000*%
%ADD12C,0.120000*%
%ADD13C,0.152400*%
%ADD14C,0.200000*%
%ADD15C,0.100000*%
%ADD16C,0.508000*%
%ADD17C,0.250000*%
%ADD18C,0.000000*%
G04 APERTURE END LIST*
D10*
X101738095Y-99954819D02*
X101738095Y-100764342D01*
X101738095Y-100764342D02*
X101785714Y-100859580D01*
X101785714Y-100859580D02*
X101833333Y-100907200D01*
X101833333Y-100907200D02*
X101928571Y-100954819D01*
X101928571Y-100954819D02*
X102119047Y-100954819D01*
X102119047Y-100954819D02*
X102214285Y-100907200D01*
X102214285Y-100907200D02*
X102261904Y-100859580D01*
X102261904Y-100859580D02*
X102309523Y-100764342D01*
X102309523Y-100764342D02*
X102309523Y-99954819D01*
X102690476Y-99954819D02*
X103309523Y-99954819D01*
X103309523Y-99954819D02*
X102976190Y-100335771D01*
X102976190Y-100335771D02*
X103119047Y-100335771D01*
X103119047Y-100335771D02*
X103214285Y-100383390D01*
X103214285Y-100383390D02*
X103261904Y-100431009D01*
X103261904Y-100431009D02*
X103309523Y-100526247D01*
X103309523Y-100526247D02*
X103309523Y-100764342D01*
X103309523Y-100764342D02*
X103261904Y-100859580D01*
X103261904Y-100859580D02*
X103214285Y-100907200D01*
X103214285Y-100907200D02*
X103119047Y-100954819D01*
X103119047Y-100954819D02*
X102833333Y-100954819D01*
X102833333Y-100954819D02*
X102738095Y-100907200D01*
X102738095Y-100907200D02*
X102690476Y-100859580D01*
D11*
X40176667Y-84504318D02*
X40176667Y-85411461D01*
X40176667Y-85411461D02*
X40116190Y-85592889D01*
X40116190Y-85592889D02*
X39995238Y-85713842D01*
X39995238Y-85713842D02*
X39813809Y-85774318D01*
X39813809Y-85774318D02*
X39692857Y-85774318D01*
X41325714Y-84504318D02*
X41083809Y-84504318D01*
X41083809Y-84504318D02*
X40962857Y-84564794D01*
X40962857Y-84564794D02*
X40902381Y-84625270D01*
X40902381Y-84625270D02*
X40781428Y-84806699D01*
X40781428Y-84806699D02*
X40720952Y-85048603D01*
X40720952Y-85048603D02*
X40720952Y-85532413D01*
X40720952Y-85532413D02*
X40781428Y-85653365D01*
X40781428Y-85653365D02*
X40841905Y-85713842D01*
X40841905Y-85713842D02*
X40962857Y-85774318D01*
X40962857Y-85774318D02*
X41204762Y-85774318D01*
X41204762Y-85774318D02*
X41325714Y-85713842D01*
X41325714Y-85713842D02*
X41386190Y-85653365D01*
X41386190Y-85653365D02*
X41446667Y-85532413D01*
X41446667Y-85532413D02*
X41446667Y-85230032D01*
X41446667Y-85230032D02*
X41386190Y-85109080D01*
X41386190Y-85109080D02*
X41325714Y-85048603D01*
X41325714Y-85048603D02*
X41204762Y-84988127D01*
X41204762Y-84988127D02*
X40962857Y-84988127D01*
X40962857Y-84988127D02*
X40841905Y-85048603D01*
X40841905Y-85048603D02*
X40781428Y-85109080D01*
X40781428Y-85109080D02*
X40720952Y-85230032D01*
D10*
X87591319Y-85124523D02*
X88305604Y-85124523D01*
X88305604Y-85124523D02*
X88448461Y-85172142D01*
X88448461Y-85172142D02*
X88543700Y-85267380D01*
X88543700Y-85267380D02*
X88591319Y-85410237D01*
X88591319Y-85410237D02*
X88591319Y-85505475D01*
X88591319Y-84124523D02*
X88591319Y-84695951D01*
X88591319Y-84410237D02*
X87591319Y-84410237D01*
X87591319Y-84410237D02*
X87734176Y-84505475D01*
X87734176Y-84505475D02*
X87829414Y-84600713D01*
X87829414Y-84600713D02*
X87877033Y-84695951D01*
X87924652Y-83267380D02*
X88591319Y-83267380D01*
X87543700Y-83505475D02*
X88257985Y-83743570D01*
X88257985Y-83743570D02*
X88257985Y-83124523D01*
X94238095Y-99954819D02*
X94238095Y-100764342D01*
X94238095Y-100764342D02*
X94285714Y-100859580D01*
X94285714Y-100859580D02*
X94333333Y-100907200D01*
X94333333Y-100907200D02*
X94428571Y-100954819D01*
X94428571Y-100954819D02*
X94619047Y-100954819D01*
X94619047Y-100954819D02*
X94714285Y-100907200D01*
X94714285Y-100907200D02*
X94761904Y-100859580D01*
X94761904Y-100859580D02*
X94809523Y-100764342D01*
X94809523Y-100764342D02*
X94809523Y-99954819D01*
X95238095Y-100050057D02*
X95285714Y-100002438D01*
X95285714Y-100002438D02*
X95380952Y-99954819D01*
X95380952Y-99954819D02*
X95619047Y-99954819D01*
X95619047Y-99954819D02*
X95714285Y-100002438D01*
X95714285Y-100002438D02*
X95761904Y-100050057D01*
X95761904Y-100050057D02*
X95809523Y-100145295D01*
X95809523Y-100145295D02*
X95809523Y-100240533D01*
X95809523Y-100240533D02*
X95761904Y-100383390D01*
X95761904Y-100383390D02*
X95190476Y-100954819D01*
X95190476Y-100954819D02*
X95809523Y-100954819D01*
X86738095Y-99954819D02*
X86738095Y-100764342D01*
X86738095Y-100764342D02*
X86785714Y-100859580D01*
X86785714Y-100859580D02*
X86833333Y-100907200D01*
X86833333Y-100907200D02*
X86928571Y-100954819D01*
X86928571Y-100954819D02*
X87119047Y-100954819D01*
X87119047Y-100954819D02*
X87214285Y-100907200D01*
X87214285Y-100907200D02*
X87261904Y-100859580D01*
X87261904Y-100859580D02*
X87309523Y-100764342D01*
X87309523Y-100764342D02*
X87309523Y-99954819D01*
X88309523Y-100954819D02*
X87738095Y-100954819D01*
X88023809Y-100954819D02*
X88023809Y-99954819D01*
X88023809Y-99954819D02*
X87928571Y-100097676D01*
X87928571Y-100097676D02*
X87833333Y-100192914D01*
X87833333Y-100192914D02*
X87738095Y-100240533D01*
X110479519Y-85124523D02*
X111193804Y-85124523D01*
X111193804Y-85124523D02*
X111336661Y-85172142D01*
X111336661Y-85172142D02*
X111431900Y-85267380D01*
X111431900Y-85267380D02*
X111479519Y-85410237D01*
X111479519Y-85410237D02*
X111479519Y-85505475D01*
X111479519Y-84124523D02*
X111479519Y-84695951D01*
X111479519Y-84410237D02*
X110479519Y-84410237D01*
X110479519Y-84410237D02*
X110622376Y-84505475D01*
X110622376Y-84505475D02*
X110717614Y-84600713D01*
X110717614Y-84600713D02*
X110765233Y-84695951D01*
X110479519Y-83791189D02*
X110479519Y-83124523D01*
X110479519Y-83124523D02*
X111479519Y-83553094D01*
D11*
X47076667Y-46804318D02*
X47076667Y-47711461D01*
X47076667Y-47711461D02*
X47016190Y-47892889D01*
X47016190Y-47892889D02*
X46895238Y-48013842D01*
X46895238Y-48013842D02*
X46713809Y-48074318D01*
X46713809Y-48074318D02*
X46592857Y-48074318D01*
X48225714Y-47227651D02*
X48225714Y-48074318D01*
X47923333Y-46743842D02*
X47620952Y-47650984D01*
X47620952Y-47650984D02*
X48407143Y-47650984D01*
D10*
X48376666Y-52738819D02*
X48376666Y-53453104D01*
X48376666Y-53453104D02*
X48329047Y-53595961D01*
X48329047Y-53595961D02*
X48233809Y-53691200D01*
X48233809Y-53691200D02*
X48090952Y-53738819D01*
X48090952Y-53738819D02*
X47995714Y-53738819D01*
X48995714Y-53167390D02*
X48900476Y-53119771D01*
X48900476Y-53119771D02*
X48852857Y-53072152D01*
X48852857Y-53072152D02*
X48805238Y-52976914D01*
X48805238Y-52976914D02*
X48805238Y-52929295D01*
X48805238Y-52929295D02*
X48852857Y-52834057D01*
X48852857Y-52834057D02*
X48900476Y-52786438D01*
X48900476Y-52786438D02*
X48995714Y-52738819D01*
X48995714Y-52738819D02*
X49186190Y-52738819D01*
X49186190Y-52738819D02*
X49281428Y-52786438D01*
X49281428Y-52786438D02*
X49329047Y-52834057D01*
X49329047Y-52834057D02*
X49376666Y-52929295D01*
X49376666Y-52929295D02*
X49376666Y-52976914D01*
X49376666Y-52976914D02*
X49329047Y-53072152D01*
X49329047Y-53072152D02*
X49281428Y-53119771D01*
X49281428Y-53119771D02*
X49186190Y-53167390D01*
X49186190Y-53167390D02*
X48995714Y-53167390D01*
X48995714Y-53167390D02*
X48900476Y-53215009D01*
X48900476Y-53215009D02*
X48852857Y-53262628D01*
X48852857Y-53262628D02*
X48805238Y-53357866D01*
X48805238Y-53357866D02*
X48805238Y-53548342D01*
X48805238Y-53548342D02*
X48852857Y-53643580D01*
X48852857Y-53643580D02*
X48900476Y-53691200D01*
X48900476Y-53691200D02*
X48995714Y-53738819D01*
X48995714Y-53738819D02*
X49186190Y-53738819D01*
X49186190Y-53738819D02*
X49281428Y-53691200D01*
X49281428Y-53691200D02*
X49329047Y-53643580D01*
X49329047Y-53643580D02*
X49376666Y-53548342D01*
X49376666Y-53548342D02*
X49376666Y-53357866D01*
X49376666Y-53357866D02*
X49329047Y-53262628D01*
X49329047Y-53262628D02*
X49281428Y-53215009D01*
X49281428Y-53215009D02*
X49186190Y-53167390D01*
X24419676Y-71504819D02*
X25086342Y-72504819D01*
X25086342Y-71504819D02*
X24419676Y-72504819D01*
X25419676Y-71600057D02*
X25467295Y-71552438D01*
X25467295Y-71552438D02*
X25562533Y-71504819D01*
X25562533Y-71504819D02*
X25800628Y-71504819D01*
X25800628Y-71504819D02*
X25895866Y-71552438D01*
X25895866Y-71552438D02*
X25943485Y-71600057D01*
X25943485Y-71600057D02*
X25991104Y-71695295D01*
X25991104Y-71695295D02*
X25991104Y-71790533D01*
X25991104Y-71790533D02*
X25943485Y-71933390D01*
X25943485Y-71933390D02*
X25372057Y-72504819D01*
X25372057Y-72504819D02*
X25991104Y-72504819D01*
X41238095Y-51704819D02*
X41238095Y-52514342D01*
X41238095Y-52514342D02*
X41285714Y-52609580D01*
X41285714Y-52609580D02*
X41333333Y-52657200D01*
X41333333Y-52657200D02*
X41428571Y-52704819D01*
X41428571Y-52704819D02*
X41619047Y-52704819D01*
X41619047Y-52704819D02*
X41714285Y-52657200D01*
X41714285Y-52657200D02*
X41761904Y-52609580D01*
X41761904Y-52609580D02*
X41809523Y-52514342D01*
X41809523Y-52514342D02*
X41809523Y-51704819D01*
X42714285Y-51704819D02*
X42523809Y-51704819D01*
X42523809Y-51704819D02*
X42428571Y-51752438D01*
X42428571Y-51752438D02*
X42380952Y-51800057D01*
X42380952Y-51800057D02*
X42285714Y-51942914D01*
X42285714Y-51942914D02*
X42238095Y-52133390D01*
X42238095Y-52133390D02*
X42238095Y-52514342D01*
X42238095Y-52514342D02*
X42285714Y-52609580D01*
X42285714Y-52609580D02*
X42333333Y-52657200D01*
X42333333Y-52657200D02*
X42428571Y-52704819D01*
X42428571Y-52704819D02*
X42619047Y-52704819D01*
X42619047Y-52704819D02*
X42714285Y-52657200D01*
X42714285Y-52657200D02*
X42761904Y-52609580D01*
X42761904Y-52609580D02*
X42809523Y-52514342D01*
X42809523Y-52514342D02*
X42809523Y-52276247D01*
X42809523Y-52276247D02*
X42761904Y-52181009D01*
X42761904Y-52181009D02*
X42714285Y-52133390D01*
X42714285Y-52133390D02*
X42619047Y-52085771D01*
X42619047Y-52085771D02*
X42428571Y-52085771D01*
X42428571Y-52085771D02*
X42333333Y-52133390D01*
X42333333Y-52133390D02*
X42285714Y-52181009D01*
X42285714Y-52181009D02*
X42238095Y-52276247D01*
X99376666Y-52738819D02*
X99376666Y-53453104D01*
X99376666Y-53453104D02*
X99329047Y-53595961D01*
X99329047Y-53595961D02*
X99233809Y-53691200D01*
X99233809Y-53691200D02*
X99090952Y-53738819D01*
X99090952Y-53738819D02*
X98995714Y-53738819D01*
X99757619Y-52738819D02*
X100424285Y-52738819D01*
X100424285Y-52738819D02*
X99995714Y-53738819D01*
X68130019Y-102603333D02*
X68844304Y-102603333D01*
X68844304Y-102603333D02*
X68987161Y-102650952D01*
X68987161Y-102650952D02*
X69082400Y-102746190D01*
X69082400Y-102746190D02*
X69130019Y-102889047D01*
X69130019Y-102889047D02*
X69130019Y-102984285D01*
X69130019Y-102079523D02*
X69130019Y-101889047D01*
X69130019Y-101889047D02*
X69082400Y-101793809D01*
X69082400Y-101793809D02*
X69034780Y-101746190D01*
X69034780Y-101746190D02*
X68891923Y-101650952D01*
X68891923Y-101650952D02*
X68701447Y-101603333D01*
X68701447Y-101603333D02*
X68320495Y-101603333D01*
X68320495Y-101603333D02*
X68225257Y-101650952D01*
X68225257Y-101650952D02*
X68177638Y-101698571D01*
X68177638Y-101698571D02*
X68130019Y-101793809D01*
X68130019Y-101793809D02*
X68130019Y-101984285D01*
X68130019Y-101984285D02*
X68177638Y-102079523D01*
X68177638Y-102079523D02*
X68225257Y-102127142D01*
X68225257Y-102127142D02*
X68320495Y-102174761D01*
X68320495Y-102174761D02*
X68558590Y-102174761D01*
X68558590Y-102174761D02*
X68653828Y-102127142D01*
X68653828Y-102127142D02*
X68701447Y-102079523D01*
X68701447Y-102079523D02*
X68749066Y-101984285D01*
X68749066Y-101984285D02*
X68749066Y-101793809D01*
X68749066Y-101793809D02*
X68701447Y-101698571D01*
X68701447Y-101698571D02*
X68653828Y-101650952D01*
X68653828Y-101650952D02*
X68558590Y-101603333D01*
X74464019Y-103079523D02*
X75178304Y-103079523D01*
X75178304Y-103079523D02*
X75321161Y-103127142D01*
X75321161Y-103127142D02*
X75416400Y-103222380D01*
X75416400Y-103222380D02*
X75464019Y-103365237D01*
X75464019Y-103365237D02*
X75464019Y-103460475D01*
X75464019Y-102079523D02*
X75464019Y-102650951D01*
X75464019Y-102365237D02*
X74464019Y-102365237D01*
X74464019Y-102365237D02*
X74606876Y-102460475D01*
X74606876Y-102460475D02*
X74702114Y-102555713D01*
X74702114Y-102555713D02*
X74749733Y-102650951D01*
X74464019Y-101460475D02*
X74464019Y-101365237D01*
X74464019Y-101365237D02*
X74511638Y-101269999D01*
X74511638Y-101269999D02*
X74559257Y-101222380D01*
X74559257Y-101222380D02*
X74654495Y-101174761D01*
X74654495Y-101174761D02*
X74844971Y-101127142D01*
X74844971Y-101127142D02*
X75083066Y-101127142D01*
X75083066Y-101127142D02*
X75273542Y-101174761D01*
X75273542Y-101174761D02*
X75368780Y-101222380D01*
X75368780Y-101222380D02*
X75416400Y-101269999D01*
X75416400Y-101269999D02*
X75464019Y-101365237D01*
X75464019Y-101365237D02*
X75464019Y-101460475D01*
X75464019Y-101460475D02*
X75416400Y-101555713D01*
X75416400Y-101555713D02*
X75368780Y-101603332D01*
X75368780Y-101603332D02*
X75273542Y-101650951D01*
X75273542Y-101650951D02*
X75083066Y-101698570D01*
X75083066Y-101698570D02*
X74844971Y-101698570D01*
X74844971Y-101698570D02*
X74654495Y-101650951D01*
X74654495Y-101650951D02*
X74559257Y-101603332D01*
X74559257Y-101603332D02*
X74511638Y-101555713D01*
X74511638Y-101555713D02*
X74464019Y-101460475D01*
X46200476Y-81070719D02*
X46200476Y-81785004D01*
X46200476Y-81785004D02*
X46152857Y-81927861D01*
X46152857Y-81927861D02*
X46057619Y-82023100D01*
X46057619Y-82023100D02*
X45914762Y-82070719D01*
X45914762Y-82070719D02*
X45819524Y-82070719D01*
X47200476Y-82070719D02*
X46629048Y-82070719D01*
X46914762Y-82070719D02*
X46914762Y-81070719D01*
X46914762Y-81070719D02*
X46819524Y-81213576D01*
X46819524Y-81213576D02*
X46724286Y-81308814D01*
X46724286Y-81308814D02*
X46629048Y-81356433D01*
X48152857Y-82070719D02*
X47581429Y-82070719D01*
X47867143Y-82070719D02*
X47867143Y-81070719D01*
X47867143Y-81070719D02*
X47771905Y-81213576D01*
X47771905Y-81213576D02*
X47676667Y-81308814D01*
X47676667Y-81308814D02*
X47581429Y-81356433D01*
X57369676Y-75954819D02*
X58036342Y-76954819D01*
X58036342Y-75954819D02*
X57369676Y-76954819D01*
X58941104Y-76954819D02*
X58369676Y-76954819D01*
X58655390Y-76954819D02*
X58655390Y-75954819D01*
X58655390Y-75954819D02*
X58560152Y-76097676D01*
X58560152Y-76097676D02*
X58464914Y-76192914D01*
X58464914Y-76192914D02*
X58369676Y-76240533D01*
X95220719Y-85124523D02*
X95935004Y-85124523D01*
X95935004Y-85124523D02*
X96077861Y-85172142D01*
X96077861Y-85172142D02*
X96173100Y-85267380D01*
X96173100Y-85267380D02*
X96220719Y-85410237D01*
X96220719Y-85410237D02*
X96220719Y-85505475D01*
X96220719Y-84124523D02*
X96220719Y-84695951D01*
X96220719Y-84410237D02*
X95220719Y-84410237D01*
X95220719Y-84410237D02*
X95363576Y-84505475D01*
X95363576Y-84505475D02*
X95458814Y-84600713D01*
X95458814Y-84600713D02*
X95506433Y-84695951D01*
X95220719Y-83219761D02*
X95220719Y-83695951D01*
X95220719Y-83695951D02*
X95696909Y-83743570D01*
X95696909Y-83743570D02*
X95649290Y-83695951D01*
X95649290Y-83695951D02*
X95601671Y-83600713D01*
X95601671Y-83600713D02*
X95601671Y-83362618D01*
X95601671Y-83362618D02*
X95649290Y-83267380D01*
X95649290Y-83267380D02*
X95696909Y-83219761D01*
X95696909Y-83219761D02*
X95792147Y-83172142D01*
X95792147Y-83172142D02*
X96030242Y-83172142D01*
X96030242Y-83172142D02*
X96125480Y-83219761D01*
X96125480Y-83219761D02*
X96173100Y-83267380D01*
X96173100Y-83267380D02*
X96220719Y-83362618D01*
X96220719Y-83362618D02*
X96220719Y-83600713D01*
X96220719Y-83600713D02*
X96173100Y-83695951D01*
X96173100Y-83695951D02*
X96125480Y-83743570D01*
X89638095Y-61454819D02*
X89638095Y-62264342D01*
X89638095Y-62264342D02*
X89685714Y-62359580D01*
X89685714Y-62359580D02*
X89733333Y-62407200D01*
X89733333Y-62407200D02*
X89828571Y-62454819D01*
X89828571Y-62454819D02*
X90019047Y-62454819D01*
X90019047Y-62454819D02*
X90114285Y-62407200D01*
X90114285Y-62407200D02*
X90161904Y-62359580D01*
X90161904Y-62359580D02*
X90209523Y-62264342D01*
X90209523Y-62264342D02*
X90209523Y-61454819D01*
X91161904Y-61454819D02*
X90685714Y-61454819D01*
X90685714Y-61454819D02*
X90638095Y-61931009D01*
X90638095Y-61931009D02*
X90685714Y-61883390D01*
X90685714Y-61883390D02*
X90780952Y-61835771D01*
X90780952Y-61835771D02*
X91019047Y-61835771D01*
X91019047Y-61835771D02*
X91114285Y-61883390D01*
X91114285Y-61883390D02*
X91161904Y-61931009D01*
X91161904Y-61931009D02*
X91209523Y-62026247D01*
X91209523Y-62026247D02*
X91209523Y-62264342D01*
X91209523Y-62264342D02*
X91161904Y-62359580D01*
X91161904Y-62359580D02*
X91114285Y-62407200D01*
X91114285Y-62407200D02*
X91019047Y-62454819D01*
X91019047Y-62454819D02*
X90780952Y-62454819D01*
X90780952Y-62454819D02*
X90685714Y-62407200D01*
X90685714Y-62407200D02*
X90638095Y-62359580D01*
X38638095Y-61454819D02*
X38638095Y-62264342D01*
X38638095Y-62264342D02*
X38685714Y-62359580D01*
X38685714Y-62359580D02*
X38733333Y-62407200D01*
X38733333Y-62407200D02*
X38828571Y-62454819D01*
X38828571Y-62454819D02*
X39019047Y-62454819D01*
X39019047Y-62454819D02*
X39114285Y-62407200D01*
X39114285Y-62407200D02*
X39161904Y-62359580D01*
X39161904Y-62359580D02*
X39209523Y-62264342D01*
X39209523Y-62264342D02*
X39209523Y-61454819D01*
X39590476Y-61454819D02*
X40257142Y-61454819D01*
X40257142Y-61454819D02*
X39828571Y-62454819D01*
X46200476Y-96329519D02*
X46200476Y-97043804D01*
X46200476Y-97043804D02*
X46152857Y-97186661D01*
X46152857Y-97186661D02*
X46057619Y-97281900D01*
X46057619Y-97281900D02*
X45914762Y-97329519D01*
X45914762Y-97329519D02*
X45819524Y-97329519D01*
X47200476Y-97329519D02*
X46629048Y-97329519D01*
X46914762Y-97329519D02*
X46914762Y-96329519D01*
X46914762Y-96329519D02*
X46819524Y-96472376D01*
X46819524Y-96472376D02*
X46724286Y-96567614D01*
X46724286Y-96567614D02*
X46629048Y-96615233D01*
X47533810Y-96329519D02*
X48152857Y-96329519D01*
X48152857Y-96329519D02*
X47819524Y-96710471D01*
X47819524Y-96710471D02*
X47962381Y-96710471D01*
X47962381Y-96710471D02*
X48057619Y-96758090D01*
X48057619Y-96758090D02*
X48105238Y-96805709D01*
X48105238Y-96805709D02*
X48152857Y-96900947D01*
X48152857Y-96900947D02*
X48152857Y-97139042D01*
X48152857Y-97139042D02*
X48105238Y-97234280D01*
X48105238Y-97234280D02*
X48057619Y-97281900D01*
X48057619Y-97281900D02*
X47962381Y-97329519D01*
X47962381Y-97329519D02*
X47676667Y-97329519D01*
X47676667Y-97329519D02*
X47581429Y-97281900D01*
X47581429Y-97281900D02*
X47533810Y-97234280D01*
D11*
X24076667Y-46804318D02*
X24076667Y-47711461D01*
X24076667Y-47711461D02*
X24016190Y-47892889D01*
X24016190Y-47892889D02*
X23895238Y-48013842D01*
X23895238Y-48013842D02*
X23713809Y-48074318D01*
X23713809Y-48074318D02*
X23592857Y-48074318D01*
X25286190Y-46804318D02*
X24681428Y-46804318D01*
X24681428Y-46804318D02*
X24620952Y-47409080D01*
X24620952Y-47409080D02*
X24681428Y-47348603D01*
X24681428Y-47348603D02*
X24802381Y-47288127D01*
X24802381Y-47288127D02*
X25104762Y-47288127D01*
X25104762Y-47288127D02*
X25225714Y-47348603D01*
X25225714Y-47348603D02*
X25286190Y-47409080D01*
X25286190Y-47409080D02*
X25346667Y-47530032D01*
X25346667Y-47530032D02*
X25346667Y-47832413D01*
X25346667Y-47832413D02*
X25286190Y-47953365D01*
X25286190Y-47953365D02*
X25225714Y-48013842D01*
X25225714Y-48013842D02*
X25104762Y-48074318D01*
X25104762Y-48074318D02*
X24802381Y-48074318D01*
X24802381Y-48074318D02*
X24681428Y-48013842D01*
X24681428Y-48013842D02*
X24620952Y-47953365D01*
D10*
X81288095Y-75164819D02*
X81288095Y-75974342D01*
X81288095Y-75974342D02*
X81335714Y-76069580D01*
X81335714Y-76069580D02*
X81383333Y-76117200D01*
X81383333Y-76117200D02*
X81478571Y-76164819D01*
X81478571Y-76164819D02*
X81669047Y-76164819D01*
X81669047Y-76164819D02*
X81764285Y-76117200D01*
X81764285Y-76117200D02*
X81811904Y-76069580D01*
X81811904Y-76069580D02*
X81859523Y-75974342D01*
X81859523Y-75974342D02*
X81859523Y-75164819D01*
X82478571Y-75593390D02*
X82383333Y-75545771D01*
X82383333Y-75545771D02*
X82335714Y-75498152D01*
X82335714Y-75498152D02*
X82288095Y-75402914D01*
X82288095Y-75402914D02*
X82288095Y-75355295D01*
X82288095Y-75355295D02*
X82335714Y-75260057D01*
X82335714Y-75260057D02*
X82383333Y-75212438D01*
X82383333Y-75212438D02*
X82478571Y-75164819D01*
X82478571Y-75164819D02*
X82669047Y-75164819D01*
X82669047Y-75164819D02*
X82764285Y-75212438D01*
X82764285Y-75212438D02*
X82811904Y-75260057D01*
X82811904Y-75260057D02*
X82859523Y-75355295D01*
X82859523Y-75355295D02*
X82859523Y-75402914D01*
X82859523Y-75402914D02*
X82811904Y-75498152D01*
X82811904Y-75498152D02*
X82764285Y-75545771D01*
X82764285Y-75545771D02*
X82669047Y-75593390D01*
X82669047Y-75593390D02*
X82478571Y-75593390D01*
X82478571Y-75593390D02*
X82383333Y-75641009D01*
X82383333Y-75641009D02*
X82335714Y-75688628D01*
X82335714Y-75688628D02*
X82288095Y-75783866D01*
X82288095Y-75783866D02*
X82288095Y-75974342D01*
X82288095Y-75974342D02*
X82335714Y-76069580D01*
X82335714Y-76069580D02*
X82383333Y-76117200D01*
X82383333Y-76117200D02*
X82478571Y-76164819D01*
X82478571Y-76164819D02*
X82669047Y-76164819D01*
X82669047Y-76164819D02*
X82764285Y-76117200D01*
X82764285Y-76117200D02*
X82811904Y-76069580D01*
X82811904Y-76069580D02*
X82859523Y-75974342D01*
X82859523Y-75974342D02*
X82859523Y-75783866D01*
X82859523Y-75783866D02*
X82811904Y-75688628D01*
X82811904Y-75688628D02*
X82764285Y-75641009D01*
X82764285Y-75641009D02*
X82669047Y-75593390D01*
X102850119Y-85124523D02*
X103564404Y-85124523D01*
X103564404Y-85124523D02*
X103707261Y-85172142D01*
X103707261Y-85172142D02*
X103802500Y-85267380D01*
X103802500Y-85267380D02*
X103850119Y-85410237D01*
X103850119Y-85410237D02*
X103850119Y-85505475D01*
X103850119Y-84124523D02*
X103850119Y-84695951D01*
X103850119Y-84410237D02*
X102850119Y-84410237D01*
X102850119Y-84410237D02*
X102992976Y-84505475D01*
X102992976Y-84505475D02*
X103088214Y-84600713D01*
X103088214Y-84600713D02*
X103135833Y-84695951D01*
X102850119Y-83267380D02*
X102850119Y-83457856D01*
X102850119Y-83457856D02*
X102897738Y-83553094D01*
X102897738Y-83553094D02*
X102945357Y-83600713D01*
X102945357Y-83600713D02*
X103088214Y-83695951D01*
X103088214Y-83695951D02*
X103278690Y-83743570D01*
X103278690Y-83743570D02*
X103659642Y-83743570D01*
X103659642Y-83743570D02*
X103754880Y-83695951D01*
X103754880Y-83695951D02*
X103802500Y-83648332D01*
X103802500Y-83648332D02*
X103850119Y-83553094D01*
X103850119Y-83553094D02*
X103850119Y-83362618D01*
X103850119Y-83362618D02*
X103802500Y-83267380D01*
X103802500Y-83267380D02*
X103754880Y-83219761D01*
X103754880Y-83219761D02*
X103659642Y-83172142D01*
X103659642Y-83172142D02*
X103421547Y-83172142D01*
X103421547Y-83172142D02*
X103326309Y-83219761D01*
X103326309Y-83219761D02*
X103278690Y-83267380D01*
X103278690Y-83267380D02*
X103231071Y-83362618D01*
X103231071Y-83362618D02*
X103231071Y-83553094D01*
X103231071Y-83553094D02*
X103278690Y-83648332D01*
X103278690Y-83648332D02*
X103326309Y-83695951D01*
X103326309Y-83695951D02*
X103421547Y-83743570D01*
X46200476Y-88700119D02*
X46200476Y-89414404D01*
X46200476Y-89414404D02*
X46152857Y-89557261D01*
X46152857Y-89557261D02*
X46057619Y-89652500D01*
X46057619Y-89652500D02*
X45914762Y-89700119D01*
X45914762Y-89700119D02*
X45819524Y-89700119D01*
X47200476Y-89700119D02*
X46629048Y-89700119D01*
X46914762Y-89700119D02*
X46914762Y-88700119D01*
X46914762Y-88700119D02*
X46819524Y-88842976D01*
X46819524Y-88842976D02*
X46724286Y-88938214D01*
X46724286Y-88938214D02*
X46629048Y-88985833D01*
X47581429Y-88795357D02*
X47629048Y-88747738D01*
X47629048Y-88747738D02*
X47724286Y-88700119D01*
X47724286Y-88700119D02*
X47962381Y-88700119D01*
X47962381Y-88700119D02*
X48057619Y-88747738D01*
X48057619Y-88747738D02*
X48105238Y-88795357D01*
X48105238Y-88795357D02*
X48152857Y-88890595D01*
X48152857Y-88890595D02*
X48152857Y-88985833D01*
X48152857Y-88985833D02*
X48105238Y-89128690D01*
X48105238Y-89128690D02*
X47533810Y-89700119D01*
X47533810Y-89700119D02*
X48152857Y-89700119D01*
D11*
X75076667Y-46804318D02*
X75076667Y-47711461D01*
X75076667Y-47711461D02*
X75016190Y-47892889D01*
X75016190Y-47892889D02*
X74895238Y-48013842D01*
X74895238Y-48013842D02*
X74713809Y-48074318D01*
X74713809Y-48074318D02*
X74592857Y-48074318D01*
X75560476Y-46804318D02*
X76346667Y-46804318D01*
X76346667Y-46804318D02*
X75923333Y-47288127D01*
X75923333Y-47288127D02*
X76104762Y-47288127D01*
X76104762Y-47288127D02*
X76225714Y-47348603D01*
X76225714Y-47348603D02*
X76286190Y-47409080D01*
X76286190Y-47409080D02*
X76346667Y-47530032D01*
X76346667Y-47530032D02*
X76346667Y-47832413D01*
X76346667Y-47832413D02*
X76286190Y-47953365D01*
X76286190Y-47953365D02*
X76225714Y-48013842D01*
X76225714Y-48013842D02*
X76104762Y-48074318D01*
X76104762Y-48074318D02*
X75741905Y-48074318D01*
X75741905Y-48074318D02*
X75620952Y-48013842D01*
X75620952Y-48013842D02*
X75560476Y-47953365D01*
D10*
X92238095Y-51704819D02*
X92238095Y-52514342D01*
X92238095Y-52514342D02*
X92285714Y-52609580D01*
X92285714Y-52609580D02*
X92333333Y-52657200D01*
X92333333Y-52657200D02*
X92428571Y-52704819D01*
X92428571Y-52704819D02*
X92619047Y-52704819D01*
X92619047Y-52704819D02*
X92714285Y-52657200D01*
X92714285Y-52657200D02*
X92761904Y-52609580D01*
X92761904Y-52609580D02*
X92809523Y-52514342D01*
X92809523Y-52514342D02*
X92809523Y-51704819D01*
X93714285Y-52038152D02*
X93714285Y-52704819D01*
X93476190Y-51657200D02*
X93238095Y-52371485D01*
X93238095Y-52371485D02*
X93857142Y-52371485D01*
X33778095Y-70594819D02*
X33778095Y-71404342D01*
X33778095Y-71404342D02*
X33825714Y-71499580D01*
X33825714Y-71499580D02*
X33873333Y-71547200D01*
X33873333Y-71547200D02*
X33968571Y-71594819D01*
X33968571Y-71594819D02*
X34159047Y-71594819D01*
X34159047Y-71594819D02*
X34254285Y-71547200D01*
X34254285Y-71547200D02*
X34301904Y-71499580D01*
X34301904Y-71499580D02*
X34349523Y-71404342D01*
X34349523Y-71404342D02*
X34349523Y-70594819D01*
X34873333Y-71594819D02*
X35063809Y-71594819D01*
X35063809Y-71594819D02*
X35159047Y-71547200D01*
X35159047Y-71547200D02*
X35206666Y-71499580D01*
X35206666Y-71499580D02*
X35301904Y-71356723D01*
X35301904Y-71356723D02*
X35349523Y-71166247D01*
X35349523Y-71166247D02*
X35349523Y-70785295D01*
X35349523Y-70785295D02*
X35301904Y-70690057D01*
X35301904Y-70690057D02*
X35254285Y-70642438D01*
X35254285Y-70642438D02*
X35159047Y-70594819D01*
X35159047Y-70594819D02*
X34968571Y-70594819D01*
X34968571Y-70594819D02*
X34873333Y-70642438D01*
X34873333Y-70642438D02*
X34825714Y-70690057D01*
X34825714Y-70690057D02*
X34778095Y-70785295D01*
X34778095Y-70785295D02*
X34778095Y-71023390D01*
X34778095Y-71023390D02*
X34825714Y-71118628D01*
X34825714Y-71118628D02*
X34873333Y-71166247D01*
X34873333Y-71166247D02*
X34968571Y-71213866D01*
X34968571Y-71213866D02*
X35159047Y-71213866D01*
X35159047Y-71213866D02*
X35254285Y-71166247D01*
X35254285Y-71166247D02*
X35301904Y-71118628D01*
X35301904Y-71118628D02*
X35349523Y-71023390D01*
X28058401Y-65454819D02*
X28058401Y-65692914D01*
X27820306Y-65597676D02*
X28058401Y-65692914D01*
X28058401Y-65692914D02*
X28296496Y-65597676D01*
X27915544Y-65883390D02*
X28058401Y-65692914D01*
X28058401Y-65692914D02*
X28201258Y-65883390D01*
D11*
X107076667Y-94554318D02*
X107076667Y-95461461D01*
X107076667Y-95461461D02*
X107016190Y-95642889D01*
X107016190Y-95642889D02*
X106895238Y-95763842D01*
X106895238Y-95763842D02*
X106713809Y-95824318D01*
X106713809Y-95824318D02*
X106592857Y-95824318D01*
X108346667Y-95824318D02*
X107620952Y-95824318D01*
X107983809Y-95824318D02*
X107983809Y-94554318D01*
X107983809Y-94554318D02*
X107862857Y-94735746D01*
X107862857Y-94735746D02*
X107741905Y-94856699D01*
X107741905Y-94856699D02*
X107620952Y-94917175D01*
X98076667Y-46804318D02*
X98076667Y-47711461D01*
X98076667Y-47711461D02*
X98016190Y-47892889D01*
X98016190Y-47892889D02*
X97895238Y-48013842D01*
X97895238Y-48013842D02*
X97713809Y-48074318D01*
X97713809Y-48074318D02*
X97592857Y-48074318D01*
X98620952Y-46925270D02*
X98681428Y-46864794D01*
X98681428Y-46864794D02*
X98802381Y-46804318D01*
X98802381Y-46804318D02*
X99104762Y-46804318D01*
X99104762Y-46804318D02*
X99225714Y-46864794D01*
X99225714Y-46864794D02*
X99286190Y-46925270D01*
X99286190Y-46925270D02*
X99346667Y-47046222D01*
X99346667Y-47046222D02*
X99346667Y-47167175D01*
X99346667Y-47167175D02*
X99286190Y-47348603D01*
X99286190Y-47348603D02*
X98560476Y-48074318D01*
X98560476Y-48074318D02*
X99346667Y-48074318D01*
D12*
%TO.C,C58*%
X105210000Y-94859420D02*
X105210000Y-95140580D01*
X104190000Y-94859420D02*
X104190000Y-95140580D01*
%TO.C,C57*%
X97710000Y-94859420D02*
X97710000Y-95140580D01*
X96690000Y-94859420D02*
X96690000Y-95140580D01*
%TO.C,C56*%
X90210000Y-94859420D02*
X90210000Y-95140580D01*
X89190000Y-94859420D02*
X89190000Y-95140580D01*
%TO.C,D2*%
X93015000Y-90265000D02*
X93015000Y-92550000D01*
X94485000Y-90265000D02*
X93015000Y-90265000D01*
X94485000Y-92550000D02*
X94485000Y-90265000D01*
%TO.C,C6*%
X94359420Y-96990000D02*
X94640580Y-96990000D01*
X94359420Y-98010000D02*
X94640580Y-98010000D01*
%TO.C,C21*%
X83340000Y-50461252D02*
X83340000Y-49038748D01*
X85160000Y-50461252D02*
X85160000Y-49038748D01*
%TO.C,C31*%
X68115580Y-77615000D02*
X67834420Y-77615000D01*
X68115580Y-78635000D02*
X67834420Y-78635000D01*
%TO.C,D1*%
X85515000Y-90265000D02*
X85515000Y-92550000D01*
X86985000Y-90265000D02*
X85515000Y-90265000D01*
X86985000Y-92550000D02*
X86985000Y-90265000D01*
%TO.C,FB3*%
X102490000Y-95140580D02*
X102490000Y-94859420D01*
X103510000Y-95140580D02*
X103510000Y-94859420D01*
%TO.C,C17*%
X85290580Y-55940000D02*
X85009420Y-55940000D01*
X85290580Y-56960000D02*
X85009420Y-56960000D01*
D13*
%TO.C,U3*%
X98818900Y-99988252D02*
X98818900Y-101011748D01*
X101181100Y-101011748D02*
X101181100Y-99988252D01*
X99351600Y-102404899D02*
G75*
G02*
X99148400Y-102404899I-101600J0D01*
G01*
X99148400Y-102404899D02*
G75*
G02*
X99351600Y-102404899I101600J0D01*
G01*
D12*
%TO.C,C32*%
X80240000Y-78109420D02*
X80240000Y-78390580D01*
X81260000Y-78109420D02*
X81260000Y-78390580D01*
%TO.C,C52*%
X22240000Y-69640580D02*
X22240000Y-69359420D01*
X23260000Y-69640580D02*
X23260000Y-69359420D01*
%TO.C,C24*%
X97390000Y-59090580D02*
X97390000Y-58809420D01*
X98410000Y-59090580D02*
X98410000Y-58809420D01*
%TO.C,C49*%
X27740000Y-62565580D02*
X27740000Y-62284420D01*
X28760000Y-62565580D02*
X28760000Y-62284420D01*
%TO.C,FB1*%
X87490000Y-95140580D02*
X87490000Y-94859420D01*
X88510000Y-95140580D02*
X88510000Y-94859420D01*
D14*
%TO.C,J6*%
X23450000Y-84450000D02*
X39150000Y-84450000D01*
X23450000Y-90100000D02*
X23450000Y-84450000D01*
X23450000Y-94100000D02*
X23450000Y-105950000D01*
X23450000Y-105950000D02*
X39150000Y-105950000D01*
X39150000Y-84450000D02*
X39150000Y-90100000D01*
X39150000Y-105950000D02*
X39150000Y-94100000D01*
D15*
X40115000Y-88750000D02*
X40115000Y-88750000D01*
X40215000Y-88750000D02*
X40215000Y-88750000D01*
X40115000Y-88750000D02*
G75*
G02*
X40215000Y-88750000I50000J0D01*
G01*
X40215000Y-88750000D02*
G75*
G02*
X40115000Y-88750000I-50000J0D01*
G01*
D12*
%TO.C,R4*%
X91477500Y-96987258D02*
X91477500Y-96512742D01*
X92522500Y-96987258D02*
X92522500Y-96512742D01*
%TO.C,C33*%
X84359420Y-60490000D02*
X84640580Y-60490000D01*
X84359420Y-61510000D02*
X84640580Y-61510000D01*
%TO.C,R3*%
X85727500Y-95237258D02*
X85727500Y-94762742D01*
X86772500Y-95237258D02*
X86772500Y-94762742D01*
%TO.C,C30*%
X63140580Y-69990000D02*
X62859420Y-69990000D01*
X63140580Y-71010000D02*
X62859420Y-71010000D01*
%TO.C,R11*%
X114012742Y-93727500D02*
X114487258Y-93727500D01*
X114012742Y-94772500D02*
X114487258Y-94772500D01*
D13*
%TO.C,J14*%
X89150300Y-65284000D02*
X89150300Y-86366000D01*
X89150300Y-86366000D02*
X94357300Y-86366000D01*
X94357300Y-65284000D02*
X89150300Y-65284000D01*
X94357300Y-86366000D02*
X94357300Y-65284000D01*
D16*
X95322500Y-66935000D02*
G75*
G02*
X94560500Y-66935000I-381000J0D01*
G01*
X94560500Y-66935000D02*
G75*
G02*
X95322500Y-66935000I381000J0D01*
G01*
D12*
%TO.C,C10*%
X114109420Y-91990000D02*
X114390580Y-91990000D01*
X114109420Y-93010000D02*
X114390580Y-93010000D01*
D13*
%TO.C,U2*%
X91318900Y-99988252D02*
X91318900Y-101011748D01*
X93681100Y-101011748D02*
X93681100Y-99988252D01*
X91851600Y-102404899D02*
G75*
G02*
X91648400Y-102404899I-101600J0D01*
G01*
X91648400Y-102404899D02*
G75*
G02*
X91851600Y-102404899I101600J0D01*
G01*
D12*
%TO.C,R22*%
X58727500Y-67012742D02*
X58727500Y-67487258D01*
X59772500Y-67012742D02*
X59772500Y-67487258D01*
D13*
%TO.C,J20*%
X102449000Y-87909200D02*
X102449000Y-93116200D01*
X102449000Y-93116200D02*
X105751000Y-93116200D01*
X105751000Y-87909200D02*
X102449000Y-87909200D01*
X105751000Y-93116200D02*
X105751000Y-87909200D01*
D16*
X104481000Y-87325000D02*
G75*
G02*
X103719000Y-87325000I-381000J0D01*
G01*
X103719000Y-87325000D02*
G75*
G02*
X104481000Y-87325000I381000J0D01*
G01*
D12*
%TO.C,C23*%
X32340000Y-50461252D02*
X32340000Y-49038748D01*
X34160000Y-50461252D02*
X34160000Y-49038748D01*
%TO.C,C38*%
X63740000Y-77234420D02*
X63740000Y-77515580D01*
X64760000Y-77234420D02*
X64760000Y-77515580D01*
D13*
%TO.C,U1*%
X83818900Y-99988252D02*
X83818900Y-101011748D01*
X86181100Y-101011748D02*
X86181100Y-99988252D01*
X84351600Y-102404899D02*
G75*
G02*
X84148400Y-102404899I-101600J0D01*
G01*
X84148400Y-102404899D02*
G75*
G02*
X84351600Y-102404899I101600J0D01*
G01*
%TO.C,J17*%
X112038500Y-65284000D02*
X112038500Y-86366000D01*
X112038500Y-86366000D02*
X117245500Y-86366000D01*
X117245500Y-65284000D02*
X112038500Y-65284000D01*
X117245500Y-86366000D02*
X117245500Y-65284000D01*
D16*
X118210700Y-66935000D02*
G75*
G02*
X117448700Y-66935000I-381000J0D01*
G01*
X117448700Y-66935000D02*
G75*
G02*
X118210700Y-66935000I381000J0D01*
G01*
D15*
%TO.C,J4*%
X45250000Y-25400000D02*
X45250000Y-25400000D01*
X45350000Y-25400000D02*
X45350000Y-25400000D01*
D14*
X46000000Y-21200000D02*
X66000000Y-21200000D01*
X46000000Y-46000000D02*
X46000000Y-21200000D01*
X50445000Y-12800000D02*
X61555000Y-12800000D01*
X50445000Y-21200000D02*
X50445000Y-12800000D01*
X61555000Y-12800000D02*
X61555000Y-21200000D01*
X61555000Y-21200000D02*
X50445000Y-21200000D01*
X66000000Y-21200000D02*
X66000000Y-46000000D01*
X66000000Y-46000000D02*
X46000000Y-46000000D01*
D15*
X45250000Y-25400000D02*
G75*
G02*
X45350000Y-25400000I50000J0D01*
G01*
X45350000Y-25400000D02*
G75*
G02*
X45250000Y-25400000I-50000J0D01*
G01*
D13*
%TO.C,J8*%
X47899000Y-54053000D02*
X47899000Y-56720000D01*
X47899000Y-56720000D02*
X63901000Y-56720000D01*
X63901000Y-54053000D02*
X47899000Y-54053000D01*
X63901000Y-56720000D02*
X63901000Y-54053000D01*
D16*
X49931000Y-57355000D02*
G75*
G02*
X49169000Y-57355000I-381000J0D01*
G01*
X49169000Y-57355000D02*
G75*
G02*
X49931000Y-57355000I381000J0D01*
G01*
D12*
%TO.C,C51*%
X22240000Y-66359420D02*
X22240000Y-66640580D01*
X23260000Y-66359420D02*
X23260000Y-66640580D01*
%TO.C,C16*%
X85290580Y-54190000D02*
X85009420Y-54190000D01*
X85290580Y-55210000D02*
X85009420Y-55210000D01*
%TO.C,C14*%
X46390000Y-58809420D02*
X46390000Y-59090580D01*
X47410000Y-58809420D02*
X47410000Y-59090580D01*
%TO.C,R7*%
X98977500Y-96987258D02*
X98977500Y-96512742D01*
X100022500Y-96987258D02*
X100022500Y-96512742D01*
%TO.C,C50*%
X33240000Y-62590580D02*
X33240000Y-62309420D01*
X34260000Y-62590580D02*
X34260000Y-62309420D01*
%TO.C,C35*%
X68740000Y-56890580D02*
X68740000Y-56609420D01*
X69760000Y-56890580D02*
X69760000Y-56609420D01*
%TO.C,R12*%
X110487258Y-90227500D02*
X110012742Y-90227500D01*
X110487258Y-91272500D02*
X110012742Y-91272500D01*
%TO.C,R10*%
X110487258Y-93727500D02*
X110012742Y-93727500D01*
X110487258Y-94772500D02*
X110012742Y-94772500D01*
%TO.C,C40*%
X60240000Y-67109420D02*
X60240000Y-67390580D01*
X61260000Y-67109420D02*
X61260000Y-67390580D01*
%TO.C,C42*%
X55240000Y-74140580D02*
X55240000Y-73859420D01*
X56260000Y-74140580D02*
X56260000Y-73859420D01*
%TO.C,C15*%
X34009420Y-57690000D02*
X34290580Y-57690000D01*
X34009420Y-58710000D02*
X34290580Y-58710000D01*
%TO.C,C54*%
X27290000Y-81559420D02*
X27290000Y-81840580D01*
X28310000Y-81559420D02*
X28310000Y-81840580D01*
%TO.C,R17*%
X53012742Y-47977500D02*
X53487258Y-47977500D01*
X53012742Y-49022500D02*
X53487258Y-49022500D01*
D13*
%TO.C,X2*%
X23921200Y-65269500D02*
X23921200Y-70730500D01*
X23921200Y-70730500D02*
X24312360Y-70730500D01*
X24312360Y-65269500D02*
X23921200Y-65269500D01*
X27187640Y-70730500D02*
X27578800Y-70730500D01*
X27578800Y-65269500D02*
X27187640Y-65269500D01*
X27578800Y-70730500D02*
X27578800Y-65269500D01*
X25826200Y-64126500D02*
G75*
G02*
X25673800Y-64126500I-76200J0D01*
G01*
X25673800Y-64126500D02*
G75*
G02*
X25826200Y-64126500I76200J0D01*
G01*
D12*
%TO.C,C34*%
X67240000Y-56890580D02*
X67240000Y-56609420D01*
X68260000Y-56890580D02*
X68260000Y-56609420D01*
%TO.C,R25*%
X37477500Y-81937258D02*
X37477500Y-81462742D01*
X38522500Y-81937258D02*
X38522500Y-81462742D01*
%TO.C,R8*%
X98977500Y-93737258D02*
X98977500Y-93262742D01*
X100022500Y-93737258D02*
X100022500Y-93262742D01*
%TO.C,C53*%
X63140580Y-71490000D02*
X62859420Y-71490000D01*
X63140580Y-72510000D02*
X62859420Y-72510000D01*
%TO.C,R23*%
X70227500Y-56512742D02*
X70227500Y-56987258D01*
X71272500Y-56512742D02*
X71272500Y-56987258D01*
%TO.C,R15*%
X104487258Y-49727500D02*
X104012742Y-49727500D01*
X104487258Y-50772500D02*
X104012742Y-50772500D01*
D13*
%TO.C,J18*%
X87429000Y-87909200D02*
X87429000Y-93116200D01*
X87429000Y-93116200D02*
X90731000Y-93116200D01*
X90731000Y-87909200D02*
X87429000Y-87909200D01*
X90731000Y-93116200D02*
X90731000Y-87909200D01*
D16*
X89461000Y-87325000D02*
G75*
G02*
X88699000Y-87325000I-381000J0D01*
G01*
X88699000Y-87325000D02*
G75*
G02*
X89461000Y-87325000I381000J0D01*
G01*
D12*
%TO.C,C22*%
X49340000Y-50461252D02*
X49340000Y-49038748D01*
X51160000Y-50461252D02*
X51160000Y-49038748D01*
D13*
%TO.C,U6*%
X40323001Y-47823001D02*
X40323001Y-48277259D01*
X40323001Y-50722741D02*
X40323001Y-51176999D01*
X40323001Y-51176999D02*
X43676999Y-51176999D01*
X43676999Y-47823001D02*
X40323001Y-47823001D01*
X43676999Y-48277259D02*
X43676999Y-47823001D01*
X43676999Y-51176999D02*
X43676999Y-50722741D01*
X39400333Y-48750000D02*
G75*
G02*
X39146333Y-48750000I-127000J0D01*
G01*
X39146333Y-48750000D02*
G75*
G02*
X39400333Y-48750000I127000J0D01*
G01*
%TO.C,J7*%
X98899000Y-54053000D02*
X98899000Y-56720000D01*
X98899000Y-56720000D02*
X114901000Y-56720000D01*
X114901000Y-54053000D02*
X98899000Y-54053000D01*
X114901000Y-56720000D02*
X114901000Y-54053000D01*
D16*
X100931000Y-57355000D02*
G75*
G02*
X100169000Y-57355000I-381000J0D01*
G01*
X100169000Y-57355000D02*
G75*
G02*
X100931000Y-57355000I381000J0D01*
G01*
D12*
%TO.C,C3*%
X86859420Y-96990000D02*
X87140580Y-96990000D01*
X86859420Y-98010000D02*
X87140580Y-98010000D01*
%TO.C,R20*%
X30012742Y-49727500D02*
X30487258Y-49727500D01*
X30012742Y-50772500D02*
X30487258Y-50772500D01*
%TO.C,C9*%
X101859420Y-96990000D02*
X102140580Y-96990000D01*
X101859420Y-98010000D02*
X102140580Y-98010000D01*
%TO.C,R24*%
X24077500Y-81937258D02*
X24077500Y-81462742D01*
X25122500Y-81937258D02*
X25122500Y-81462742D01*
%TO.C,R13*%
X104012742Y-47977500D02*
X104487258Y-47977500D01*
X104012742Y-49022500D02*
X104487258Y-49022500D01*
D13*
%TO.C,J9*%
X69519000Y-87499000D02*
X69519000Y-103501000D01*
X69519000Y-103501000D02*
X72186000Y-103501000D01*
X72186000Y-87499000D02*
X69519000Y-87499000D01*
X72186000Y-103501000D02*
X72186000Y-87499000D01*
D16*
X73202000Y-101850000D02*
G75*
G02*
X72440000Y-101850000I-381000J0D01*
G01*
X72440000Y-101850000D02*
G75*
G02*
X73202000Y-101850000I381000J0D01*
G01*
D12*
%TO.C,C19*%
X26340000Y-49038748D02*
X26340000Y-50461252D01*
X28160000Y-49038748D02*
X28160000Y-50461252D01*
D13*
%TO.C,J10*%
X75853000Y-87499000D02*
X75853000Y-103501000D01*
X75853000Y-103501000D02*
X78520000Y-103501000D01*
X78520000Y-87499000D02*
X75853000Y-87499000D01*
X78520000Y-103501000D02*
X78520000Y-87499000D01*
D16*
X79536000Y-101850000D02*
G75*
G02*
X78774000Y-101850000I-381000J0D01*
G01*
X78774000Y-101850000D02*
G75*
G02*
X79536000Y-101850000I381000J0D01*
G01*
D13*
%TO.C,J11*%
X44959000Y-82629700D02*
X44959000Y-87836700D01*
X44959000Y-87836700D02*
X66041000Y-87836700D01*
X66041000Y-82629700D02*
X44959000Y-82629700D01*
X66041000Y-87836700D02*
X66041000Y-82629700D01*
D16*
X64771000Y-88420900D02*
G75*
G02*
X64009000Y-88420900I-381000J0D01*
G01*
X64009000Y-88420900D02*
G75*
G02*
X64771000Y-88420900I381000J0D01*
G01*
D12*
%TO.C,R6*%
X93227500Y-95237258D02*
X93227500Y-94762742D01*
X94272500Y-95237258D02*
X94272500Y-94762742D01*
%TO.C,C2*%
X81990000Y-99141480D02*
X81990000Y-98860320D01*
X83010000Y-99141480D02*
X83010000Y-98860320D01*
%TO.C,C46*%
X28490000Y-72390580D02*
X28490000Y-72109420D01*
X29510000Y-72390580D02*
X29510000Y-72109420D01*
D13*
%TO.C,J19*%
X94949000Y-87909200D02*
X94949000Y-93116200D01*
X94949000Y-93116200D02*
X98251000Y-93116200D01*
X98251000Y-87909200D02*
X94949000Y-87909200D01*
X98251000Y-93116200D02*
X98251000Y-87909200D01*
D16*
X96981000Y-87325000D02*
G75*
G02*
X96219000Y-87325000I-381000J0D01*
G01*
X96219000Y-87325000D02*
G75*
G02*
X96981000Y-87325000I381000J0D01*
G01*
D12*
%TO.C,R21*%
X63262742Y-74602500D02*
X63737258Y-74602500D01*
X63262742Y-75647500D02*
X63737258Y-75647500D01*
%TO.C,C1*%
X83859420Y-102990900D02*
X84140580Y-102990900D01*
X83859420Y-104010900D02*
X84140580Y-104010900D01*
%TO.C,C47*%
X31490000Y-72109420D02*
X31490000Y-72390580D01*
X32510000Y-72109420D02*
X32510000Y-72390580D01*
D13*
%TO.C,X1*%
X56921200Y-69769500D02*
X56921200Y-75230500D01*
X56921200Y-75230500D02*
X57312360Y-75230500D01*
X57312360Y-69769500D02*
X56921200Y-69769500D01*
X60187640Y-75230500D02*
X60578800Y-75230500D01*
X60578800Y-69769500D02*
X60187640Y-69769500D01*
X60578800Y-75230500D02*
X60578800Y-69769500D01*
X58826200Y-68626500D02*
G75*
G02*
X58673800Y-68626500I-76200J0D01*
G01*
X58673800Y-68626500D02*
G75*
G02*
X58826200Y-68626500I76200J0D01*
G01*
D12*
%TO.C,R29*%
X30877500Y-81937258D02*
X30877500Y-81462742D01*
X31922500Y-81937258D02*
X31922500Y-81462742D01*
%TO.C,C26*%
X85009420Y-57690000D02*
X85290580Y-57690000D01*
X85009420Y-58710000D02*
X85290580Y-58710000D01*
%TO.C,C5*%
X89490000Y-99140580D02*
X89490000Y-98859420D01*
X90510000Y-99140580D02*
X90510000Y-98859420D01*
%TO.C,R14*%
X81487258Y-47977500D02*
X81012742Y-47977500D01*
X81487258Y-49022500D02*
X81012742Y-49022500D01*
%TO.C,C43*%
X78740000Y-78109420D02*
X78740000Y-78390580D01*
X79760000Y-78109420D02*
X79760000Y-78390580D01*
%TO.C,C25*%
X34290580Y-54190000D02*
X34009420Y-54190000D01*
X34290580Y-55210000D02*
X34009420Y-55210000D01*
%TO.C,R18*%
X30487258Y-47977500D02*
X30012742Y-47977500D01*
X30487258Y-49022500D02*
X30012742Y-49022500D01*
%TO.C,C12*%
X106340000Y-49038748D02*
X106340000Y-50461252D01*
X108160000Y-49038748D02*
X108160000Y-50461252D01*
%TO.C,C13*%
X77340000Y-49038748D02*
X77340000Y-50461252D01*
X79160000Y-49038748D02*
X79160000Y-50461252D01*
D13*
%TO.C,J15*%
X96779700Y-65284000D02*
X96779700Y-86366000D01*
X96779700Y-86366000D02*
X101986700Y-86366000D01*
X101986700Y-65284000D02*
X96779700Y-65284000D01*
X101986700Y-86366000D02*
X101986700Y-65284000D01*
D16*
X102951900Y-66935000D02*
G75*
G02*
X102189900Y-66935000I-381000J0D01*
G01*
X102189900Y-66935000D02*
G75*
G02*
X102951900Y-66935000I381000J0D01*
G01*
D10*
%TO.C,U5*%
X89100001Y-53450000D02*
X94699999Y-53450000D01*
X89100001Y-53675001D02*
X89100001Y-53450000D01*
X89100001Y-60950000D02*
X89100001Y-60724999D01*
X89100001Y-60950000D02*
X94699999Y-60950000D01*
X94699999Y-53675001D02*
X94699999Y-53450000D01*
X94699999Y-60950000D02*
X94699999Y-60724999D01*
D17*
X87000002Y-54275000D02*
G75*
G02*
X86750000Y-54275000I-125001J0D01*
G01*
X86750000Y-54275000D02*
G75*
G02*
X87000002Y-54275000I125001J0D01*
G01*
D10*
%TO.C,U7*%
X38100001Y-53450000D02*
X43699999Y-53450000D01*
X38100001Y-53675001D02*
X38100001Y-53450000D01*
X38100001Y-60950000D02*
X38100001Y-60724999D01*
X38100001Y-60950000D02*
X43699999Y-60950000D01*
X43699999Y-53675001D02*
X43699999Y-53450000D01*
X43699999Y-60950000D02*
X43699999Y-60724999D01*
D17*
X36000002Y-54275000D02*
G75*
G02*
X35750000Y-54275000I-125001J0D01*
G01*
X35750000Y-54275000D02*
G75*
G02*
X36000002Y-54275000I125001J0D01*
G01*
D12*
%TO.C,C55*%
X28790000Y-81559420D02*
X28790000Y-81840580D01*
X29810000Y-81559420D02*
X29810000Y-81840580D01*
%TO.C,C41*%
X55240000Y-70859420D02*
X55240000Y-71140580D01*
X56260000Y-70859420D02*
X56260000Y-71140580D01*
D13*
%TO.C,J13*%
X44959000Y-97888500D02*
X44959000Y-103095500D01*
X44959000Y-103095500D02*
X66041000Y-103095500D01*
X66041000Y-97888500D02*
X44959000Y-97888500D01*
X66041000Y-103095500D02*
X66041000Y-97888500D01*
D16*
X64771000Y-103679700D02*
G75*
G02*
X64009000Y-103679700I-381000J0D01*
G01*
X64009000Y-103679700D02*
G75*
G02*
X64771000Y-103679700I381000J0D01*
G01*
D12*
%TO.C,R26*%
X29227500Y-62187742D02*
X29227500Y-62662258D01*
X30272500Y-62187742D02*
X30272500Y-62662258D01*
%TO.C,FB4*%
X112240000Y-90140580D02*
X112240000Y-89859420D01*
X113260000Y-90140580D02*
X113260000Y-89859420D01*
%TO.C,C4*%
X91359420Y-102990000D02*
X91640580Y-102990000D01*
X91359420Y-104010000D02*
X91640580Y-104010000D01*
%TO.C,R1*%
X83977500Y-96987258D02*
X83977500Y-96512742D01*
X85022500Y-96987258D02*
X85022500Y-96512742D01*
D15*
%TO.C,J5*%
X22150000Y-25400000D02*
X22150000Y-25400000D01*
X22250000Y-25400000D02*
X22250000Y-25400000D01*
D14*
X22900000Y-21200000D02*
X42900000Y-21200000D01*
X22900000Y-46000000D02*
X22900000Y-21200000D01*
X27345000Y-12800000D02*
X38455000Y-12800000D01*
X27345000Y-21200000D02*
X27345000Y-12800000D01*
X38455000Y-12800000D02*
X38455000Y-21200000D01*
X38455000Y-21200000D02*
X27345000Y-21200000D01*
X42900000Y-21200000D02*
X42900000Y-46000000D01*
X42900000Y-46000000D02*
X22900000Y-46000000D01*
D15*
X22150000Y-25400000D02*
G75*
G02*
X22250000Y-25400000I50000J0D01*
G01*
X22250000Y-25400000D02*
G75*
G02*
X22150000Y-25400000I-50000J0D01*
G01*
D12*
%TO.C,U8*%
X66640000Y-60390000D02*
X67340000Y-60390000D01*
X66640000Y-61090000D02*
X66640000Y-60390000D01*
X66640000Y-74610000D02*
X66640000Y-73910000D01*
X67340000Y-74610000D02*
X66640000Y-74610000D01*
X80160000Y-60390000D02*
X80860000Y-60390000D01*
X80860000Y-60390000D02*
X80860000Y-61090000D01*
X80860000Y-73910000D02*
X80860000Y-74610000D01*
X80860000Y-74610000D02*
X80160000Y-74610000D01*
X66000000Y-61090000D02*
X65660000Y-60620000D01*
X66340000Y-60620000D01*
X66000000Y-61090000D01*
G36*
X66000000Y-61090000D02*
G01*
X65660000Y-60620000D01*
X66340000Y-60620000D01*
X66000000Y-61090000D01*
G37*
%TO.C,C7*%
X98859420Y-102990000D02*
X99140580Y-102990000D01*
X98859420Y-104010000D02*
X99140580Y-104010000D01*
%TO.C,C45*%
X29990000Y-72390580D02*
X29990000Y-72109420D01*
X31010000Y-72390580D02*
X31010000Y-72109420D01*
D13*
%TO.C,J16*%
X104409100Y-65284000D02*
X104409100Y-86366000D01*
X104409100Y-86366000D02*
X109616100Y-86366000D01*
X109616100Y-65284000D02*
X104409100Y-65284000D01*
X109616100Y-86366000D02*
X109616100Y-65284000D01*
D16*
X110581300Y-66935000D02*
G75*
G02*
X109819300Y-66935000I-381000J0D01*
G01*
X109819300Y-66935000D02*
G75*
G02*
X110581300Y-66935000I381000J0D01*
G01*
D12*
%TO.C,R16*%
X81012742Y-49727500D02*
X81487258Y-49727500D01*
X81012742Y-50772500D02*
X81487258Y-50772500D01*
%TO.C,C48*%
X31740000Y-62590580D02*
X31740000Y-62309420D01*
X32760000Y-62590580D02*
X32760000Y-62309420D01*
%TO.C,C27*%
X34290580Y-55940000D02*
X34009420Y-55940000D01*
X34290580Y-56960000D02*
X34009420Y-56960000D01*
%TO.C,C11*%
X110390580Y-91990000D02*
X110109420Y-91990000D01*
X110390580Y-93010000D02*
X110109420Y-93010000D01*
D13*
%TO.C,J12*%
X44959000Y-90259100D02*
X44959000Y-95466100D01*
X44959000Y-95466100D02*
X66041000Y-95466100D01*
X66041000Y-90259100D02*
X44959000Y-90259100D01*
X66041000Y-95466100D02*
X66041000Y-90259100D01*
D16*
X64771000Y-96050300D02*
G75*
G02*
X64009000Y-96050300I-381000J0D01*
G01*
X64009000Y-96050300D02*
G75*
G02*
X64771000Y-96050300I381000J0D01*
G01*
D12*
%TO.C,R30*%
X32377500Y-81937258D02*
X32377500Y-81462742D01*
X33422500Y-81937258D02*
X33422500Y-81462742D01*
%TO.C,C36*%
X60740000Y-77515580D02*
X60740000Y-77234420D01*
X61760000Y-77515580D02*
X61760000Y-77234420D01*
D15*
%TO.C,J3*%
X73150000Y-25400000D02*
X73150000Y-25400000D01*
X73250000Y-25400000D02*
X73250000Y-25400000D01*
D14*
X73900000Y-21200000D02*
X93900000Y-21200000D01*
X73900000Y-46000000D02*
X73900000Y-21200000D01*
X78345000Y-12800000D02*
X89455000Y-12800000D01*
X78345000Y-21200000D02*
X78345000Y-12800000D01*
X89455000Y-12800000D02*
X89455000Y-21200000D01*
X89455000Y-21200000D02*
X78345000Y-21200000D01*
X93900000Y-21200000D02*
X93900000Y-46000000D01*
X93900000Y-46000000D02*
X73900000Y-46000000D01*
D15*
X73150000Y-25400000D02*
G75*
G02*
X73250000Y-25400000I50000J0D01*
G01*
X73250000Y-25400000D02*
G75*
G02*
X73150000Y-25400000I-50000J0D01*
G01*
D13*
%TO.C,U4*%
X91323001Y-47823001D02*
X91323001Y-48277259D01*
X91323001Y-50722741D02*
X91323001Y-51176999D01*
X91323001Y-51176999D02*
X94676999Y-51176999D01*
X94676999Y-47823001D02*
X91323001Y-47823001D01*
X94676999Y-48277259D02*
X94676999Y-47823001D01*
X94676999Y-51176999D02*
X94676999Y-50722741D01*
X90400333Y-48750000D02*
G75*
G02*
X90146333Y-48750000I-127000J0D01*
G01*
X90146333Y-48750000D02*
G75*
G02*
X90400333Y-48750000I127000J0D01*
G01*
D12*
%TO.C,D4*%
X107015000Y-90700000D02*
X107015000Y-92985000D01*
X107015000Y-92985000D02*
X108485000Y-92985000D01*
X108485000Y-92985000D02*
X108485000Y-90700000D01*
%TO.C,R31*%
X35512742Y-67227500D02*
X35987258Y-67227500D01*
X35512742Y-68272500D02*
X35987258Y-68272500D01*
%TO.C,FB2*%
X94990000Y-95140580D02*
X94990000Y-94859420D01*
X96010000Y-95140580D02*
X96010000Y-94859420D01*
%TO.C,C29*%
X63140580Y-65990000D02*
X62859420Y-65990000D01*
X63140580Y-67010000D02*
X62859420Y-67010000D01*
%TO.C,C20*%
X100340000Y-50461252D02*
X100340000Y-49038748D01*
X102160000Y-50461252D02*
X102160000Y-49038748D01*
%TO.C,R5*%
X91477500Y-93737258D02*
X91477500Y-93262742D01*
X92522500Y-93737258D02*
X92522500Y-93262742D01*
%TO.C,C44*%
X84359420Y-61990000D02*
X84640580Y-61990000D01*
X84359420Y-63010000D02*
X84640580Y-63010000D01*
D13*
%TO.C,U9*%
X28866400Y-65366400D02*
X28866400Y-65789860D01*
X28866400Y-69210140D02*
X28866400Y-69633600D01*
X28866400Y-69633600D02*
X29289860Y-69633600D01*
X29289860Y-65366400D02*
X28866400Y-65366400D01*
X32710140Y-69633600D02*
X33133600Y-69633600D01*
X33133600Y-65366400D02*
X32710140Y-65366400D01*
X33133600Y-65789860D02*
X33133600Y-65366400D01*
X33133600Y-69633600D02*
X33133600Y-69210140D01*
D18*
G36*
X31440500Y-70314599D02*
G01*
X31059499Y-70314599D01*
X31059499Y-70060599D01*
X31440500Y-70060599D01*
X31440500Y-70314599D01*
G37*
G36*
X31940501Y-64939401D02*
G01*
X31559501Y-64939401D01*
X31559501Y-64685401D01*
X31940501Y-64685401D01*
X31940501Y-64939401D01*
G37*
D12*
%TO.C,C18*%
X55340000Y-49038748D02*
X55340000Y-50461252D01*
X57160000Y-49038748D02*
X57160000Y-50461252D01*
%TO.C,C28*%
X63140580Y-63490000D02*
X62859420Y-63490000D01*
X63140580Y-64510000D02*
X62859420Y-64510000D01*
%TO.C,C37*%
X65240000Y-77234420D02*
X65240000Y-77515580D01*
X66260000Y-77234420D02*
X66260000Y-77515580D01*
%TO.C,R19*%
X53487258Y-49727500D02*
X53012742Y-49727500D01*
X53487258Y-50772500D02*
X53012742Y-50772500D01*
%TO.C,R2*%
X83977500Y-93737258D02*
X83977500Y-93262742D01*
X85022500Y-93737258D02*
X85022500Y-93262742D01*
%TO.C,C39*%
X62240000Y-77234420D02*
X62240000Y-77515580D01*
X63260000Y-77234420D02*
X63260000Y-77515580D01*
%TO.C,R27*%
X33877500Y-81937258D02*
X33877500Y-81462742D01*
X34922500Y-81937258D02*
X34922500Y-81462742D01*
%TO.C,C8*%
X96990000Y-99140580D02*
X96990000Y-98859420D01*
X98010000Y-99140580D02*
X98010000Y-98859420D01*
D15*
%TO.C,J1*%
X107175000Y-98650000D02*
X107175000Y-101650000D01*
X107175000Y-104250000D02*
X107175000Y-106650000D01*
X107175000Y-106650000D02*
X116825000Y-106650000D01*
X109250000Y-96150000D02*
X109250000Y-96150000D01*
X109250000Y-96250000D02*
X109250000Y-96250000D01*
X116825000Y-98900000D02*
X116825000Y-101650000D01*
X116825000Y-106650000D02*
X116825000Y-104250000D01*
X109250000Y-96150000D02*
G75*
G02*
X109250000Y-96250000I0J-50000D01*
G01*
X109250000Y-96250000D02*
G75*
G02*
X109250000Y-96150000I0J50000D01*
G01*
%TO.C,J2*%
X96250000Y-25400000D02*
X96250000Y-25400000D01*
X96350000Y-25400000D02*
X96350000Y-25400000D01*
D14*
X97000000Y-21200000D02*
X117000000Y-21200000D01*
X97000000Y-46000000D02*
X97000000Y-21200000D01*
X101445000Y-12800000D02*
X112555000Y-12800000D01*
X101445000Y-21200000D02*
X101445000Y-12800000D01*
X112555000Y-12800000D02*
X112555000Y-21200000D01*
X112555000Y-21200000D02*
X101445000Y-21200000D01*
X117000000Y-21200000D02*
X117000000Y-46000000D01*
X117000000Y-46000000D02*
X97000000Y-46000000D01*
D15*
X96250000Y-25400000D02*
G75*
G02*
X96350000Y-25400000I50000J0D01*
G01*
X96350000Y-25400000D02*
G75*
G02*
X96250000Y-25400000I-50000J0D01*
G01*
D12*
%TO.C,R28*%
X35377500Y-81937258D02*
X35377500Y-81462742D01*
X36422500Y-81937258D02*
X36422500Y-81462742D01*
%TD*%
M02*
