%TF.GenerationSoftware,KiCad,Pcbnew,9.0.6*%
%TF.CreationDate,2026-04-01T05:14:03+02:00*%
%TF.ProjectId,SIGMAGE,5349474d-4147-4452-9e6b-696361645f70,rev?*%
%TF.SameCoordinates,Original*%
%TF.FileFunction,Legend,Bot*%
%TF.FilePolarity,Positive*%
%FSLAX46Y46*%
G04 Gerber Fmt 4.6, Leading zero omitted, Abs format (unit mm)*
G04 Created by KiCad (PCBNEW 9.0.6) date 2026-04-01 05:14:03*
%MOMM*%
%LPD*%
G01*
G04 APERTURE LIST*
%ADD10C,0.508000*%
%ADD11C,1.397000*%
%ADD12C,2.400000*%
%ADD13C,3.400000*%
%ADD14C,1.192000*%
%ADD15C,0.750000*%
%ADD16C,3.075000*%
%ADD17C,1.650000*%
%ADD18C,2.500000*%
%ADD19C,0.650000*%
%ADD20C,1.150000*%
%ADD21C,1.815000*%
%ADD22C,2.085000*%
G04 APERTURE END LIST*
D10*
%TO.C,J14*%
X95322500Y-66935000D02*
G75*
G02*
X94560500Y-66935000I-381000J0D01*
G01*
X94560500Y-66935000D02*
G75*
G02*
X95322500Y-66935000I381000J0D01*
G01*
%TO.C,J17*%
X118210700Y-66935000D02*
G75*
G02*
X117448700Y-66935000I-381000J0D01*
G01*
X117448700Y-66935000D02*
G75*
G02*
X118210700Y-66935000I381000J0D01*
G01*
%TO.C,J8*%
X49931000Y-57355000D02*
G75*
G02*
X49169000Y-57355000I-381000J0D01*
G01*
X49169000Y-57355000D02*
G75*
G02*
X49931000Y-57355000I381000J0D01*
G01*
%TO.C,J7*%
X100931000Y-57355000D02*
G75*
G02*
X100169000Y-57355000I-381000J0D01*
G01*
X100169000Y-57355000D02*
G75*
G02*
X100931000Y-57355000I381000J0D01*
G01*
%TO.C,J9*%
X73202000Y-101850000D02*
G75*
G02*
X72440000Y-101850000I-381000J0D01*
G01*
X72440000Y-101850000D02*
G75*
G02*
X73202000Y-101850000I381000J0D01*
G01*
%TO.C,J10*%
X79536000Y-101850000D02*
G75*
G02*
X78774000Y-101850000I-381000J0D01*
G01*
X78774000Y-101850000D02*
G75*
G02*
X79536000Y-101850000I381000J0D01*
G01*
%TO.C,J11*%
X64771000Y-88420900D02*
G75*
G02*
X64009000Y-88420900I-381000J0D01*
G01*
X64009000Y-88420900D02*
G75*
G02*
X64771000Y-88420900I381000J0D01*
G01*
%TO.C,J15*%
X102951900Y-66935000D02*
G75*
G02*
X102189900Y-66935000I-381000J0D01*
G01*
X102189900Y-66935000D02*
G75*
G02*
X102951900Y-66935000I381000J0D01*
G01*
%TO.C,J13*%
X64771000Y-103679700D02*
G75*
G02*
X64009000Y-103679700I-381000J0D01*
G01*
X64009000Y-103679700D02*
G75*
G02*
X64771000Y-103679700I381000J0D01*
G01*
%TO.C,J16*%
X110581300Y-66935000D02*
G75*
G02*
X109819300Y-66935000I-381000J0D01*
G01*
X109819300Y-66935000D02*
G75*
G02*
X110581300Y-66935000I381000J0D01*
G01*
%TO.C,J12*%
X64771000Y-96050300D02*
G75*
G02*
X64009000Y-96050300I-381000J0D01*
G01*
X64009000Y-96050300D02*
G75*
G02*
X64771000Y-96050300I381000J0D01*
G01*
%TD*%
%LPC*%
D11*
%TO.C,J14*%
X93036500Y-66935000D03*
X90496500Y-66935000D03*
X93036500Y-69475000D03*
X90496500Y-69475000D03*
X93036500Y-72015000D03*
X90496500Y-72015000D03*
X93036500Y-74555000D03*
X90496500Y-74555000D03*
X93036500Y-77095000D03*
X90496500Y-77095000D03*
X93036500Y-79635000D03*
X90496500Y-79635000D03*
X93036500Y-82175000D03*
X90496500Y-82175000D03*
X93036500Y-84715000D03*
X90496500Y-84715000D03*
%TD*%
%TO.C,J17*%
X115924700Y-66935000D03*
X113384700Y-66935000D03*
X115924700Y-69475000D03*
X113384700Y-69475000D03*
X115924700Y-72015000D03*
X113384700Y-72015000D03*
X115924700Y-74555000D03*
X113384700Y-74555000D03*
X115924700Y-77095000D03*
X113384700Y-77095000D03*
X115924700Y-79635000D03*
X113384700Y-79635000D03*
X115924700Y-82175000D03*
X113384700Y-82175000D03*
X115924700Y-84715000D03*
X113384700Y-84715000D03*
%TD*%
D12*
%TO.C,J4*%
X47850000Y-25400000D03*
X47850000Y-38000000D03*
X47850000Y-31700000D03*
X64150000Y-25400000D03*
X64150000Y-38000000D03*
X64150000Y-31700000D03*
%TD*%
D11*
%TO.C,J8*%
X49550000Y-55450000D03*
X52090000Y-55450000D03*
X54630000Y-55450000D03*
X57170000Y-55450000D03*
X59710000Y-55450000D03*
X62250000Y-55450000D03*
%TD*%
%TO.C,J7*%
X100550000Y-55450000D03*
X103090000Y-55450000D03*
X105630000Y-55450000D03*
X108170000Y-55450000D03*
X110710000Y-55450000D03*
X113250000Y-55450000D03*
%TD*%
%TO.C,J9*%
X70916000Y-101850000D03*
X70916000Y-99310000D03*
X70916000Y-96770000D03*
X70916000Y-94230000D03*
X70916000Y-91690000D03*
X70916000Y-89150000D03*
%TD*%
%TO.C,J10*%
X77250000Y-101850000D03*
X77250000Y-99310000D03*
X77250000Y-96770000D03*
X77250000Y-94230000D03*
X77250000Y-91690000D03*
X77250000Y-89150000D03*
%TD*%
%TO.C,J11*%
X64390000Y-86515900D03*
X64390000Y-83975900D03*
X61850000Y-86515900D03*
X61850000Y-83975900D03*
X59310000Y-86515900D03*
X59310000Y-83975900D03*
X56770000Y-86515900D03*
X56770000Y-83975900D03*
X54230000Y-86515900D03*
X54230000Y-83975900D03*
X51690000Y-86515900D03*
X51690000Y-83975900D03*
X49150000Y-86515900D03*
X49150000Y-83975900D03*
X46610000Y-86515900D03*
X46610000Y-83975900D03*
%TD*%
%TO.C,J15*%
X100665900Y-66935000D03*
X98125900Y-66935000D03*
X100665900Y-69475000D03*
X98125900Y-69475000D03*
X100665900Y-72015000D03*
X98125900Y-72015000D03*
X100665900Y-74555000D03*
X98125900Y-74555000D03*
X100665900Y-77095000D03*
X98125900Y-77095000D03*
X100665900Y-79635000D03*
X98125900Y-79635000D03*
X100665900Y-82175000D03*
X98125900Y-82175000D03*
X100665900Y-84715000D03*
X98125900Y-84715000D03*
%TD*%
%TO.C,J13*%
X64390000Y-101774700D03*
X64390000Y-99234700D03*
X61850000Y-101774700D03*
X61850000Y-99234700D03*
X59310000Y-101774700D03*
X59310000Y-99234700D03*
X56770000Y-101774700D03*
X56770000Y-99234700D03*
X54230000Y-101774700D03*
X54230000Y-99234700D03*
X51690000Y-101774700D03*
X51690000Y-99234700D03*
X49150000Y-101774700D03*
X49150000Y-99234700D03*
X46610000Y-101774700D03*
X46610000Y-99234700D03*
%TD*%
D12*
%TO.C,J5*%
X24750000Y-25400000D03*
X24750000Y-38000000D03*
X24750000Y-31700000D03*
X41050000Y-25400000D03*
X41050000Y-38000000D03*
X41050000Y-31700000D03*
%TD*%
D11*
%TO.C,J16*%
X108295300Y-66935000D03*
X105755300Y-66935000D03*
X108295300Y-69475000D03*
X105755300Y-69475000D03*
X108295300Y-72015000D03*
X105755300Y-72015000D03*
X108295300Y-74555000D03*
X105755300Y-74555000D03*
X108295300Y-77095000D03*
X105755300Y-77095000D03*
X108295300Y-79635000D03*
X105755300Y-79635000D03*
X108295300Y-82175000D03*
X105755300Y-82175000D03*
X108295300Y-84715000D03*
X105755300Y-84715000D03*
%TD*%
%TO.C,J12*%
X64390000Y-94145300D03*
X64390000Y-91605300D03*
X61850000Y-94145300D03*
X61850000Y-91605300D03*
X59310000Y-94145300D03*
X59310000Y-91605300D03*
X56770000Y-94145300D03*
X56770000Y-91605300D03*
X54230000Y-94145300D03*
X54230000Y-91605300D03*
X51690000Y-94145300D03*
X51690000Y-91605300D03*
X49150000Y-94145300D03*
X49150000Y-91605300D03*
X46610000Y-94145300D03*
X46610000Y-91605300D03*
%TD*%
D12*
%TO.C,J3*%
X75750000Y-25400000D03*
X75750000Y-38000000D03*
X75750000Y-31700000D03*
X92050000Y-25400000D03*
X92050000Y-38000000D03*
X92050000Y-31700000D03*
%TD*%
D13*
%TO.C,J6*%
X27240000Y-92780000D03*
X36890000Y-92780000D03*
D14*
X35622000Y-83350000D03*
X36638000Y-82080000D03*
X33590000Y-83350000D03*
X34606000Y-82080000D03*
X31558000Y-83350000D03*
X32574000Y-82080000D03*
X29526000Y-83350000D03*
X30542000Y-82080000D03*
X27494000Y-83350000D03*
X28510000Y-82080000D03*
D15*
X38500000Y-98500000D03*
X38500000Y-96470000D03*
X25620000Y-97490000D03*
X25620000Y-95460000D03*
D16*
X40110000Y-86090000D03*
X24010000Y-86090000D03*
D17*
X40110000Y-89590000D03*
X24010000Y-89590000D03*
X40110000Y-93590000D03*
X24010000Y-93590000D03*
D18*
X40110000Y-97490000D03*
X24010000Y-96470000D03*
%TD*%
D19*
%TO.C,J1*%
X108275000Y-98900000D03*
D20*
X115725000Y-98900000D03*
D19*
X115050000Y-98200000D03*
X114400000Y-98900000D03*
X113600000Y-98900000D03*
X113200000Y-98200000D03*
X112800000Y-98900000D03*
X112400000Y-98200000D03*
X111600000Y-98200000D03*
X111200000Y-98900000D03*
X110800000Y-98200000D03*
X110400000Y-98900000D03*
X109600000Y-98900000D03*
X108950000Y-98200000D03*
D21*
X107500000Y-97400000D03*
D22*
X107500000Y-103000000D03*
X116500000Y-103000000D03*
D21*
X116500000Y-97400000D03*
%TD*%
D12*
%TO.C,J2*%
X98850000Y-25400000D03*
X98850000Y-38000000D03*
X98850000Y-31700000D03*
X115150000Y-25400000D03*
X115150000Y-38000000D03*
X115150000Y-31700000D03*
%TD*%
%LPD*%
M02*
