M48
; DRILL file {KiCad 9.0.6} date 2026-04-07T19:44:16+0200
; FORMAT={-:-/ absolute / metric / decimal}
; #@! TF.CreationDate,2026-04-07T19:44:16+02:00
; #@! TF.GenerationSoftware,Kicad,Pcbnew,9.0.6
; #@! TF.FileFunction,Plated,1,4,Blind
FMAT,2
METRIC
; #@! TA.AperFunction,Plated,Buried,ViaDrill
T1C0.300
%
G90
G05
T1
X28.62Y-64.36
X29.3Y-79.6
X33.21Y-70.95
X33.76Y-64.39
X34.4Y-79.6
X34.99Y-48.27
X37.8Y-67.75
X48.25Y-58.17
X48.48Y-48.84
X59.25Y-64.71
X60.0Y-76.6
X62.96Y-67.78
X63.78Y-62.71
X63.78Y-73.42
X66.81Y-58.28
X69.01Y-76.85
X82.13Y-77.475
X82.76Y-61.05
X83.25Y-104.75
X85.65Y-102.5
X85.92Y-48.28
X90.75Y-104.75
X93.25Y-102.5
X93.67Y-58.17
X98.25Y-104.75
X99.5Y-48.96
X100.8Y-102.5
X111.365Y-89.495
X112.25Y-93.37
X112.26Y-95.51
M30
