%TF.GenerationSoftware,KiCad,Pcbnew,9.0.6*%
%TF.CreationDate,2026-04-08T20:24:30+02:00*%
%TF.ProjectId,SIGMAGE,5349474d-4147-4452-9e6b-696361645f70,rev?*%
%TF.SameCoordinates,Original*%
%TF.FileFunction,Soldermask,Top*%
%TF.FilePolarity,Negative*%
%FSLAX46Y46*%
G04 Gerber Fmt 4.6, Leading zero omitted, Abs format (unit mm)*
G04 Created by KiCad (PCBNEW 9.0.6) date 2026-04-08 20:24:30*
%MOMM*%
%LPD*%
G01*
G04 APERTURE LIST*
G04 Aperture macros list*
%AMRoundRect*
0 Rectangle with rounded corners*
0 $1 Rounding radius*
0 $2 $3 $4 $5 $6 $7 $8 $9 X,Y pos of 4 corners*
0 Add a 4 corners polygon primitive as box body*
4,1,4,$2,$3,$4,$5,$6,$7,$8,$9,$2,$3,0*
0 Add four circle primitives for the rounded corners*
1,1,$1+$1,$2,$3*
1,1,$1+$1,$4,$5*
1,1,$1+$1,$6,$7*
1,1,$1+$1,$8,$9*
0 Add four rect primitives between the rounded corners*
20,1,$1+$1,$2,$3,$4,$5,0*
20,1,$1+$1,$4,$5,$6,$7,0*
20,1,$1+$1,$6,$7,$8,$9,0*
20,1,$1+$1,$8,$9,$2,$3,0*%
G04 Aperture macros list end*
%ADD10RoundRect,0.200000X0.275000X-0.200000X0.275000X0.200000X-0.275000X0.200000X-0.275000X-0.200000X0*%
%ADD11RoundRect,0.218750X-0.256250X0.218750X-0.256250X-0.218750X0.256250X-0.218750X0.256250X0.218750X0*%
%ADD12RoundRect,0.225000X-0.225000X-0.250000X0.225000X-0.250000X0.225000X0.250000X-0.225000X0.250000X0*%
%ADD13RoundRect,0.250000X0.650000X-0.325000X0.650000X0.325000X-0.650000X0.325000X-0.650000X-0.325000X0*%
%ADD14RoundRect,0.225000X0.225000X0.250000X-0.225000X0.250000X-0.225000X-0.250000X0.225000X-0.250000X0*%
%ADD15RoundRect,0.225000X0.250000X-0.225000X0.250000X0.225000X-0.250000X0.225000X-0.250000X-0.225000X0*%
%ADD16R,0.254800X0.706399*%
%ADD17R,1.397000X0.812800*%
%ADD18RoundRect,0.225000X-0.250000X0.225000X-0.250000X-0.225000X0.250000X-0.225000X0.250000X0.225000X0*%
%ADD19C,3.250000*%
%ADD20R,1.400000X1.400000*%
%ADD21C,1.400000*%
%ADD22C,1.530000*%
%ADD23C,2.400000*%
%ADD24RoundRect,0.200000X-0.200000X-0.275000X0.200000X-0.275000X0.200000X0.275000X-0.200000X0.275000X0*%
%ADD25C,1.397000*%
%ADD26RoundRect,0.200000X-0.275000X0.200000X-0.275000X-0.200000X0.275000X-0.200000X0.275000X0.200000X0*%
%ADD27RoundRect,0.200000X0.200000X0.275000X-0.200000X0.275000X-0.200000X-0.275000X0.200000X-0.275000X0*%
%ADD28R,2.209800X2.148599*%
%ADD29R,0.950000X0.280000*%
%ADD30RoundRect,0.250000X-0.650000X0.325000X-0.650000X-0.325000X0.650000X-0.325000X0.650000X0.325000X0*%
%ADD31R,1.849999X0.449999*%
%ADD32RoundRect,0.075000X-0.725000X-0.075000X0.725000X-0.075000X0.725000X0.075000X-0.725000X0.075000X0*%
%ADD33RoundRect,0.075000X-0.075000X-0.725000X0.075000X-0.725000X0.075000X0.725000X-0.075000X0.725000X0*%
%ADD34RoundRect,0.218750X0.256250X-0.218750X0.256250X0.218750X-0.256250X0.218750X-0.256250X-0.218750X0*%
%ADD35R,0.604799X0.254800*%
%ADD36R,0.254800X0.604799*%
%ADD37R,2.590800X2.590800*%
%ADD38C,0.650000*%
%ADD39C,1.150000*%
%ADD40R,0.350000X0.700000*%
%ADD41C,1.815000*%
%ADD42C,2.085000*%
G04 APERTURE END LIST*
D10*
%TO.C,R32*%
X92000000Y-91025000D03*
X92000000Y-89375000D03*
%TD*%
%TO.C,R9*%
X84500000Y-91025000D03*
X84500000Y-89375000D03*
%TD*%
D11*
%TO.C,D2*%
X93750000Y-90962500D03*
X93750000Y-92537500D03*
%TD*%
D12*
%TO.C,C6*%
X93725000Y-97500000D03*
X95275000Y-97500000D03*
%TD*%
D13*
%TO.C,C21*%
X84250000Y-51225000D03*
X84250000Y-48275000D03*
%TD*%
D14*
%TO.C,C31*%
X68750000Y-78125000D03*
X67200000Y-78125000D03*
%TD*%
D11*
%TO.C,D1*%
X86250000Y-90962500D03*
X86250000Y-92537500D03*
%TD*%
D15*
%TO.C,FB3*%
X103000000Y-95775000D03*
X103000000Y-94225000D03*
%TD*%
D14*
%TO.C,C17*%
X85925000Y-56450000D03*
X84375000Y-56450000D03*
%TD*%
D16*
%TO.C,U3*%
X99249999Y-101500900D03*
X99750000Y-101500900D03*
X100250000Y-101500900D03*
X100750001Y-101500900D03*
X100750001Y-99499100D03*
X100250000Y-99499100D03*
X99750000Y-99499100D03*
X99249999Y-99499100D03*
D17*
X100000000Y-100500000D03*
%TD*%
D18*
%TO.C,C32*%
X80750000Y-77475000D03*
X80750000Y-79025000D03*
%TD*%
D15*
%TO.C,C52*%
X22750000Y-70275000D03*
X22750000Y-68725000D03*
%TD*%
%TO.C,C24*%
X97900000Y-59725000D03*
X97900000Y-58175000D03*
%TD*%
%TO.C,C49*%
X28250000Y-63200000D03*
X28250000Y-61650000D03*
%TD*%
%TO.C,FB1*%
X88000000Y-95775000D03*
X88000000Y-94225000D03*
%TD*%
D19*
%TO.C,J6*%
X25585000Y-95100000D03*
X37015000Y-95100000D03*
D20*
X37015000Y-88750000D03*
D21*
X35745000Y-86210000D03*
X34475000Y-88750000D03*
X33205000Y-86210000D03*
X31935000Y-88750000D03*
X30665000Y-86210000D03*
X29395000Y-88750000D03*
X28125000Y-86210000D03*
X26855000Y-88750000D03*
X25585000Y-86210000D03*
D22*
X24515000Y-97640000D03*
X24515000Y-99670000D03*
X38085000Y-97640000D03*
X38085000Y-99670000D03*
D23*
X39050000Y-92050000D03*
X23550000Y-92050000D03*
%TD*%
D10*
%TO.C,R4*%
X92000000Y-97575000D03*
X92000000Y-95925000D03*
%TD*%
D12*
%TO.C,C33*%
X83725000Y-61000000D03*
X85275000Y-61000000D03*
%TD*%
D10*
%TO.C,R3*%
X86250000Y-95825000D03*
X86250000Y-94175000D03*
%TD*%
D14*
%TO.C,C30*%
X63775000Y-70500000D03*
X62225000Y-70500000D03*
%TD*%
D24*
%TO.C,R11*%
X113425000Y-94250000D03*
X115075000Y-94250000D03*
%TD*%
D25*
%TO.C,J14*%
X93036500Y-66935000D03*
X90496500Y-66935000D03*
X93036500Y-69475000D03*
X90496500Y-69475000D03*
X93036500Y-72015000D03*
X90496500Y-72015000D03*
X93036500Y-74555000D03*
X90496500Y-74555000D03*
X93036500Y-77095000D03*
X90496500Y-77095000D03*
X93036500Y-79635000D03*
X90496500Y-79635000D03*
X93036500Y-82175000D03*
X90496500Y-82175000D03*
X93036500Y-84715000D03*
X90496500Y-84715000D03*
%TD*%
D12*
%TO.C,C10*%
X113475000Y-92500000D03*
X115025000Y-92500000D03*
%TD*%
D16*
%TO.C,U2*%
X91749999Y-101500900D03*
X92250000Y-101500900D03*
X92750000Y-101500900D03*
X93250001Y-101500900D03*
X93250001Y-99499100D03*
X92750000Y-99499100D03*
X92250000Y-99499100D03*
X91749999Y-99499100D03*
D17*
X92500000Y-100500000D03*
%TD*%
D26*
%TO.C,R22*%
X59250000Y-66425000D03*
X59250000Y-68075000D03*
%TD*%
D25*
%TO.C,J20*%
X104100000Y-89230000D03*
X104100000Y-91770000D03*
%TD*%
D13*
%TO.C,C23*%
X33250000Y-51225000D03*
X33250000Y-48275000D03*
%TD*%
D18*
%TO.C,C38*%
X64250000Y-76600000D03*
X64250000Y-78150000D03*
%TD*%
D16*
%TO.C,U1*%
X84249999Y-101500900D03*
X84750000Y-101500900D03*
X85250000Y-101500900D03*
X85750001Y-101500900D03*
X85750001Y-99499100D03*
X85250000Y-99499100D03*
X84750000Y-99499100D03*
X84249999Y-99499100D03*
D17*
X85000000Y-100500000D03*
%TD*%
D25*
%TO.C,J17*%
X115924700Y-66935000D03*
X113384700Y-66935000D03*
X115924700Y-69475000D03*
X113384700Y-69475000D03*
X115924700Y-72015000D03*
X113384700Y-72015000D03*
X115924700Y-74555000D03*
X113384700Y-74555000D03*
X115924700Y-77095000D03*
X113384700Y-77095000D03*
X115924700Y-79635000D03*
X113384700Y-79635000D03*
X115924700Y-82175000D03*
X113384700Y-82175000D03*
X115924700Y-84715000D03*
X113384700Y-84715000D03*
%TD*%
D23*
%TO.C,J4*%
X47850000Y-25400000D03*
X47850000Y-38000000D03*
X47850000Y-31700000D03*
X64150000Y-25400000D03*
X64150000Y-38000000D03*
X64150000Y-31700000D03*
%TD*%
D25*
%TO.C,J8*%
X49550000Y-55450000D03*
X52090000Y-55450000D03*
X54630000Y-55450000D03*
X57170000Y-55450000D03*
X59710000Y-55450000D03*
X62250000Y-55450000D03*
%TD*%
D18*
%TO.C,C51*%
X22750000Y-65725000D03*
X22750000Y-67275000D03*
%TD*%
D14*
%TO.C,C16*%
X85925000Y-54700000D03*
X84375000Y-54700000D03*
%TD*%
D18*
%TO.C,C14*%
X46900000Y-58175000D03*
X46900000Y-59725000D03*
%TD*%
D10*
%TO.C,R7*%
X99500000Y-97575000D03*
X99500000Y-95925000D03*
%TD*%
D15*
%TO.C,C50*%
X33750000Y-63225000D03*
X33750000Y-61675000D03*
%TD*%
%TO.C,C35*%
X69250000Y-57525000D03*
X69250000Y-55975000D03*
%TD*%
D27*
%TO.C,R12*%
X111075000Y-90750000D03*
X109425000Y-90750000D03*
%TD*%
%TO.C,R10*%
X111075000Y-94250000D03*
X109425000Y-94250000D03*
%TD*%
D18*
%TO.C,C40*%
X60750000Y-66475000D03*
X60750000Y-68025000D03*
%TD*%
D15*
%TO.C,C42*%
X55750000Y-74775000D03*
X55750000Y-73225000D03*
%TD*%
D12*
%TO.C,C15*%
X33375000Y-58200000D03*
X34925000Y-58200000D03*
%TD*%
D18*
%TO.C,C54*%
X27800000Y-80925000D03*
X27800000Y-82475000D03*
%TD*%
D24*
%TO.C,R17*%
X52425000Y-48500000D03*
X54075000Y-48500000D03*
%TD*%
D28*
%TO.C,X2*%
X25750000Y-66320800D03*
X25750000Y-69679200D03*
%TD*%
D15*
%TO.C,C34*%
X67750000Y-57525000D03*
X67750000Y-55975000D03*
%TD*%
D10*
%TO.C,R25*%
X38000000Y-82525000D03*
X38000000Y-80875000D03*
%TD*%
%TO.C,R8*%
X99500000Y-94325000D03*
X99500000Y-92675000D03*
%TD*%
D14*
%TO.C,C53*%
X63775000Y-72000000D03*
X62225000Y-72000000D03*
%TD*%
D26*
%TO.C,R23*%
X70750000Y-55925000D03*
X70750000Y-57575000D03*
%TD*%
D27*
%TO.C,R15*%
X105075000Y-50250000D03*
X103425000Y-50250000D03*
%TD*%
D25*
%TO.C,J18*%
X89080000Y-89230000D03*
X89080000Y-91770000D03*
%TD*%
D13*
%TO.C,C22*%
X50250000Y-51225000D03*
X50250000Y-48275000D03*
%TD*%
D29*
%TO.C,U6*%
X40574933Y-48749999D03*
X40574933Y-49250000D03*
X40574933Y-49750000D03*
X40574933Y-50250001D03*
X43425067Y-50250001D03*
X43425067Y-49750000D03*
X43425067Y-49250000D03*
X43425067Y-48749999D03*
%TD*%
D25*
%TO.C,J7*%
X100550000Y-55450000D03*
X103090000Y-55450000D03*
X105630000Y-55450000D03*
X108170000Y-55450000D03*
X110710000Y-55450000D03*
X113250000Y-55450000D03*
%TD*%
D12*
%TO.C,C3*%
X86225000Y-97500000D03*
X87775000Y-97500000D03*
%TD*%
D24*
%TO.C,R20*%
X29425000Y-50250000D03*
X31075000Y-50250000D03*
%TD*%
D12*
%TO.C,C9*%
X101225000Y-97500000D03*
X102775000Y-97500000D03*
%TD*%
D10*
%TO.C,R24*%
X24600000Y-82525000D03*
X24600000Y-80875000D03*
%TD*%
D24*
%TO.C,R13*%
X103425000Y-48500000D03*
X105075000Y-48500000D03*
%TD*%
D25*
%TO.C,J9*%
X70916000Y-101850000D03*
X70916000Y-99310000D03*
X70916000Y-96770000D03*
X70916000Y-94230000D03*
X70916000Y-91690000D03*
X70916000Y-89150000D03*
%TD*%
D30*
%TO.C,C19*%
X27250000Y-48275000D03*
X27250000Y-51225000D03*
%TD*%
D25*
%TO.C,J10*%
X77250000Y-101850000D03*
X77250000Y-99310000D03*
X77250000Y-96770000D03*
X77250000Y-94230000D03*
X77250000Y-91690000D03*
X77250000Y-89150000D03*
%TD*%
%TO.C,J11*%
X64390000Y-86515900D03*
X64390000Y-83975900D03*
X61850000Y-86515900D03*
X61850000Y-83975900D03*
X59310000Y-86515900D03*
X59310000Y-83975900D03*
X56770000Y-86515900D03*
X56770000Y-83975900D03*
X54230000Y-86515900D03*
X54230000Y-83975900D03*
X51690000Y-86515900D03*
X51690000Y-83975900D03*
X49150000Y-86515900D03*
X49150000Y-83975900D03*
X46610000Y-86515900D03*
X46610000Y-83975900D03*
%TD*%
D10*
%TO.C,R6*%
X93750000Y-95825000D03*
X93750000Y-94175000D03*
%TD*%
D15*
%TO.C,C2*%
X82500000Y-99775900D03*
X82500000Y-98225900D03*
%TD*%
%TO.C,C46*%
X29000000Y-73025000D03*
X29000000Y-71475000D03*
%TD*%
D25*
%TO.C,J19*%
X96600000Y-89230000D03*
X96600000Y-91770000D03*
%TD*%
D24*
%TO.C,R21*%
X62675000Y-75125000D03*
X64325000Y-75125000D03*
%TD*%
D12*
%TO.C,C1*%
X83225000Y-103500900D03*
X84775000Y-103500900D03*
%TD*%
D18*
%TO.C,C47*%
X32000000Y-71475000D03*
X32000000Y-73025000D03*
%TD*%
D28*
%TO.C,X1*%
X58750000Y-70820800D03*
X58750000Y-74179200D03*
%TD*%
D10*
%TO.C,R29*%
X31400000Y-82525000D03*
X31400000Y-80875000D03*
%TD*%
D12*
%TO.C,C26*%
X84375000Y-58200000D03*
X85925000Y-58200000D03*
%TD*%
D15*
%TO.C,C5*%
X90000000Y-99775000D03*
X90000000Y-98225000D03*
%TD*%
D18*
%TO.C,C56*%
X89700000Y-94225000D03*
X89700000Y-95775000D03*
%TD*%
D27*
%TO.C,R14*%
X82075000Y-48500000D03*
X80425000Y-48500000D03*
%TD*%
D18*
%TO.C,C43*%
X79250000Y-77475000D03*
X79250000Y-79025000D03*
%TD*%
D14*
%TO.C,C25*%
X34925000Y-54700000D03*
X33375000Y-54700000D03*
%TD*%
D27*
%TO.C,R18*%
X31075000Y-48500000D03*
X29425000Y-48500000D03*
%TD*%
D30*
%TO.C,C12*%
X107250000Y-48275000D03*
X107250000Y-51225000D03*
%TD*%
D18*
%TO.C,C58*%
X104700000Y-94225000D03*
X104700000Y-95775000D03*
%TD*%
D30*
%TO.C,C13*%
X78250000Y-48275000D03*
X78250000Y-51225000D03*
%TD*%
D25*
%TO.C,J15*%
X100665900Y-66935000D03*
X98125900Y-66935000D03*
X100665900Y-69475000D03*
X98125900Y-69475000D03*
X100665900Y-72015000D03*
X98125900Y-72015000D03*
X100665900Y-74555000D03*
X98125900Y-74555000D03*
X100665900Y-77095000D03*
X98125900Y-77095000D03*
X100665900Y-79635000D03*
X98125900Y-79635000D03*
X100665900Y-82175000D03*
X98125900Y-82175000D03*
X100665900Y-84715000D03*
X98125900Y-84715000D03*
%TD*%
D31*
%TO.C,U5*%
X88399999Y-54275000D03*
X88399999Y-54925001D03*
X88399999Y-55574999D03*
X88399999Y-56225001D03*
X88399999Y-56874999D03*
X88399999Y-57525001D03*
X88399999Y-58174999D03*
X88399999Y-58825001D03*
X88399999Y-59474999D03*
X88399999Y-60125000D03*
X95400001Y-60125000D03*
X95400001Y-59474999D03*
X95400001Y-58825001D03*
X95400001Y-58174999D03*
X95400001Y-57525001D03*
X95400001Y-56874999D03*
X95400001Y-56225001D03*
X95400001Y-55574999D03*
X95400001Y-54925001D03*
X95400001Y-54275000D03*
%TD*%
%TO.C,U7*%
X37399999Y-54275000D03*
X37399999Y-54925001D03*
X37399999Y-55574999D03*
X37399999Y-56225001D03*
X37399999Y-56874999D03*
X37399999Y-57525001D03*
X37399999Y-58174999D03*
X37399999Y-58825001D03*
X37399999Y-59474999D03*
X37399999Y-60125000D03*
X44400001Y-60125000D03*
X44400001Y-59474999D03*
X44400001Y-58825001D03*
X44400001Y-58174999D03*
X44400001Y-57525001D03*
X44400001Y-56874999D03*
X44400001Y-56225001D03*
X44400001Y-55574999D03*
X44400001Y-54925001D03*
X44400001Y-54275000D03*
%TD*%
D18*
%TO.C,C55*%
X29300000Y-80925000D03*
X29300000Y-82475000D03*
%TD*%
%TO.C,C41*%
X55750000Y-70225000D03*
X55750000Y-71775000D03*
%TD*%
D25*
%TO.C,J13*%
X64390000Y-101774700D03*
X64390000Y-99234700D03*
X61850000Y-101774700D03*
X61850000Y-99234700D03*
X59310000Y-101774700D03*
X59310000Y-99234700D03*
X56770000Y-101774700D03*
X56770000Y-99234700D03*
X54230000Y-101774700D03*
X54230000Y-99234700D03*
X51690000Y-101774700D03*
X51690000Y-99234700D03*
X49150000Y-101774700D03*
X49150000Y-99234700D03*
X46610000Y-101774700D03*
X46610000Y-99234700D03*
%TD*%
D26*
%TO.C,R26*%
X29750000Y-61600000D03*
X29750000Y-63250000D03*
%TD*%
D15*
%TO.C,FB4*%
X112750000Y-90775000D03*
X112750000Y-89225000D03*
%TD*%
D12*
%TO.C,C4*%
X90725000Y-103500000D03*
X92275000Y-103500000D03*
%TD*%
D10*
%TO.C,R1*%
X84500000Y-97575000D03*
X84500000Y-95925000D03*
%TD*%
D23*
%TO.C,J5*%
X24750000Y-25400000D03*
X24750000Y-38000000D03*
X24750000Y-31700000D03*
X41050000Y-25400000D03*
X41050000Y-38000000D03*
X41050000Y-31700000D03*
%TD*%
D32*
%TO.C,U8*%
X66075000Y-61500000D03*
X66075000Y-62000000D03*
X66075000Y-62500000D03*
X66075000Y-63000000D03*
X66075000Y-63500000D03*
X66075000Y-64000000D03*
X66075000Y-64500000D03*
X66075000Y-65000000D03*
X66075000Y-65500000D03*
X66075000Y-66000000D03*
X66075000Y-66500000D03*
X66075000Y-67000000D03*
X66075000Y-67500000D03*
X66075000Y-68000000D03*
X66075000Y-68500000D03*
X66075000Y-69000000D03*
X66075000Y-69500000D03*
X66075000Y-70000000D03*
X66075000Y-70500000D03*
X66075000Y-71000000D03*
X66075000Y-71500000D03*
X66075000Y-72000000D03*
X66075000Y-72500000D03*
X66075000Y-73000000D03*
X66075000Y-73500000D03*
D33*
X67750000Y-75175000D03*
X68250000Y-75175000D03*
X68750000Y-75175000D03*
X69250000Y-75175000D03*
X69750000Y-75175000D03*
X70250000Y-75175000D03*
X70750000Y-75175000D03*
X71250000Y-75175000D03*
X71750000Y-75175000D03*
X72250000Y-75175000D03*
X72750000Y-75175000D03*
X73250000Y-75175000D03*
X73750000Y-75175000D03*
X74250000Y-75175000D03*
X74750000Y-75175000D03*
X75250000Y-75175000D03*
X75750000Y-75175000D03*
X76250000Y-75175000D03*
X76750000Y-75175000D03*
X77250000Y-75175000D03*
X77750000Y-75175000D03*
X78250000Y-75175000D03*
X78750000Y-75175000D03*
X79250000Y-75175000D03*
X79750000Y-75175000D03*
D32*
X81425000Y-73500000D03*
X81425000Y-73000000D03*
X81425000Y-72500000D03*
X81425000Y-72000000D03*
X81425000Y-71500000D03*
X81425000Y-71000000D03*
X81425000Y-70500000D03*
X81425000Y-70000000D03*
X81425000Y-69500000D03*
X81425000Y-69000000D03*
X81425000Y-68500000D03*
X81425000Y-68000000D03*
X81425000Y-67500000D03*
X81425000Y-67000000D03*
X81425000Y-66500000D03*
X81425000Y-66000000D03*
X81425000Y-65500000D03*
X81425000Y-65000000D03*
X81425000Y-64500000D03*
X81425000Y-64000000D03*
X81425000Y-63500000D03*
X81425000Y-63000000D03*
X81425000Y-62500000D03*
X81425000Y-62000000D03*
X81425000Y-61500000D03*
D33*
X79750000Y-59825000D03*
X79250000Y-59825000D03*
X78750000Y-59825000D03*
X78250000Y-59825000D03*
X77750000Y-59825000D03*
X77250000Y-59825000D03*
X76750000Y-59825000D03*
X76250000Y-59825000D03*
X75750000Y-59825000D03*
X75250000Y-59825000D03*
X74750000Y-59825000D03*
X74250000Y-59825000D03*
X73750000Y-59825000D03*
X73250000Y-59825000D03*
X72750000Y-59825000D03*
X72250000Y-59825000D03*
X71750000Y-59825000D03*
X71250000Y-59825000D03*
X70750000Y-59825000D03*
X70250000Y-59825000D03*
X69750000Y-59825000D03*
X69250000Y-59825000D03*
X68750000Y-59825000D03*
X68250000Y-59825000D03*
X67750000Y-59825000D03*
%TD*%
D12*
%TO.C,C7*%
X98225000Y-103500000D03*
X99775000Y-103500000D03*
%TD*%
D15*
%TO.C,C45*%
X30500000Y-73025000D03*
X30500000Y-71475000D03*
%TD*%
D25*
%TO.C,J16*%
X108295300Y-66935000D03*
X105755300Y-66935000D03*
X108295300Y-69475000D03*
X105755300Y-69475000D03*
X108295300Y-72015000D03*
X105755300Y-72015000D03*
X108295300Y-74555000D03*
X105755300Y-74555000D03*
X108295300Y-77095000D03*
X105755300Y-77095000D03*
X108295300Y-79635000D03*
X105755300Y-79635000D03*
X108295300Y-82175000D03*
X105755300Y-82175000D03*
X108295300Y-84715000D03*
X105755300Y-84715000D03*
%TD*%
D24*
%TO.C,R16*%
X80425000Y-50250000D03*
X82075000Y-50250000D03*
%TD*%
D15*
%TO.C,C48*%
X32250000Y-63225000D03*
X32250000Y-61675000D03*
%TD*%
D14*
%TO.C,C27*%
X34925000Y-56450000D03*
X33375000Y-56450000D03*
%TD*%
%TO.C,C11*%
X111025000Y-92500000D03*
X109475000Y-92500000D03*
%TD*%
D25*
%TO.C,J12*%
X64390000Y-94145300D03*
X64390000Y-91605300D03*
X61850000Y-94145300D03*
X61850000Y-91605300D03*
X59310000Y-94145300D03*
X59310000Y-91605300D03*
X56770000Y-94145300D03*
X56770000Y-91605300D03*
X54230000Y-94145300D03*
X54230000Y-91605300D03*
X51690000Y-94145300D03*
X51690000Y-91605300D03*
X49150000Y-94145300D03*
X49150000Y-91605300D03*
X46610000Y-94145300D03*
X46610000Y-91605300D03*
%TD*%
D10*
%TO.C,R30*%
X32900000Y-82525000D03*
X32900000Y-80875000D03*
%TD*%
D15*
%TO.C,C36*%
X61250000Y-78150000D03*
X61250000Y-76600000D03*
%TD*%
D18*
%TO.C,C57*%
X97200000Y-94225000D03*
X97200000Y-95775000D03*
%TD*%
D23*
%TO.C,J3*%
X75750000Y-25400000D03*
X75750000Y-38000000D03*
X75750000Y-31700000D03*
X92050000Y-25400000D03*
X92050000Y-38000000D03*
X92050000Y-31700000D03*
%TD*%
D29*
%TO.C,U4*%
X91574933Y-48749999D03*
X91574933Y-49250000D03*
X91574933Y-49750000D03*
X91574933Y-50250001D03*
X94425067Y-50250001D03*
X94425067Y-49750000D03*
X94425067Y-49250000D03*
X94425067Y-48749999D03*
%TD*%
D34*
%TO.C,D4*%
X107750000Y-92287500D03*
X107750000Y-90712500D03*
%TD*%
D24*
%TO.C,R31*%
X34925000Y-67750000D03*
X36575000Y-67750000D03*
%TD*%
D15*
%TO.C,FB2*%
X95500000Y-95775000D03*
X95500000Y-94225000D03*
%TD*%
D14*
%TO.C,C29*%
X63775000Y-66500000D03*
X62225000Y-66500000D03*
%TD*%
D13*
%TO.C,C20*%
X101250000Y-51225000D03*
X101250000Y-48275000D03*
%TD*%
D10*
%TO.C,R5*%
X92000000Y-94325000D03*
X92000000Y-92675000D03*
%TD*%
D12*
%TO.C,C44*%
X83725000Y-62500000D03*
X85275000Y-62500000D03*
%TD*%
D35*
%TO.C,U9*%
X28995800Y-66250000D03*
X28995800Y-66749999D03*
X28995800Y-67250000D03*
X28995800Y-67750000D03*
X28995800Y-68250001D03*
X28995800Y-68750000D03*
D36*
X29750000Y-69504200D03*
X30249999Y-69504200D03*
X30750000Y-69504200D03*
X31250000Y-69504200D03*
X31750001Y-69504200D03*
X32250000Y-69504200D03*
D35*
X33004200Y-68750000D03*
X33004200Y-68250001D03*
X33004200Y-67750000D03*
X33004200Y-67250000D03*
X33004200Y-66749999D03*
X33004200Y-66250000D03*
D36*
X32250000Y-65495800D03*
X31750001Y-65495800D03*
X31250000Y-65495800D03*
X30750000Y-65495800D03*
X30249999Y-65495800D03*
X29750000Y-65495800D03*
D37*
X31000000Y-67500000D03*
%TD*%
D30*
%TO.C,C18*%
X56250000Y-48275000D03*
X56250000Y-51225000D03*
%TD*%
D14*
%TO.C,C28*%
X63775000Y-64000000D03*
X62225000Y-64000000D03*
%TD*%
D18*
%TO.C,C37*%
X65750000Y-76600000D03*
X65750000Y-78150000D03*
%TD*%
D27*
%TO.C,R19*%
X54075000Y-50250000D03*
X52425000Y-50250000D03*
%TD*%
D10*
%TO.C,R2*%
X84500000Y-94325000D03*
X84500000Y-92675000D03*
%TD*%
D18*
%TO.C,C39*%
X62750000Y-76600000D03*
X62750000Y-78150000D03*
%TD*%
D10*
%TO.C,R27*%
X34400000Y-82525000D03*
X34400000Y-80875000D03*
%TD*%
D15*
%TO.C,C8*%
X97500000Y-99775000D03*
X97500000Y-98225000D03*
%TD*%
D38*
%TO.C,J1*%
X108275000Y-98900000D03*
D39*
X115725000Y-98900000D03*
D40*
X109250000Y-97050000D03*
X109750000Y-97050000D03*
X110250000Y-97050000D03*
X110750000Y-97050000D03*
X111250000Y-97050000D03*
X111750000Y-97050000D03*
X112250000Y-97050000D03*
X112750000Y-97050000D03*
X113250000Y-97050000D03*
X113750000Y-97050000D03*
X114250000Y-97050000D03*
X114750000Y-97050000D03*
D38*
X115050000Y-98200000D03*
X114400000Y-98900000D03*
X113600000Y-98900000D03*
X113200000Y-98200000D03*
X112800000Y-98900000D03*
X112400000Y-98200000D03*
X111600000Y-98200000D03*
X111200000Y-98900000D03*
X110800000Y-98200000D03*
X110400000Y-98900000D03*
X109600000Y-98900000D03*
X108950000Y-98200000D03*
D41*
X107500000Y-97400000D03*
D42*
X107500000Y-103000000D03*
X116500000Y-103000000D03*
D41*
X116500000Y-97400000D03*
%TD*%
D23*
%TO.C,J2*%
X98850000Y-25400000D03*
X98850000Y-38000000D03*
X98850000Y-31700000D03*
X115150000Y-25400000D03*
X115150000Y-38000000D03*
X115150000Y-31700000D03*
%TD*%
D10*
%TO.C,R28*%
X35900000Y-82525000D03*
X35900000Y-80875000D03*
%TD*%
M02*
